G75*
%MOIN*%
%OFA0B0*%
%FSLAX24Y24*%
%IPPOS*%
%LPD*%
%AMOC8*
5,1,8,0,0,1.08239X$1,22.5*
%
%ADD10C,0.0480*%
%ADD11C,0.0650*%
%ADD12OC8,0.0740*%
%ADD13C,0.0740*%
%ADD14R,0.0472X0.0236*%
%ADD15C,0.0860*%
%ADD16R,0.0250X0.0500*%
%ADD17R,0.0650X0.0650*%
%ADD18R,0.0740X0.0740*%
%ADD19R,0.0276X0.0591*%
%ADD20R,0.0394X0.0236*%
%ADD21R,0.0394X0.0315*%
%ADD22C,0.0160*%
%ADD23C,0.0337*%
%ADD24OC8,0.0376*%
%ADD25C,0.0120*%
%ADD26C,0.0376*%
%ADD27C,0.0472*%
D10*
X013840Y004430D02*
X014320Y004430D01*
X014320Y005430D02*
X013840Y005430D01*
X013840Y006430D02*
X014320Y006430D01*
X014320Y007430D02*
X013840Y007430D01*
X013840Y008430D02*
X014320Y008430D01*
X014320Y009430D02*
X013840Y009430D01*
X013840Y010430D02*
X014320Y010430D01*
X014320Y011430D02*
X013840Y011430D01*
X013840Y012430D02*
X014320Y012430D01*
X014320Y013430D02*
X013840Y013430D01*
X013840Y014430D02*
X014320Y014430D01*
X014320Y015430D02*
X013840Y015430D01*
X013840Y016430D02*
X014320Y016430D01*
X014320Y017430D02*
X013840Y017430D01*
X016840Y017430D02*
X017320Y017430D01*
X017320Y016430D02*
X016840Y016430D01*
X016840Y015430D02*
X017320Y015430D01*
X017320Y014430D02*
X016840Y014430D01*
X016840Y013430D02*
X017320Y013430D01*
X017320Y012430D02*
X016840Y012430D01*
X016840Y011430D02*
X017320Y011430D01*
X017320Y010430D02*
X016840Y010430D01*
X016840Y009430D02*
X017320Y009430D01*
X017320Y008430D02*
X016840Y008430D01*
X016840Y007430D02*
X017320Y007430D01*
X017320Y006430D02*
X016840Y006430D01*
X016840Y005430D02*
X017320Y005430D01*
X017320Y004430D02*
X016840Y004430D01*
D11*
X018330Y005330D03*
X019330Y005330D03*
X018830Y007130D03*
X018830Y009130D03*
X018330Y010830D03*
X019330Y010830D03*
X019330Y016080D03*
X019330Y017630D03*
X018330Y017630D03*
X013030Y005580D03*
X013030Y004580D03*
X010980Y003930D03*
X009980Y003930D03*
X003580Y014630D03*
X002480Y015130D03*
X003580Y015630D03*
X003580Y016730D03*
X003580Y017730D03*
D12*
X014480Y002930D03*
X015480Y002930D03*
X016480Y002930D03*
X016480Y001930D03*
X015480Y001930D03*
X014480Y001930D03*
D13*
X008930Y004030D03*
X007930Y004030D03*
X006930Y004030D03*
X005930Y004030D03*
X004930Y004030D03*
X003930Y004030D03*
X005640Y010600D03*
X007420Y010600D03*
X007420Y013160D03*
X005640Y013160D03*
X003230Y011830D03*
X005530Y015430D03*
X006530Y015430D03*
X009930Y013180D03*
X010930Y013180D03*
X011930Y013180D03*
X012430Y011630D03*
X012430Y010630D03*
X010230Y011830D03*
X002480Y017480D03*
X001980Y016730D03*
X001480Y017480D03*
D14*
X011832Y009080D03*
X011832Y008580D03*
X011832Y008080D03*
X011832Y007580D03*
X011832Y007080D03*
X011832Y006580D03*
X011832Y006080D03*
X011832Y005580D03*
D15*
X011364Y014861D03*
X012349Y014861D03*
X010380Y016830D03*
X009396Y014861D03*
X008411Y014861D03*
D16*
X018153Y014430D03*
X018507Y014430D03*
X019203Y014430D03*
X019557Y014430D03*
D17*
X018330Y016080D03*
X001480Y015130D03*
D18*
X008930Y013180D03*
D19*
X007066Y016941D03*
X005885Y016941D03*
X005294Y016941D03*
D20*
X004743Y018024D03*
X007617Y018024D03*
D21*
X007617Y017197D03*
X004743Y017197D03*
D22*
X001000Y003334D02*
X001000Y001000D01*
X019760Y001000D01*
X019760Y005153D01*
X019724Y005067D01*
X019593Y004936D01*
X019422Y004865D01*
X019238Y004865D01*
X019067Y004936D01*
X018936Y005067D01*
X018865Y005238D01*
X018865Y005422D01*
X018936Y005593D01*
X019067Y005724D01*
X019110Y005742D01*
X019110Y006539D01*
X018966Y006683D01*
X018922Y006665D01*
X018738Y006665D01*
X018567Y006736D01*
X018436Y006867D01*
X018365Y007038D01*
X018365Y007222D01*
X018383Y007266D01*
X018189Y007460D01*
X018089Y007460D01*
X017960Y007589D01*
X017839Y007710D01*
X017577Y007710D01*
X017642Y007645D01*
X017700Y007506D01*
X017700Y007354D01*
X017642Y007215D01*
X017535Y007108D01*
X017396Y007050D01*
X016764Y007050D01*
X016625Y007108D01*
X016523Y007210D01*
X015389Y007210D01*
X014789Y007810D01*
X013610Y007810D01*
X013633Y007755D01*
X013764Y007810D01*
X014396Y007810D01*
X014535Y007752D01*
X014642Y007645D01*
X014700Y007506D01*
X014700Y007354D01*
X014642Y007215D01*
X014535Y007108D01*
X014396Y007050D01*
X013764Y007050D01*
X013625Y007108D01*
X013518Y007215D01*
X013460Y007354D01*
X013460Y007400D01*
X013391Y007372D01*
X013333Y007372D01*
X013150Y007188D01*
X013191Y007188D01*
X013305Y007141D01*
X013391Y007055D01*
X013438Y006941D01*
X013438Y006819D01*
X013391Y006705D01*
X013305Y006619D01*
X013231Y006588D01*
X013460Y006413D01*
X013460Y006506D01*
X013518Y006645D01*
X013625Y006752D01*
X013764Y006810D01*
X014396Y006810D01*
X014535Y006752D01*
X014642Y006645D01*
X014700Y006506D01*
X014700Y006354D01*
X014642Y006215D01*
X014577Y006150D01*
X015071Y006150D01*
X015200Y006021D01*
X015371Y005850D01*
X016321Y005850D01*
X016450Y005721D01*
X016521Y005650D01*
X016523Y005650D01*
X016625Y005752D01*
X016764Y005810D01*
X017389Y005810D01*
X017149Y006050D01*
X016764Y006050D01*
X016625Y006108D01*
X016518Y006215D01*
X016460Y006354D01*
X016460Y006506D01*
X016518Y006645D01*
X016625Y006752D01*
X016764Y006810D01*
X017396Y006810D01*
X017535Y006752D01*
X017642Y006645D01*
X017700Y006506D01*
X017700Y006354D01*
X017642Y006215D01*
X017624Y006197D01*
X018000Y005821D01*
X018000Y005714D01*
X018001Y005715D01*
X018065Y005762D01*
X018136Y005798D01*
X018212Y005823D01*
X018290Y005835D01*
X018330Y005835D01*
X018330Y005330D01*
X018330Y005330D01*
X018835Y005330D01*
X018835Y005370D01*
X018823Y005448D01*
X018798Y005524D01*
X018762Y005595D01*
X018715Y005659D01*
X018659Y005715D01*
X018595Y005762D01*
X018524Y005798D01*
X018448Y005823D01*
X018370Y005835D01*
X018330Y005835D01*
X018330Y005330D01*
X018330Y005330D01*
X018835Y005330D01*
X018835Y005290D01*
X018823Y005212D01*
X018798Y005136D01*
X018762Y005065D01*
X018715Y005001D01*
X018659Y004945D01*
X018595Y004898D01*
X018524Y004862D01*
X018448Y004837D01*
X018370Y004825D01*
X018330Y004825D01*
X018330Y005330D01*
X018330Y005330D01*
X018330Y004825D01*
X018290Y004825D01*
X018212Y004837D01*
X018136Y004862D01*
X018065Y004898D01*
X018001Y004945D01*
X017953Y004992D01*
X017871Y004910D01*
X017671Y004710D01*
X017577Y004710D01*
X017642Y004645D01*
X017700Y004506D01*
X017700Y004354D01*
X017642Y004215D01*
X017535Y004108D01*
X017396Y004050D01*
X016764Y004050D01*
X016625Y004108D01*
X016518Y004215D01*
X016506Y004244D01*
X016421Y004160D01*
X015700Y003439D01*
X015700Y003431D01*
X015952Y003180D01*
X016252Y003480D01*
X016460Y003480D01*
X016460Y002950D01*
X016500Y002950D01*
X016500Y003480D01*
X016708Y003480D01*
X017030Y003158D01*
X017030Y002950D01*
X016500Y002950D01*
X016500Y002910D01*
X017030Y002910D01*
X017030Y002702D01*
X016730Y002402D01*
X016990Y002141D01*
X016990Y001719D01*
X016691Y001420D01*
X016269Y001420D01*
X015980Y001709D01*
X015691Y001420D01*
X015269Y001420D01*
X014980Y001709D01*
X014691Y001420D01*
X014269Y001420D01*
X013979Y001710D01*
X013839Y001710D01*
X013589Y001960D01*
X013460Y002089D01*
X013460Y003280D01*
X012848Y003810D01*
X011641Y003810D01*
X011615Y003794D01*
X011553Y003810D01*
X011489Y003810D01*
X011475Y003824D01*
X011473Y003812D01*
X011448Y003736D01*
X011412Y003665D01*
X011365Y003601D01*
X011309Y003545D01*
X011245Y003498D01*
X011174Y003462D01*
X011098Y003437D01*
X011020Y003425D01*
X010980Y003425D01*
X010980Y003930D01*
X010980Y003930D01*
X010980Y004435D01*
X010986Y004435D01*
X010972Y004469D01*
X010972Y004591D01*
X011019Y004705D01*
X011105Y004791D01*
X011219Y004838D01*
X011341Y004838D01*
X011455Y004791D01*
X011541Y004705D01*
X011588Y004591D01*
X011588Y004469D01*
X011582Y004454D01*
X011705Y004250D01*
X012646Y004250D01*
X012645Y004251D01*
X012598Y004315D01*
X012562Y004386D01*
X012537Y004462D01*
X012525Y004540D01*
X012525Y004580D01*
X013030Y004580D01*
X013030Y004580D01*
X012525Y004580D01*
X012525Y004620D01*
X012537Y004698D01*
X012562Y004774D01*
X012598Y004845D01*
X012609Y004860D01*
X010239Y004860D01*
X010110Y004989D01*
X009750Y005349D01*
X009750Y004900D01*
X009821Y004900D01*
X009950Y004771D01*
X010200Y004521D01*
X010200Y004342D01*
X010243Y004324D01*
X010374Y004193D01*
X010445Y004022D01*
X010445Y003838D01*
X010374Y003667D01*
X010243Y003536D01*
X010072Y003465D01*
X009888Y003465D01*
X009717Y003536D01*
X009586Y003667D01*
X009515Y003838D01*
X009515Y004022D01*
X009586Y004193D01*
X009717Y004324D01*
X009758Y004341D01*
X009639Y004460D01*
X009221Y004460D01*
X009362Y004319D01*
X009440Y004131D01*
X009440Y003929D01*
X009362Y003741D01*
X009219Y003598D01*
X009031Y003520D01*
X008829Y003520D01*
X008641Y003598D01*
X008498Y003741D01*
X008430Y003904D01*
X008362Y003741D01*
X008219Y003598D01*
X008031Y003520D01*
X007829Y003520D01*
X007641Y003598D01*
X007498Y003741D01*
X007430Y003904D01*
X007362Y003741D01*
X007219Y003598D01*
X007031Y003520D01*
X006829Y003520D01*
X006641Y003598D01*
X006498Y003741D01*
X006430Y003904D01*
X006362Y003741D01*
X006219Y003598D01*
X006031Y003520D01*
X005829Y003520D01*
X005641Y003598D01*
X005498Y003741D01*
X005430Y003904D01*
X005362Y003741D01*
X005219Y003598D01*
X005031Y003520D01*
X004829Y003520D01*
X004641Y003598D01*
X004498Y003741D01*
X004451Y003854D01*
X004440Y003819D01*
X004400Y003742D01*
X004350Y003672D01*
X004288Y003610D01*
X004218Y003560D01*
X004141Y003520D01*
X004059Y003494D01*
X003973Y003480D01*
X003950Y003480D01*
X003950Y004010D01*
X003910Y004010D01*
X003910Y003480D01*
X003887Y003480D01*
X003801Y003494D01*
X003719Y003520D01*
X003642Y003560D01*
X003572Y003610D01*
X003510Y003672D01*
X003460Y003742D01*
X003420Y003819D01*
X003394Y003901D01*
X003380Y003987D01*
X003380Y004010D01*
X003910Y004010D01*
X003910Y004050D01*
X003910Y004580D01*
X003887Y004580D01*
X003801Y004566D01*
X003719Y004540D01*
X003642Y004500D01*
X003572Y004450D01*
X003510Y004388D01*
X003460Y004318D01*
X003420Y004241D01*
X003394Y004159D01*
X003380Y004073D01*
X003380Y004050D01*
X003910Y004050D01*
X003950Y004050D01*
X003950Y004580D01*
X003973Y004580D01*
X004059Y004566D01*
X004141Y004540D01*
X004218Y004500D01*
X004288Y004450D01*
X004350Y004388D01*
X004400Y004318D01*
X004440Y004241D01*
X004451Y004206D01*
X004498Y004319D01*
X004641Y004462D01*
X004829Y004540D01*
X005031Y004540D01*
X005219Y004462D01*
X005362Y004319D01*
X005430Y004156D01*
X005498Y004319D01*
X005641Y004462D01*
X005829Y004540D01*
X005960Y004540D01*
X005960Y004771D01*
X006089Y004900D01*
X009310Y004900D01*
X009310Y010621D01*
X009372Y010683D01*
X009372Y010741D01*
X009419Y010855D01*
X009505Y010941D01*
X009619Y010988D01*
X009741Y010988D01*
X009855Y010941D01*
X009896Y010900D01*
X010074Y010900D01*
X010019Y010955D01*
X009972Y011069D01*
X009972Y011191D01*
X010019Y011305D01*
X010030Y011317D01*
X010019Y011320D01*
X009942Y011360D01*
X009872Y011410D01*
X009810Y011472D01*
X009760Y011542D01*
X009720Y011619D01*
X009694Y011701D01*
X009680Y011787D01*
X009680Y011810D01*
X010210Y011810D01*
X010210Y011850D01*
X009680Y011850D01*
X009680Y011873D01*
X009694Y011959D01*
X009720Y012041D01*
X009760Y012118D01*
X009810Y012188D01*
X009832Y012210D01*
X008339Y012210D01*
X008210Y012339D01*
X007960Y012589D01*
X007960Y012960D01*
X007889Y012960D01*
X007852Y012871D01*
X007709Y012728D01*
X007521Y012650D01*
X007400Y012650D01*
X007400Y012089D01*
X007271Y011960D01*
X006921Y011610D01*
X003691Y011610D01*
X003662Y011541D01*
X003519Y011398D01*
X003331Y011320D01*
X003129Y011320D01*
X002941Y011398D01*
X002798Y011541D01*
X002720Y011729D01*
X002720Y011931D01*
X002798Y012119D01*
X002941Y012262D01*
X003129Y012340D01*
X003331Y012340D01*
X003519Y012262D01*
X003662Y012119D01*
X003691Y012050D01*
X006739Y012050D01*
X006960Y012271D01*
X006960Y012938D01*
X006910Y013059D01*
X006910Y013261D01*
X006988Y013449D01*
X007131Y013592D01*
X007319Y013670D01*
X007521Y013670D01*
X007709Y013592D01*
X007852Y013449D01*
X007873Y013400D01*
X008271Y013400D01*
X008400Y013271D01*
X008400Y012771D01*
X008521Y012650D01*
X012759Y012650D01*
X012960Y012793D01*
X012960Y014149D01*
X012871Y014060D01*
X009221Y014060D01*
X009150Y013989D01*
X009150Y013690D01*
X009358Y013690D01*
X009440Y013608D01*
X009440Y013330D01*
X009498Y013469D01*
X009641Y013612D01*
X009829Y013690D01*
X010031Y013690D01*
X010219Y013612D01*
X010362Y013469D01*
X010430Y013306D01*
X010498Y013469D01*
X010641Y013612D01*
X010829Y013690D01*
X011031Y013690D01*
X011219Y013612D01*
X011362Y013469D01*
X011430Y013306D01*
X011498Y013469D01*
X011641Y013612D01*
X011829Y013690D01*
X012031Y013690D01*
X012219Y013612D01*
X012362Y013469D01*
X012440Y013281D01*
X012440Y013079D01*
X012362Y012891D01*
X012219Y012748D01*
X012031Y012670D01*
X011829Y012670D01*
X011641Y012748D01*
X011498Y012891D01*
X011430Y013054D01*
X011362Y012891D01*
X011219Y012748D01*
X011031Y012670D01*
X010829Y012670D01*
X010641Y012748D01*
X010498Y012891D01*
X010430Y013054D01*
X010362Y012891D01*
X010219Y012748D01*
X010031Y012670D01*
X009829Y012670D01*
X009641Y012748D01*
X009498Y012891D01*
X009440Y013030D01*
X009440Y012752D01*
X009358Y012670D01*
X008502Y012670D01*
X008420Y012752D01*
X008420Y013608D01*
X008502Y013690D01*
X008710Y013690D01*
X008710Y014171D01*
X008910Y014371D01*
X008995Y014456D01*
X008913Y014539D01*
X008904Y014560D01*
X008895Y014539D01*
X008734Y014378D01*
X008525Y014291D01*
X008298Y014291D01*
X008089Y014378D01*
X007928Y014539D01*
X007841Y014748D01*
X007841Y014804D01*
X006907Y015086D01*
X006819Y014998D01*
X006631Y014920D01*
X006429Y014920D01*
X006241Y014998D01*
X006098Y015141D01*
X006051Y015254D01*
X006040Y015219D01*
X006000Y015142D01*
X005950Y015072D01*
X005888Y015010D01*
X005818Y014960D01*
X005741Y014920D01*
X005659Y014894D01*
X005573Y014880D01*
X005550Y014880D01*
X005550Y015410D01*
X005510Y015410D01*
X005510Y014880D01*
X005487Y014880D01*
X005401Y014894D01*
X005319Y014920D01*
X005242Y014960D01*
X005172Y015010D01*
X005110Y015072D01*
X005060Y015142D01*
X005020Y015219D01*
X004994Y015301D01*
X004980Y015387D01*
X004980Y015410D01*
X005510Y015410D01*
X005510Y015450D01*
X005510Y015980D01*
X005487Y015980D01*
X005401Y015966D01*
X005319Y015940D01*
X005242Y015900D01*
X005172Y015850D01*
X005110Y015788D01*
X005060Y015718D01*
X005020Y015641D01*
X004994Y015559D01*
X004980Y015473D01*
X004980Y015450D01*
X005510Y015450D01*
X005550Y015450D01*
X005550Y015980D01*
X005573Y015980D01*
X005659Y015966D01*
X005741Y015940D01*
X005815Y015902D01*
X005815Y015909D01*
X005727Y016506D01*
X005689Y016506D01*
X005607Y016588D01*
X005607Y017223D01*
X005572Y017223D01*
X005572Y016588D01*
X005490Y016506D01*
X005098Y016506D01*
X005016Y016588D01*
X005016Y016918D01*
X004998Y016899D01*
X004488Y016899D01*
X004406Y016981D01*
X004406Y017412D01*
X004488Y017494D01*
X004998Y017494D01*
X005080Y017412D01*
X005080Y017358D01*
X005098Y017376D01*
X005267Y017376D01*
X005244Y017399D01*
X005182Y017549D01*
X005182Y017711D01*
X005244Y017861D01*
X005359Y017975D01*
X005508Y018037D01*
X005670Y018037D01*
X005820Y017975D01*
X005935Y017861D01*
X005997Y017711D01*
X005997Y017549D01*
X005935Y017399D01*
X005912Y017376D01*
X006081Y017376D01*
X006163Y017294D01*
X006163Y016588D01*
X006160Y016585D01*
X006242Y016029D01*
X006360Y015911D01*
X006429Y015940D01*
X006631Y015940D01*
X006819Y015862D01*
X006962Y015719D01*
X007040Y015531D01*
X007040Y015506D01*
X007969Y015225D01*
X008089Y015345D01*
X008298Y015431D01*
X008525Y015431D01*
X008734Y015345D01*
X008895Y015184D01*
X008904Y015163D01*
X008913Y015184D01*
X009073Y015345D01*
X009282Y015431D01*
X009509Y015431D01*
X009719Y015345D01*
X009879Y015184D01*
X009944Y015027D01*
X009985Y015126D01*
X010116Y015257D01*
X010287Y015328D01*
X010473Y015328D01*
X010644Y015257D01*
X010775Y015126D01*
X010816Y015027D01*
X010881Y015184D01*
X011041Y015345D01*
X011251Y015431D01*
X011478Y015431D01*
X011687Y015345D01*
X011847Y015184D01*
X011856Y015163D01*
X011865Y015184D01*
X012026Y015345D01*
X012235Y015431D01*
X012462Y015431D01*
X012671Y015345D01*
X012832Y015184D01*
X012919Y014975D01*
X012919Y014748D01*
X012905Y014717D01*
X013210Y015021D01*
X013339Y015150D01*
X013583Y015150D01*
X013518Y015215D01*
X013460Y015354D01*
X013460Y015506D01*
X013518Y015645D01*
X013625Y015752D01*
X013764Y015810D01*
X014396Y015810D01*
X014427Y015797D01*
X014419Y015805D01*
X014372Y015919D01*
X014372Y016041D01*
X014375Y016050D01*
X013914Y016050D01*
X013271Y015610D01*
X013221Y015560D01*
X013198Y015560D01*
X013179Y015547D01*
X013110Y015560D01*
X010174Y015560D01*
X010116Y015502D01*
X009995Y015452D01*
X009865Y015452D01*
X009744Y015502D01*
X009652Y015594D01*
X009602Y015715D01*
X009602Y015845D01*
X009652Y015966D01*
X009744Y016058D01*
X009865Y016108D01*
X009995Y016108D01*
X010116Y016058D01*
X010174Y016000D01*
X013062Y016000D01*
X013486Y016290D01*
X013460Y016354D01*
X013460Y016506D01*
X013518Y016645D01*
X013625Y016752D01*
X013764Y016810D01*
X014396Y016810D01*
X014535Y016752D01*
X014642Y016645D01*
X014660Y016602D01*
X014660Y017021D01*
X014789Y017150D01*
X015160Y017521D01*
X015160Y017971D01*
X015249Y018060D01*
X012751Y018060D01*
X012815Y017907D01*
X012815Y017722D01*
X012744Y017550D01*
X012613Y017419D01*
X012441Y017348D01*
X012256Y017348D01*
X012084Y017419D01*
X011953Y017550D01*
X011882Y017722D01*
X011882Y017907D01*
X011946Y018060D01*
X008814Y018060D01*
X008878Y017907D01*
X008878Y017722D01*
X008807Y017550D01*
X008676Y017419D01*
X008504Y017348D01*
X008319Y017348D01*
X008147Y017419D01*
X008016Y017550D01*
X007945Y017722D01*
X007945Y017839D01*
X007872Y017766D01*
X007362Y017766D01*
X007280Y017848D01*
X007280Y018060D01*
X005080Y018060D01*
X005080Y017848D01*
X004998Y017766D01*
X004488Y017766D01*
X004406Y017848D01*
X004406Y018060D01*
X003908Y018060D01*
X003974Y017993D01*
X004045Y017822D01*
X004045Y017638D01*
X003974Y017467D01*
X003843Y017336D01*
X003672Y017265D01*
X003488Y017265D01*
X003317Y017336D01*
X003186Y017467D01*
X003115Y017638D01*
X003115Y017810D01*
X002920Y017810D01*
X002950Y017768D01*
X002990Y017691D01*
X003016Y017609D01*
X003030Y017523D01*
X003030Y017480D01*
X002480Y017480D01*
X002480Y017480D01*
X003030Y017480D01*
X003030Y017437D01*
X003016Y017351D01*
X002990Y017269D01*
X002950Y017192D01*
X002900Y017122D01*
X002838Y017060D01*
X002768Y017010D01*
X002691Y016970D01*
X002609Y016944D01*
X002523Y016930D01*
X002480Y016930D01*
X002480Y017480D01*
X002480Y017480D01*
X002480Y016930D01*
X002449Y016930D01*
X002490Y016831D01*
X002490Y016731D01*
X003121Y016100D01*
X003121Y016100D01*
X003228Y015993D01*
X003251Y016015D01*
X003315Y016062D01*
X003386Y016098D01*
X003462Y016123D01*
X003540Y016135D01*
X003580Y016135D01*
X003580Y015630D01*
X003580Y015630D01*
X004085Y015630D01*
X004085Y015670D01*
X004073Y015748D01*
X004048Y015824D01*
X004012Y015895D01*
X003965Y015959D01*
X003909Y016015D01*
X003845Y016062D01*
X003774Y016098D01*
X003698Y016123D01*
X003620Y016135D01*
X003580Y016135D01*
X003580Y015630D01*
X003580Y015630D01*
X004085Y015630D01*
X004085Y015590D01*
X004073Y015512D01*
X004048Y015436D01*
X004012Y015365D01*
X003965Y015301D01*
X003909Y015245D01*
X003845Y015198D01*
X003774Y015162D01*
X003698Y015137D01*
X003620Y015125D01*
X003580Y015125D01*
X003580Y015630D01*
X003580Y015630D01*
X003580Y015125D01*
X003540Y015125D01*
X003462Y015137D01*
X003386Y015162D01*
X003331Y015190D01*
X003444Y015077D01*
X003488Y015095D01*
X003672Y015095D01*
X003843Y015024D01*
X003974Y014893D01*
X004045Y014722D01*
X004045Y014538D01*
X003974Y014367D01*
X003843Y014236D01*
X003672Y014165D01*
X003488Y014165D01*
X003317Y014236D01*
X003186Y014367D01*
X003115Y014538D01*
X003115Y014722D01*
X003133Y014766D01*
X002952Y014947D01*
X002948Y014936D01*
X002912Y014865D01*
X002865Y014801D01*
X002809Y014745D01*
X002745Y014698D01*
X002674Y014662D01*
X002598Y014637D01*
X002520Y014625D01*
X002480Y014625D01*
X002480Y015130D01*
X002480Y015130D01*
X002480Y015635D01*
X002520Y015635D01*
X002598Y015623D01*
X002674Y015598D01*
X002745Y015562D01*
X002809Y015515D01*
X002810Y015514D01*
X002810Y015789D01*
X002285Y016314D01*
X002269Y016298D01*
X002081Y016220D01*
X001879Y016220D01*
X001691Y016298D01*
X001548Y016441D01*
X001470Y016629D01*
X001470Y016831D01*
X001489Y016878D01*
X001250Y016639D01*
X001250Y015671D01*
X001326Y015595D01*
X001863Y015595D01*
X001945Y015513D01*
X001945Y014747D01*
X001863Y014665D01*
X001097Y014665D01*
X001015Y014747D01*
X001015Y015284D01*
X001000Y015299D01*
X001000Y012626D01*
X001084Y012828D01*
X001332Y013076D01*
X001655Y013210D01*
X002005Y013210D01*
X002328Y013076D01*
X002576Y012828D01*
X002710Y012505D01*
X002710Y012155D01*
X002576Y011832D01*
X002328Y011584D01*
X002005Y011450D01*
X001655Y011450D01*
X001332Y011584D01*
X001084Y011832D01*
X001000Y012034D01*
X001000Y003926D01*
X001084Y004128D01*
X001332Y004376D01*
X001655Y004510D01*
X002005Y004510D01*
X002328Y004376D01*
X002576Y004128D01*
X002710Y003805D01*
X002710Y003455D01*
X002576Y003132D01*
X002328Y002884D01*
X002005Y002750D01*
X001655Y002750D01*
X001332Y002884D01*
X001084Y003132D01*
X001000Y003334D01*
X001000Y003216D02*
X001049Y003216D01*
X001000Y003058D02*
X001158Y003058D01*
X001000Y002899D02*
X001316Y002899D01*
X001000Y002741D02*
X013460Y002741D01*
X013460Y002899D02*
X002344Y002899D01*
X002502Y003058D02*
X013460Y003058D01*
X013460Y003216D02*
X002611Y003216D01*
X002677Y003375D02*
X013350Y003375D01*
X013168Y003533D02*
X011293Y003533D01*
X011425Y003692D02*
X012985Y003692D01*
X012930Y004030D02*
X011580Y004030D01*
X011280Y004530D01*
X010993Y004643D02*
X010079Y004643D01*
X010200Y004484D02*
X010972Y004484D01*
X010980Y004435D02*
X010940Y004435D01*
X010862Y004423D01*
X010786Y004398D01*
X010715Y004362D01*
X010651Y004315D01*
X010595Y004259D01*
X010548Y004195D01*
X010512Y004124D01*
X010487Y004048D01*
X010475Y003970D01*
X010475Y003930D01*
X010980Y003930D01*
X010980Y003930D01*
X010980Y003930D01*
X010980Y004435D01*
X010980Y004326D02*
X010980Y004326D01*
X010980Y004167D02*
X010980Y004167D01*
X010980Y004009D02*
X010980Y004009D01*
X010980Y003930D02*
X010475Y003930D01*
X010475Y003890D01*
X010487Y003812D01*
X010512Y003736D01*
X010548Y003665D01*
X010595Y003601D01*
X010651Y003545D01*
X010715Y003498D01*
X010786Y003462D01*
X010862Y003437D01*
X010940Y003425D01*
X010980Y003425D01*
X010980Y003930D01*
X010980Y003850D02*
X010980Y003850D01*
X010980Y003692D02*
X010980Y003692D01*
X010980Y003533D02*
X010980Y003533D01*
X010667Y003533D02*
X010237Y003533D01*
X010385Y003692D02*
X010535Y003692D01*
X010481Y003850D02*
X010445Y003850D01*
X010445Y004009D02*
X010481Y004009D01*
X010534Y004167D02*
X010385Y004167D01*
X010240Y004326D02*
X010665Y004326D01*
X011128Y004801D02*
X009920Y004801D01*
X009730Y004680D02*
X009530Y004680D01*
X009530Y010530D01*
X009680Y010680D01*
X011480Y010680D01*
X012430Y011630D01*
X013880Y011630D01*
X014080Y011430D01*
X015930Y011430D01*
X016180Y011180D01*
X016330Y011330D01*
X016330Y013480D01*
X016030Y013780D01*
X015680Y013780D01*
X016330Y013980D02*
X015730Y014580D01*
X015330Y014580D01*
X014980Y014930D01*
X013430Y014930D01*
X012780Y014280D01*
X009130Y014280D01*
X008930Y014080D01*
X008930Y013180D01*
X008420Y013202D02*
X008400Y013202D01*
X008400Y013043D02*
X008420Y013043D01*
X008420Y012885D02*
X008400Y012885D01*
X008445Y012726D02*
X008446Y012726D01*
X008180Y012680D02*
X008430Y012430D01*
X012830Y012430D01*
X013180Y012680D01*
X013180Y014180D01*
X013430Y014430D01*
X014080Y014430D01*
X014577Y015150D02*
X014642Y015215D01*
X014700Y015354D01*
X014700Y015506D01*
X014642Y015645D01*
X014614Y015674D01*
X014619Y015672D01*
X014741Y015672D01*
X014793Y015693D01*
X014772Y015641D01*
X014772Y015519D01*
X014819Y015405D01*
X014905Y015319D01*
X015019Y015272D01*
X015141Y015272D01*
X015255Y015319D01*
X015341Y015405D01*
X015388Y015519D01*
X015388Y015641D01*
X015381Y015660D01*
X016533Y015660D01*
X016518Y015645D01*
X016460Y015506D01*
X016460Y015354D01*
X016518Y015215D01*
X016625Y015108D01*
X016764Y015050D01*
X017396Y015050D01*
X017535Y015108D01*
X017642Y015215D01*
X017700Y015354D01*
X017700Y015506D01*
X017642Y015645D01*
X017627Y015660D01*
X017721Y015660D01*
X017850Y015789D01*
X017865Y015804D01*
X017865Y015697D01*
X017947Y015615D01*
X018713Y015615D01*
X018795Y015697D01*
X018795Y016463D01*
X018713Y016545D01*
X017947Y016545D01*
X017865Y016463D01*
X017865Y016300D01*
X017739Y016300D01*
X017539Y016100D01*
X017516Y016100D01*
X017535Y016108D01*
X017642Y016215D01*
X017700Y016354D01*
X017700Y016506D01*
X017642Y016645D01*
X017535Y016752D01*
X017396Y016810D01*
X016764Y016810D01*
X016625Y016752D01*
X016518Y016645D01*
X016460Y016506D01*
X016460Y016354D01*
X016518Y016215D01*
X016625Y016108D01*
X016644Y016100D01*
X015148Y016100D01*
X015100Y016108D01*
X015100Y016839D01*
X015600Y017339D01*
X015600Y017817D01*
X015663Y017880D01*
X017930Y017880D01*
X017865Y017722D01*
X017865Y017538D01*
X017936Y017367D01*
X018067Y017236D01*
X018238Y017165D01*
X018422Y017165D01*
X018593Y017236D01*
X018724Y017367D01*
X018795Y017538D01*
X018795Y017722D01*
X018730Y017880D01*
X018930Y017880D01*
X018865Y017722D01*
X018865Y017538D01*
X018936Y017367D01*
X019067Y017236D01*
X019238Y017165D01*
X019422Y017165D01*
X019593Y017236D01*
X019724Y017367D01*
X019760Y017453D01*
X019760Y016347D01*
X019715Y016409D01*
X019659Y016465D01*
X019595Y016512D01*
X019524Y016548D01*
X019448Y016573D01*
X019370Y016585D01*
X019330Y016585D01*
X019330Y016080D01*
X018507Y015257D01*
X018507Y014430D01*
X018507Y014860D01*
X018358Y014860D01*
X018313Y014848D01*
X018272Y014824D01*
X018268Y014820D01*
X017970Y014820D01*
X017888Y014738D01*
X017888Y014448D01*
X017250Y013810D01*
X016764Y013810D01*
X016625Y013752D01*
X016518Y013645D01*
X016506Y013616D01*
X016433Y013689D01*
X016505Y013719D01*
X016591Y013805D01*
X016638Y013919D01*
X016638Y014041D01*
X016601Y014132D01*
X016625Y014108D01*
X016764Y014050D01*
X017396Y014050D01*
X017535Y014108D01*
X017642Y014215D01*
X017700Y014354D01*
X017700Y014506D01*
X017642Y014645D01*
X017535Y014752D01*
X017396Y014810D01*
X016764Y014810D01*
X016625Y014752D01*
X016518Y014645D01*
X016460Y014506D01*
X016460Y014354D01*
X016508Y014238D01*
X016505Y014241D01*
X016391Y014288D01*
X016333Y014288D01*
X015821Y014800D01*
X015421Y014800D01*
X015071Y015150D01*
X014577Y015150D01*
X014662Y015262D02*
X016498Y015262D01*
X016460Y015421D02*
X015348Y015421D01*
X015388Y015579D02*
X016490Y015579D01*
X016635Y015104D02*
X015118Y015104D01*
X015276Y014945D02*
X019760Y014945D01*
X019740Y014820D02*
X019442Y014820D01*
X019438Y014824D01*
X019397Y014848D01*
X019352Y014860D01*
X019203Y014860D01*
X019203Y014430D01*
X019203Y014000D01*
X019217Y014000D01*
X019097Y013880D01*
X018097Y013880D01*
X017700Y013483D01*
X017700Y013506D01*
X017645Y013639D01*
X018046Y014040D01*
X018268Y014040D01*
X018272Y014036D01*
X018313Y014012D01*
X018358Y014000D01*
X018507Y014000D01*
X018507Y014430D01*
X018507Y014430D01*
X018507Y014430D01*
X019203Y014430D01*
X019203Y014430D01*
X019203Y014430D01*
X019203Y014000D01*
X019054Y014000D01*
X019008Y014012D01*
X018967Y014036D01*
X018934Y014069D01*
X018910Y014111D01*
X018898Y014156D01*
X018898Y014430D01*
X019203Y014430D01*
X019203Y014860D01*
X019054Y014860D01*
X019008Y014848D01*
X018967Y014824D01*
X018934Y014791D01*
X018910Y014749D01*
X018898Y014704D01*
X018898Y014430D01*
X019203Y014430D01*
X019203Y014430D01*
X019203Y014470D02*
X019203Y014470D01*
X019203Y014628D02*
X019203Y014628D01*
X019203Y014787D02*
X019203Y014787D01*
X018931Y014787D02*
X018779Y014787D01*
X018776Y014791D02*
X018743Y014824D01*
X018702Y014848D01*
X018656Y014860D01*
X018507Y014860D01*
X018507Y014430D01*
X018507Y014000D01*
X018656Y014000D01*
X018702Y014012D01*
X018743Y014036D01*
X018776Y014069D01*
X018800Y014111D01*
X018812Y014156D01*
X018812Y014430D01*
X018507Y014430D01*
X018812Y014430D01*
X018812Y014704D01*
X018800Y014749D01*
X018776Y014791D01*
X018812Y014628D02*
X018898Y014628D01*
X018898Y014470D02*
X018812Y014470D01*
X018812Y014311D02*
X018898Y014311D01*
X018899Y014153D02*
X018811Y014153D01*
X019203Y014153D02*
X019203Y014153D01*
X019203Y014311D02*
X019203Y014311D01*
X019211Y013994D02*
X018000Y013994D01*
X018053Y013836D02*
X017841Y013836D01*
X017894Y013677D02*
X017683Y013677D01*
X017695Y013519D02*
X017736Y013519D01*
X017984Y013202D02*
X018684Y013202D01*
X018705Y013210D02*
X018382Y013076D01*
X018134Y012828D01*
X018000Y012505D01*
X018000Y012155D01*
X018134Y011832D01*
X018382Y011584D01*
X018705Y011450D01*
X019055Y011450D01*
X019378Y011584D01*
X019626Y011832D01*
X019760Y012155D01*
X019760Y012505D01*
X019626Y012828D01*
X019378Y013076D01*
X019055Y013210D01*
X018705Y013210D01*
X019076Y013202D02*
X019760Y013202D01*
X019760Y013360D02*
X018143Y013360D01*
X018263Y013480D02*
X019263Y013480D01*
X019380Y013597D01*
X019620Y013837D01*
X019648Y013837D01*
X019760Y013949D01*
X019760Y011007D01*
X019724Y011093D01*
X019593Y011224D01*
X019422Y011295D01*
X019238Y011295D01*
X019067Y011224D01*
X018936Y011093D01*
X018865Y010922D01*
X018865Y010738D01*
X018936Y010567D01*
X019067Y010436D01*
X019110Y010418D01*
X019110Y009721D01*
X018966Y009577D01*
X018922Y009595D01*
X018738Y009595D01*
X018567Y009524D01*
X018436Y009393D01*
X018365Y009222D01*
X018365Y009100D01*
X017516Y009100D01*
X017535Y009108D01*
X017642Y009215D01*
X017700Y009354D01*
X017700Y009506D01*
X017642Y009645D01*
X017535Y009752D01*
X017396Y009810D01*
X016861Y009810D01*
X016450Y010221D01*
X016450Y011139D01*
X016498Y011187D01*
X016520Y011156D01*
X016566Y011110D01*
X016620Y011071D01*
X016679Y011041D01*
X016742Y011020D01*
X016807Y011010D01*
X017080Y011010D01*
X017353Y011010D01*
X017418Y011020D01*
X017481Y011041D01*
X017540Y011071D01*
X017594Y011110D01*
X017640Y011156D01*
X017679Y011210D01*
X017709Y011269D01*
X017730Y011332D01*
X017740Y011397D01*
X017740Y011430D01*
X017740Y011463D01*
X017730Y011528D01*
X017709Y011591D01*
X017679Y011650D01*
X017640Y011704D01*
X017594Y011750D01*
X017540Y011789D01*
X017481Y011819D01*
X017418Y011840D01*
X017353Y011850D01*
X017080Y011850D01*
X017080Y011430D01*
X017080Y011430D01*
X017740Y011430D01*
X017080Y011430D01*
X017080Y011430D01*
X017080Y011850D01*
X016807Y011850D01*
X016742Y011840D01*
X016679Y011819D01*
X016620Y011789D01*
X016566Y011750D01*
X016550Y011734D01*
X016550Y012183D01*
X016625Y012108D01*
X016764Y012050D01*
X017396Y012050D01*
X017535Y012108D01*
X017642Y012215D01*
X017700Y012354D01*
X017700Y012506D01*
X017642Y012645D01*
X017535Y012752D01*
X018263Y013480D01*
X018349Y013043D02*
X017826Y013043D01*
X017667Y012885D02*
X018190Y012885D01*
X018092Y012726D02*
X017561Y012726D01*
X017535Y012752D02*
X017535Y012752D01*
X017674Y012568D02*
X018026Y012568D01*
X018000Y012409D02*
X017700Y012409D01*
X017657Y012251D02*
X018000Y012251D01*
X018026Y012092D02*
X017497Y012092D01*
X017560Y011775D02*
X018190Y011775D01*
X018092Y011934D02*
X016550Y011934D01*
X016550Y012092D02*
X016663Y012092D01*
X016600Y011775D02*
X016550Y011775D01*
X017080Y011775D02*
X017080Y011775D01*
X017080Y011617D02*
X017080Y011617D01*
X017080Y011458D02*
X017080Y011458D01*
X017080Y011430D02*
X017080Y011010D01*
X017080Y011430D01*
X017080Y011430D01*
X017080Y011300D02*
X017080Y011300D01*
X017080Y011141D02*
X017080Y011141D01*
X017396Y010810D02*
X016764Y010810D01*
X016625Y010752D01*
X016518Y010645D01*
X016460Y010506D01*
X016460Y010354D01*
X016518Y010215D01*
X016625Y010108D01*
X016764Y010050D01*
X017396Y010050D01*
X017535Y010108D01*
X017642Y010215D01*
X017700Y010354D01*
X017700Y010506D01*
X017642Y010645D01*
X017535Y010752D01*
X017396Y010810D01*
X017622Y010666D02*
X017852Y010666D01*
X017862Y010636D02*
X017898Y010565D01*
X017945Y010501D01*
X018001Y010445D01*
X018065Y010398D01*
X018136Y010362D01*
X018212Y010337D01*
X018290Y010325D01*
X018330Y010325D01*
X018370Y010325D01*
X018448Y010337D01*
X018524Y010362D01*
X018595Y010398D01*
X018659Y010445D01*
X018715Y010501D01*
X018762Y010565D01*
X018798Y010636D01*
X018823Y010712D01*
X018835Y010790D01*
X018835Y010830D01*
X018835Y010870D01*
X018823Y010948D01*
X018798Y011024D01*
X018762Y011095D01*
X018715Y011159D01*
X018659Y011215D01*
X018595Y011262D01*
X018524Y011298D01*
X018448Y011323D01*
X018370Y011335D01*
X018330Y011335D01*
X018330Y010830D01*
X018835Y010830D01*
X018330Y010830D01*
X018330Y010830D01*
X018330Y010830D01*
X018330Y010325D01*
X018330Y010830D01*
X018330Y010830D01*
X018330Y010830D01*
X017825Y010830D01*
X017825Y010870D01*
X017837Y010948D01*
X017862Y011024D01*
X017898Y011095D01*
X017945Y011159D01*
X018001Y011215D01*
X018065Y011262D01*
X018136Y011298D01*
X018212Y011323D01*
X018290Y011335D01*
X018330Y011335D01*
X018330Y010830D01*
X017825Y010830D01*
X017825Y010790D01*
X017837Y010712D01*
X017862Y010636D01*
X017940Y010507D02*
X017699Y010507D01*
X017698Y010349D02*
X018178Y010349D01*
X018330Y010349D02*
X018330Y010349D01*
X018482Y010349D02*
X019110Y010349D01*
X019110Y010190D02*
X017617Y010190D01*
X017573Y009715D02*
X019103Y009715D01*
X019110Y009873D02*
X016798Y009873D01*
X016640Y010032D02*
X019110Y010032D01*
X019550Y010032D02*
X019760Y010032D01*
X019760Y010190D02*
X019550Y010190D01*
X019550Y010349D02*
X019760Y010349D01*
X019760Y010507D02*
X019665Y010507D01*
X019724Y010567D02*
X019760Y010653D01*
X019760Y005507D01*
X019724Y005593D01*
X019593Y005724D01*
X019550Y005742D01*
X019550Y006721D01*
X019277Y006994D01*
X019295Y007038D01*
X019295Y007222D01*
X019224Y007393D01*
X019093Y007524D01*
X018922Y007595D01*
X018738Y007595D01*
X018694Y007577D01*
X018371Y007900D01*
X018271Y007900D01*
X018021Y008150D01*
X017577Y008150D01*
X017642Y008215D01*
X017700Y008354D01*
X017700Y008506D01*
X017642Y008645D01*
X017627Y008660D01*
X018671Y008660D01*
X018694Y008683D01*
X018738Y008665D01*
X018922Y008665D01*
X019093Y008736D01*
X019224Y008867D01*
X019295Y009038D01*
X019295Y009222D01*
X019277Y009266D01*
X019550Y009539D01*
X019550Y010418D01*
X019593Y010436D01*
X019724Y010567D01*
X019330Y010830D02*
X019330Y009630D01*
X018830Y009130D01*
X018580Y008880D01*
X016580Y008880D01*
X016030Y009430D01*
X014080Y009430D01*
X014396Y009810D02*
X013764Y009810D01*
X013625Y009752D01*
X013518Y009645D01*
X013460Y009506D01*
X013460Y009376D01*
X012232Y010106D01*
X012205Y010171D01*
X012329Y010120D01*
X012531Y010120D01*
X012719Y010198D01*
X012862Y010341D01*
X012940Y010529D01*
X012940Y010731D01*
X012862Y010919D01*
X012719Y011062D01*
X012556Y011130D01*
X012719Y011198D01*
X012862Y011341D01*
X012891Y011410D01*
X013460Y011410D01*
X013460Y011354D01*
X013518Y011215D01*
X013625Y011108D01*
X013764Y011050D01*
X014396Y011050D01*
X014535Y011108D01*
X014637Y011210D01*
X015839Y011210D01*
X015960Y011089D01*
X015960Y011089D01*
X016010Y011039D01*
X016010Y010039D01*
X016139Y009910D01*
X016484Y009564D01*
X016460Y009506D01*
X016460Y009354D01*
X016491Y009281D01*
X016121Y009650D01*
X014637Y009650D01*
X014535Y009752D01*
X014396Y009810D01*
X014573Y009715D02*
X016334Y009715D01*
X016215Y009556D02*
X016481Y009556D01*
X016460Y009398D02*
X016374Y009398D01*
X016176Y009873D02*
X012624Y009873D01*
X012891Y009715D02*
X013587Y009715D01*
X013481Y009556D02*
X013158Y009556D01*
X013424Y009398D02*
X013460Y009398D01*
X013096Y009081D02*
X012249Y009081D01*
X012249Y009080D02*
X012249Y009222D01*
X012236Y009268D01*
X012213Y009309D01*
X012179Y009342D01*
X012138Y009366D01*
X012092Y009378D01*
X011832Y009378D01*
X011572Y009378D01*
X011527Y009366D01*
X011486Y009342D01*
X011452Y009309D01*
X011450Y009305D01*
X011450Y009960D01*
X011564Y009960D01*
X011629Y009951D01*
X011669Y009855D01*
X011755Y009769D01*
X011869Y009722D01*
X011991Y009722D01*
X012007Y009728D01*
X013639Y008758D01*
X013625Y008752D01*
X013518Y008645D01*
X013460Y008506D01*
X013460Y008354D01*
X013503Y008250D01*
X012209Y008250D01*
X012209Y008256D01*
X012135Y008330D01*
X012209Y008404D01*
X012209Y008756D01*
X012159Y008806D01*
X012179Y008818D01*
X012213Y008851D01*
X012236Y008892D01*
X012249Y008938D01*
X012249Y009080D01*
X011832Y009080D01*
X011832Y009378D01*
X011832Y009080D01*
X011832Y009080D01*
X012232Y009082D01*
X012580Y009080D01*
X012830Y009239D02*
X012244Y009239D01*
X012249Y009080D02*
X011832Y009080D01*
X011832Y009080D01*
X011832Y009081D02*
X011832Y009081D01*
X011832Y009239D02*
X011832Y009239D01*
X011450Y009398D02*
X012563Y009398D01*
X012297Y009556D02*
X011450Y009556D01*
X011450Y009715D02*
X012030Y009715D01*
X011930Y010030D02*
X013780Y008930D01*
X014830Y008930D01*
X014880Y008030D02*
X011882Y008030D01*
X011832Y008080D01*
X011782Y008030D01*
X011230Y008030D01*
X011030Y007830D01*
X011030Y007380D01*
X010630Y007880D02*
X011230Y008480D01*
X011230Y010180D01*
X011580Y010180D01*
X011780Y010330D01*
X011930Y010430D01*
X012430Y010630D01*
X012902Y010824D02*
X013694Y010824D01*
X013679Y010819D02*
X013620Y010789D01*
X013566Y010750D01*
X013520Y010704D01*
X013481Y010650D01*
X013451Y010591D01*
X013430Y010528D01*
X013420Y010463D01*
X013420Y010430D01*
X014080Y010430D01*
X014080Y010430D01*
X014080Y010850D01*
X014353Y010850D01*
X014418Y010840D01*
X014481Y010819D01*
X014540Y010789D01*
X014594Y010750D01*
X014640Y010704D01*
X014679Y010650D01*
X014709Y010591D01*
X014730Y010528D01*
X014740Y010463D01*
X014740Y010430D01*
X014080Y010430D01*
X014080Y010430D01*
X014080Y010010D01*
X014353Y010010D01*
X014418Y010020D01*
X014481Y010041D01*
X014540Y010071D01*
X014594Y010110D01*
X014640Y010156D01*
X014679Y010210D01*
X014709Y010269D01*
X014730Y010332D01*
X014740Y010397D01*
X014740Y010430D01*
X014080Y010430D01*
X014080Y010430D01*
X014080Y010430D01*
X014080Y010850D01*
X013807Y010850D01*
X013742Y010840D01*
X013679Y010819D01*
X013492Y010666D02*
X012940Y010666D01*
X012931Y010507D02*
X013427Y010507D01*
X013420Y010430D02*
X013420Y010397D01*
X013430Y010332D01*
X013451Y010269D01*
X013481Y010210D01*
X013520Y010156D01*
X013566Y010110D01*
X013620Y010071D01*
X013679Y010041D01*
X013742Y010020D01*
X013807Y010010D01*
X014080Y010010D01*
X014080Y010430D01*
X013420Y010430D01*
X013428Y010349D02*
X012865Y010349D01*
X012700Y010190D02*
X013495Y010190D01*
X013707Y010032D02*
X012358Y010032D01*
X011661Y009873D02*
X011450Y009873D01*
X010480Y010230D02*
X010480Y008530D01*
X010630Y007880D02*
X010630Y005580D01*
X011832Y005580D01*
X013030Y005580D01*
X013580Y005080D02*
X013730Y004930D01*
X014730Y004930D01*
X015080Y005180D02*
X014880Y005380D01*
X015080Y005180D02*
X015080Y004380D01*
X014980Y004280D01*
X015480Y003530D02*
X016330Y004380D01*
X016330Y004730D01*
X016530Y004930D01*
X017580Y004930D01*
X017780Y005130D01*
X017780Y005730D01*
X017080Y006430D01*
X016719Y006069D02*
X015152Y006069D01*
X014980Y005930D02*
X013730Y005930D01*
X012880Y006580D01*
X011832Y006580D01*
X011832Y006080D02*
X012380Y006080D01*
X013289Y006545D02*
X013476Y006545D01*
X013389Y006703D02*
X013576Y006703D01*
X013438Y006862D02*
X018441Y006862D01*
X018372Y007020D02*
X013406Y007020D01*
X013554Y007179D02*
X013215Y007179D01*
X013298Y007337D02*
X013467Y007337D01*
X013330Y007680D02*
X012730Y007080D01*
X012680Y007080D01*
X013030Y006930D01*
X013130Y006880D01*
X012680Y007080D02*
X011832Y007080D01*
X011832Y007580D02*
X012380Y007580D01*
X012177Y008288D02*
X013488Y008288D01*
X013460Y008447D02*
X012209Y008447D01*
X012209Y008605D02*
X013501Y008605D01*
X013630Y008764D02*
X012201Y008764D01*
X012244Y008922D02*
X013363Y008922D01*
X014080Y008430D02*
X015980Y008430D01*
X016480Y007930D01*
X017930Y007930D01*
X018180Y007680D01*
X018280Y007680D01*
X018830Y007130D01*
X019330Y006630D01*
X019330Y005330D01*
X019745Y005118D02*
X019760Y005118D01*
X019760Y004960D02*
X019617Y004960D01*
X019760Y004801D02*
X017762Y004801D01*
X017643Y004643D02*
X019760Y004643D01*
X019760Y004484D02*
X019118Y004484D01*
X019055Y004510D02*
X018705Y004510D01*
X018382Y004376D01*
X018134Y004128D01*
X018000Y003805D01*
X018000Y003455D01*
X018134Y003132D01*
X018382Y002884D01*
X018705Y002750D01*
X019055Y002750D01*
X019378Y002884D01*
X019626Y003132D01*
X019760Y003455D01*
X019760Y003805D01*
X019626Y004128D01*
X019378Y004376D01*
X019055Y004510D01*
X018642Y004484D02*
X017700Y004484D01*
X017688Y004326D02*
X018331Y004326D01*
X018172Y004167D02*
X017594Y004167D01*
X018084Y004009D02*
X016270Y004009D01*
X016428Y004167D02*
X016566Y004167D01*
X016111Y003850D02*
X018019Y003850D01*
X018000Y003692D02*
X015953Y003692D01*
X015794Y003533D02*
X018000Y003533D01*
X018033Y003375D02*
X016813Y003375D01*
X016972Y003216D02*
X018099Y003216D01*
X018208Y003058D02*
X017030Y003058D01*
X017030Y002899D02*
X018366Y002899D01*
X019394Y002899D02*
X019760Y002899D01*
X019760Y002741D02*
X017030Y002741D01*
X016910Y002582D02*
X019760Y002582D01*
X019760Y002424D02*
X016751Y002424D01*
X016866Y002265D02*
X019760Y002265D01*
X019760Y002107D02*
X016990Y002107D01*
X016990Y001948D02*
X019760Y001948D01*
X019760Y001790D02*
X016990Y001790D01*
X016902Y001631D02*
X019760Y001631D01*
X019760Y001473D02*
X016744Y001473D01*
X016216Y001473D02*
X015744Y001473D01*
X015902Y001631D02*
X016058Y001631D01*
X015480Y001930D02*
X015430Y001930D01*
X014980Y002380D01*
X014480Y001930D02*
X013930Y001930D01*
X013680Y002180D01*
X013680Y003380D01*
X012930Y004030D01*
X012593Y004326D02*
X011659Y004326D01*
X011588Y004484D02*
X012534Y004484D01*
X012529Y004643D02*
X011567Y004643D01*
X011432Y004801D02*
X012576Y004801D01*
X013580Y005080D02*
X010330Y005080D01*
X009930Y005480D01*
X009930Y010280D01*
X009310Y010349D02*
X007868Y010349D01*
X007852Y010311D02*
X007930Y010499D01*
X007930Y010701D01*
X007852Y010889D01*
X007709Y011032D01*
X007521Y011110D01*
X007319Y011110D01*
X007131Y011032D01*
X006988Y010889D01*
X006910Y010701D01*
X006910Y010499D01*
X006988Y010311D01*
X007131Y010168D01*
X007319Y010090D01*
X007521Y010090D01*
X007709Y010168D01*
X007852Y010311D01*
X007731Y010190D02*
X009310Y010190D01*
X009310Y010032D02*
X001000Y010032D01*
X001000Y010190D02*
X005329Y010190D01*
X005351Y010168D02*
X005208Y010311D01*
X005130Y010499D01*
X005130Y010701D01*
X005208Y010889D01*
X005351Y011032D01*
X005539Y011110D01*
X005741Y011110D01*
X005929Y011032D01*
X006072Y010889D01*
X006150Y010701D01*
X006150Y010499D01*
X006072Y010311D01*
X005929Y010168D01*
X005741Y010090D01*
X005539Y010090D01*
X005351Y010168D01*
X005192Y010349D02*
X001000Y010349D01*
X001000Y010507D02*
X005130Y010507D01*
X005130Y010666D02*
X001000Y010666D01*
X001000Y010824D02*
X005181Y010824D01*
X005301Y010983D02*
X001000Y010983D01*
X001000Y011141D02*
X009972Y011141D01*
X010007Y010983D02*
X009756Y010983D01*
X009604Y010983D02*
X007759Y010983D01*
X007879Y010824D02*
X009406Y010824D01*
X009354Y010666D02*
X007930Y010666D01*
X007930Y010507D02*
X009310Y010507D01*
X009310Y009873D02*
X001000Y009873D01*
X001000Y009715D02*
X009310Y009715D01*
X009310Y009556D02*
X001000Y009556D01*
X001000Y009398D02*
X009310Y009398D01*
X009310Y009239D02*
X001000Y009239D01*
X001000Y009081D02*
X009310Y009081D01*
X009310Y008922D02*
X001000Y008922D01*
X001000Y008764D02*
X009310Y008764D01*
X009310Y008605D02*
X001000Y008605D01*
X001000Y008447D02*
X009310Y008447D01*
X009310Y008288D02*
X001000Y008288D01*
X001000Y008130D02*
X009310Y008130D01*
X009310Y007971D02*
X001000Y007971D01*
X001000Y007813D02*
X009310Y007813D01*
X009310Y007654D02*
X001000Y007654D01*
X001000Y007496D02*
X009310Y007496D01*
X009310Y007337D02*
X001000Y007337D01*
X001000Y007179D02*
X009310Y007179D01*
X009310Y007020D02*
X001000Y007020D01*
X001000Y006862D02*
X009310Y006862D01*
X009310Y006703D02*
X001000Y006703D01*
X001000Y006545D02*
X009310Y006545D01*
X009310Y006386D02*
X001000Y006386D01*
X001000Y006228D02*
X009310Y006228D01*
X009310Y006069D02*
X001000Y006069D01*
X001000Y005911D02*
X009310Y005911D01*
X009310Y005752D02*
X001000Y005752D01*
X001000Y005594D02*
X009310Y005594D01*
X009310Y005435D02*
X001000Y005435D01*
X001000Y005277D02*
X009310Y005277D01*
X009310Y005118D02*
X001000Y005118D01*
X001000Y004960D02*
X009310Y004960D01*
X009530Y004680D02*
X006180Y004680D01*
X006180Y004280D01*
X005930Y004030D01*
X005453Y003850D02*
X005407Y003850D01*
X005313Y003692D02*
X005547Y003692D01*
X005797Y003533D02*
X005063Y003533D01*
X004797Y003533D02*
X004166Y003533D01*
X003950Y003533D02*
X003910Y003533D01*
X003910Y003692D02*
X003950Y003692D01*
X003950Y003850D02*
X003910Y003850D01*
X003910Y004009D02*
X003950Y004009D01*
X003950Y004167D02*
X003910Y004167D01*
X003910Y004326D02*
X003950Y004326D01*
X003950Y004484D02*
X003910Y004484D01*
X004241Y004484D02*
X004693Y004484D01*
X004504Y004326D02*
X004395Y004326D01*
X004450Y003850D02*
X004453Y003850D01*
X004364Y003692D02*
X004547Y003692D01*
X003694Y003533D02*
X002710Y003533D01*
X002710Y003692D02*
X003496Y003692D01*
X003410Y003850D02*
X002691Y003850D01*
X002626Y004009D02*
X003380Y004009D01*
X003396Y004167D02*
X002538Y004167D01*
X002379Y004326D02*
X003465Y004326D01*
X003619Y004484D02*
X002068Y004484D01*
X001592Y004484D02*
X001000Y004484D01*
X001000Y004326D02*
X001281Y004326D01*
X001122Y004167D02*
X001000Y004167D01*
X001000Y004009D02*
X001034Y004009D01*
X001000Y004643D02*
X005960Y004643D01*
X005990Y004801D02*
X001000Y004801D01*
X001000Y002582D02*
X013460Y002582D01*
X013460Y002424D02*
X001000Y002424D01*
X001000Y002265D02*
X013460Y002265D01*
X013460Y002107D02*
X001000Y002107D01*
X001000Y001948D02*
X013601Y001948D01*
X013759Y001790D02*
X001000Y001790D01*
X001000Y001631D02*
X014058Y001631D01*
X014216Y001473D02*
X001000Y001473D01*
X001000Y001314D02*
X019760Y001314D01*
X019760Y001156D02*
X001000Y001156D01*
X005167Y004484D02*
X005693Y004484D01*
X005504Y004326D02*
X005356Y004326D01*
X005425Y004167D02*
X005435Y004167D01*
X006063Y003533D02*
X006797Y003533D01*
X006547Y003692D02*
X006313Y003692D01*
X006407Y003850D02*
X006453Y003850D01*
X007063Y003533D02*
X007797Y003533D01*
X008063Y003533D02*
X008797Y003533D01*
X009063Y003533D02*
X009723Y003533D01*
X009575Y003692D02*
X009313Y003692D01*
X009407Y003850D02*
X009515Y003850D01*
X009515Y004009D02*
X009440Y004009D01*
X009425Y004167D02*
X009575Y004167D01*
X009720Y004326D02*
X009356Y004326D01*
X009730Y004680D02*
X009980Y004430D01*
X009980Y003930D01*
X010139Y004960D02*
X009750Y004960D01*
X009750Y005118D02*
X009981Y005118D01*
X009822Y005277D02*
X009750Y005277D01*
X008453Y003850D02*
X008407Y003850D01*
X008313Y003692D02*
X008547Y003692D01*
X007547Y003692D02*
X007313Y003692D01*
X007407Y003850D02*
X007453Y003850D01*
X014080Y010032D02*
X014080Y010032D01*
X014080Y010190D02*
X014080Y010190D01*
X014080Y010349D02*
X014080Y010349D01*
X014080Y010507D02*
X014080Y010507D01*
X014080Y010666D02*
X014080Y010666D01*
X014080Y010824D02*
X014080Y010824D01*
X014466Y010824D02*
X016010Y010824D01*
X016010Y010666D02*
X014668Y010666D01*
X014733Y010507D02*
X016010Y010507D01*
X016010Y010349D02*
X014732Y010349D01*
X014665Y010190D02*
X016010Y010190D01*
X016017Y010032D02*
X014453Y010032D01*
X014568Y011141D02*
X015908Y011141D01*
X016010Y010983D02*
X012799Y010983D01*
X012582Y011141D02*
X013592Y011141D01*
X013483Y011300D02*
X012821Y011300D01*
X013030Y011980D02*
X012880Y012130D01*
X013030Y011980D02*
X014880Y011980D01*
X014980Y012080D01*
X014980Y013880D01*
X015835Y014787D02*
X016708Y014787D01*
X016511Y014628D02*
X015993Y014628D01*
X016152Y014470D02*
X016460Y014470D01*
X016478Y014311D02*
X016310Y014311D01*
X016638Y013994D02*
X017434Y013994D01*
X017580Y014153D02*
X017593Y014153D01*
X017682Y014311D02*
X017751Y014311D01*
X017700Y014470D02*
X017888Y014470D01*
X017888Y014628D02*
X017649Y014628D01*
X017452Y014787D02*
X017936Y014787D01*
X017525Y015104D02*
X019760Y015104D01*
X019760Y015262D02*
X017662Y015262D01*
X017700Y015421D02*
X019760Y015421D01*
X019760Y015579D02*
X019395Y015579D01*
X019370Y015575D02*
X019448Y015587D01*
X019524Y015612D01*
X019595Y015648D01*
X019659Y015695D01*
X019715Y015751D01*
X019760Y015813D01*
X019760Y014800D01*
X019740Y014820D01*
X019557Y014430D02*
X019557Y014057D01*
X019618Y013836D02*
X019760Y013836D01*
X019760Y013677D02*
X019460Y013677D01*
X019301Y013519D02*
X019760Y013519D01*
X019760Y013043D02*
X019411Y013043D01*
X019570Y012885D02*
X019760Y012885D01*
X019760Y012726D02*
X019668Y012726D01*
X019734Y012568D02*
X019760Y012568D01*
X019760Y012409D02*
X019760Y012409D01*
X019760Y012251D02*
X019760Y012251D01*
X019760Y012092D02*
X019734Y012092D01*
X019760Y011934D02*
X019668Y011934D01*
X019760Y011775D02*
X019570Y011775D01*
X019411Y011617D02*
X019760Y011617D01*
X019760Y011458D02*
X019074Y011458D01*
X018983Y011141D02*
X018728Y011141D01*
X018811Y010983D02*
X018890Y010983D01*
X018865Y010824D02*
X018835Y010824D01*
X018808Y010666D02*
X018895Y010666D01*
X018995Y010507D02*
X018720Y010507D01*
X018330Y010507D02*
X018330Y010507D01*
X018330Y010666D02*
X018330Y010666D01*
X018330Y010824D02*
X018330Y010824D01*
X018330Y010983D02*
X018330Y010983D01*
X018330Y011141D02*
X018330Y011141D01*
X018330Y011300D02*
X018330Y011300D01*
X018141Y011300D02*
X017719Y011300D01*
X017740Y011458D02*
X018686Y011458D01*
X018519Y011300D02*
X019760Y011300D01*
X019760Y011141D02*
X019677Y011141D01*
X019760Y009873D02*
X019550Y009873D01*
X019550Y009715D02*
X019760Y009715D01*
X019760Y009556D02*
X019550Y009556D01*
X019409Y009398D02*
X019760Y009398D01*
X019760Y009239D02*
X019288Y009239D01*
X019295Y009081D02*
X019760Y009081D01*
X019760Y008922D02*
X019247Y008922D01*
X019121Y008764D02*
X019760Y008764D01*
X019760Y008605D02*
X017659Y008605D01*
X017700Y008447D02*
X019760Y008447D01*
X019760Y008288D02*
X017672Y008288D01*
X018042Y008130D02*
X019760Y008130D01*
X019760Y007971D02*
X018200Y007971D01*
X018459Y007813D02*
X019760Y007813D01*
X019760Y007654D02*
X018617Y007654D01*
X018312Y007337D02*
X017693Y007337D01*
X017700Y007496D02*
X018053Y007496D01*
X017895Y007654D02*
X017633Y007654D01*
X017080Y007430D02*
X015480Y007430D01*
X014880Y008030D01*
X014945Y007654D02*
X014633Y007654D01*
X014700Y007496D02*
X015103Y007496D01*
X015262Y007337D02*
X014693Y007337D01*
X014606Y007179D02*
X016554Y007179D01*
X016576Y006703D02*
X014584Y006703D01*
X014684Y006545D02*
X016476Y006545D01*
X016460Y006386D02*
X014700Y006386D01*
X014647Y006228D02*
X016513Y006228D01*
X016419Y005752D02*
X016625Y005752D01*
X016430Y005430D02*
X016230Y005630D01*
X015230Y005630D01*
X015180Y005680D01*
X015180Y005730D01*
X014980Y005930D01*
X015311Y005911D02*
X017288Y005911D01*
X017647Y006228D02*
X019110Y006228D01*
X019110Y006386D02*
X017700Y006386D01*
X017684Y006545D02*
X019104Y006545D01*
X019410Y006862D02*
X019760Y006862D01*
X019760Y007020D02*
X019288Y007020D01*
X019295Y007179D02*
X019760Y007179D01*
X019760Y007337D02*
X019248Y007337D01*
X019122Y007496D02*
X019760Y007496D01*
X019760Y006703D02*
X019550Y006703D01*
X019550Y006545D02*
X019760Y006545D01*
X019760Y006386D02*
X019550Y006386D01*
X019550Y006228D02*
X019760Y006228D01*
X019760Y006069D02*
X019550Y006069D01*
X019550Y005911D02*
X019760Y005911D01*
X019760Y005752D02*
X019550Y005752D01*
X019724Y005594D02*
X019760Y005594D01*
X019110Y005752D02*
X018608Y005752D01*
X018763Y005594D02*
X018936Y005594D01*
X018870Y005435D02*
X018825Y005435D01*
X018833Y005277D02*
X018865Y005277D01*
X018914Y005118D02*
X018789Y005118D01*
X018674Y004960D02*
X019043Y004960D01*
X019429Y004326D02*
X019760Y004326D01*
X019760Y004167D02*
X019588Y004167D01*
X019676Y004009D02*
X019760Y004009D01*
X019760Y003850D02*
X019741Y003850D01*
X019760Y003692D02*
X019760Y003692D01*
X019760Y003533D02*
X019760Y003533D01*
X019760Y003375D02*
X019727Y003375D01*
X019760Y003216D02*
X019661Y003216D01*
X019760Y003058D02*
X019552Y003058D01*
X018330Y004960D02*
X018330Y004960D01*
X018330Y005118D02*
X018330Y005118D01*
X018330Y005277D02*
X018330Y005277D01*
X018330Y005435D02*
X018330Y005435D01*
X018330Y005594D02*
X018330Y005594D01*
X018330Y005752D02*
X018330Y005752D01*
X018052Y005752D02*
X018000Y005752D01*
X017911Y005911D02*
X019110Y005911D01*
X019110Y006069D02*
X017752Y006069D01*
X017584Y006703D02*
X018646Y006703D01*
X018365Y007179D02*
X017606Y007179D01*
X017080Y005430D02*
X016430Y005430D01*
X017921Y004960D02*
X017986Y004960D01*
X016500Y003375D02*
X016460Y003375D01*
X016460Y003216D02*
X016500Y003216D01*
X016500Y003058D02*
X016460Y003058D01*
X016147Y003375D02*
X015757Y003375D01*
X015915Y003216D02*
X015988Y003216D01*
X015480Y002930D02*
X015480Y003530D01*
X015058Y001631D02*
X014902Y001631D01*
X014744Y001473D02*
X015216Y001473D01*
X017652Y009239D02*
X018372Y009239D01*
X018440Y009398D02*
X017700Y009398D01*
X017679Y009556D02*
X018643Y009556D01*
X017825Y010824D02*
X016450Y010824D01*
X016450Y010666D02*
X016538Y010666D01*
X016461Y010507D02*
X016450Y010507D01*
X016450Y010349D02*
X016462Y010349D01*
X016481Y010190D02*
X016543Y010190D01*
X016230Y010130D02*
X016230Y011130D01*
X016180Y011180D01*
X016452Y011141D02*
X016535Y011141D01*
X016450Y010983D02*
X017849Y010983D01*
X017932Y011141D02*
X017625Y011141D01*
X017696Y011617D02*
X018349Y011617D01*
X017080Y012430D02*
X017080Y012580D01*
X017080Y013430D02*
X017153Y013430D01*
X017276Y013836D02*
X016604Y013836D01*
X016550Y013677D02*
X016444Y013677D01*
X014812Y015421D02*
X014700Y015421D01*
X014670Y015579D02*
X014772Y015579D01*
X015080Y015580D02*
X015130Y015880D01*
X017630Y015880D01*
X017830Y016080D01*
X018330Y016080D01*
X017865Y016372D02*
X017700Y016372D01*
X017690Y016530D02*
X017932Y016530D01*
X017599Y016689D02*
X019760Y016689D01*
X019760Y016847D02*
X015108Y016847D01*
X015100Y016689D02*
X016561Y016689D01*
X016470Y016530D02*
X015100Y016530D01*
X015100Y016372D02*
X016460Y016372D01*
X016520Y016213D02*
X015100Y016213D01*
X014880Y016180D02*
X014680Y015980D01*
X014880Y016180D02*
X014880Y016930D01*
X015380Y017430D01*
X015380Y017880D01*
X015160Y017957D02*
X012794Y017957D01*
X012815Y017798D02*
X013736Y017798D01*
X013764Y017810D02*
X013625Y017752D01*
X013518Y017645D01*
X013460Y017506D01*
X013460Y017354D01*
X013518Y017215D01*
X013625Y017108D01*
X013764Y017050D01*
X014396Y017050D01*
X014535Y017108D01*
X014642Y017215D01*
X014700Y017354D01*
X014700Y017506D01*
X014642Y017645D01*
X014535Y017752D01*
X014396Y017810D01*
X013764Y017810D01*
X013515Y017640D02*
X012781Y017640D01*
X012675Y017481D02*
X013460Y017481D01*
X013473Y017323D02*
X010740Y017323D01*
X010777Y017295D02*
X010700Y017352D01*
X010614Y017395D01*
X010523Y017425D01*
X010428Y017440D01*
X010428Y017440D01*
X010428Y016878D01*
X010332Y016878D01*
X010332Y017440D01*
X010237Y017425D01*
X010146Y017395D01*
X010060Y017352D01*
X009983Y017295D01*
X009915Y017227D01*
X009858Y017150D01*
X009815Y017064D01*
X009785Y016973D01*
X009770Y016878D01*
X009770Y016878D01*
X010332Y016878D01*
X010332Y016782D01*
X009770Y016782D01*
X009785Y016687D01*
X009815Y016596D01*
X009858Y016510D01*
X009915Y016433D01*
X009983Y016365D01*
X010060Y016308D01*
X010146Y016265D01*
X010237Y016235D01*
X010332Y016220D01*
X010332Y016220D01*
X010332Y016782D01*
X010428Y016782D01*
X010428Y016878D01*
X010990Y016878D01*
X010975Y016973D01*
X010945Y017064D01*
X010902Y017150D01*
X010845Y017227D01*
X010777Y017295D01*
X010891Y017164D02*
X012023Y017164D01*
X012084Y017225D02*
X011953Y017094D01*
X011882Y016923D01*
X011882Y016737D01*
X011953Y016566D01*
X012084Y016435D01*
X012256Y016364D01*
X012441Y016364D01*
X012613Y016435D01*
X012744Y016566D01*
X012815Y016737D01*
X012815Y016923D01*
X012744Y017094D01*
X012613Y017225D01*
X012441Y017296D01*
X012256Y017296D01*
X012084Y017225D01*
X012022Y017481D02*
X008738Y017481D01*
X008844Y017640D02*
X011916Y017640D01*
X011882Y017798D02*
X008878Y017798D01*
X008857Y017957D02*
X011903Y017957D01*
X011917Y017006D02*
X010964Y017006D01*
X010990Y016878D02*
X010990Y016878D01*
X010990Y016782D02*
X010428Y016782D01*
X010428Y016220D01*
X010523Y016235D01*
X010614Y016265D01*
X010700Y016308D01*
X010777Y016365D01*
X010845Y016433D01*
X010902Y016510D01*
X010945Y016596D01*
X010975Y016687D01*
X010990Y016782D01*
X010990Y016782D01*
X010975Y016689D02*
X011902Y016689D01*
X011882Y016847D02*
X010428Y016847D01*
X010332Y016847D02*
X008878Y016847D01*
X008878Y016923D02*
X008807Y017094D01*
X008676Y017225D01*
X008504Y017296D01*
X008319Y017296D01*
X008147Y017225D01*
X008016Y017094D01*
X007945Y016923D01*
X007945Y016737D01*
X008016Y016566D01*
X008147Y016435D01*
X008319Y016364D01*
X008504Y016364D01*
X008676Y016435D01*
X008807Y016566D01*
X008878Y016737D01*
X008878Y016923D01*
X008843Y017006D02*
X009796Y017006D01*
X009869Y017164D02*
X008737Y017164D01*
X008858Y016689D02*
X009785Y016689D01*
X009770Y016782D02*
X009770Y016782D01*
X009848Y016530D02*
X008771Y016530D01*
X008523Y016372D02*
X009976Y016372D01*
X010119Y016055D02*
X013142Y016055D01*
X013373Y016213D02*
X007180Y016213D01*
X007165Y016204D02*
X007219Y016236D01*
X007228Y016266D01*
X007250Y016289D01*
X007250Y016351D01*
X007263Y016402D01*
X007286Y016425D01*
X007286Y016487D01*
X007301Y016545D01*
X007344Y016588D01*
X007344Y016918D01*
X007362Y016899D01*
X007872Y016899D01*
X007954Y016981D01*
X007954Y017412D01*
X007872Y017494D01*
X007362Y017494D01*
X007280Y017412D01*
X007280Y017358D01*
X007262Y017376D01*
X007093Y017376D01*
X007116Y017399D01*
X007178Y017549D01*
X007178Y017711D01*
X007116Y017861D01*
X007001Y017975D01*
X006852Y018037D01*
X006690Y018037D01*
X006540Y017975D01*
X006425Y017861D01*
X006363Y017711D01*
X006363Y017549D01*
X006425Y017399D01*
X006540Y017285D01*
X006690Y017223D01*
X006788Y017223D01*
X006788Y016701D01*
X006655Y016756D01*
X006505Y016756D01*
X006367Y016699D01*
X006261Y016593D01*
X006204Y016455D01*
X006204Y016305D01*
X006261Y016167D01*
X006367Y016061D01*
X006505Y016004D01*
X006655Y016004D01*
X006793Y016061D01*
X006892Y016160D01*
X007001Y016160D01*
X007062Y016144D01*
X007089Y016160D01*
X007121Y016160D01*
X007165Y016204D01*
X007255Y016372D02*
X008300Y016372D01*
X008052Y016530D02*
X007297Y016530D01*
X007344Y016689D02*
X007965Y016689D01*
X007945Y016847D02*
X007344Y016847D01*
X007066Y016941D02*
X007066Y016516D01*
X007030Y016380D01*
X006580Y016380D01*
X006235Y016530D02*
X006168Y016530D01*
X006163Y016689D02*
X006356Y016689D01*
X006163Y016847D02*
X006788Y016847D01*
X006788Y017006D02*
X006163Y017006D01*
X006163Y017164D02*
X006788Y017164D01*
X006502Y017323D02*
X006134Y017323D01*
X005968Y017481D02*
X006392Y017481D01*
X006363Y017640D02*
X005997Y017640D01*
X005961Y017798D02*
X006399Y017798D01*
X006521Y017957D02*
X005839Y017957D01*
X005340Y017957D02*
X005080Y017957D01*
X005030Y017798D02*
X005218Y017798D01*
X005182Y017640D02*
X004045Y017640D01*
X004045Y017798D02*
X004456Y017798D01*
X004406Y017957D02*
X003989Y017957D01*
X003580Y017830D02*
X003580Y017730D01*
X003580Y017830D02*
X003230Y018030D01*
X001580Y018030D01*
X001480Y017980D01*
X001480Y017480D01*
X001480Y017180D01*
X001030Y016730D01*
X001030Y015580D01*
X001480Y015130D01*
X001015Y015104D02*
X001000Y015104D01*
X001000Y015262D02*
X001015Y015262D01*
X001000Y014945D02*
X001015Y014945D01*
X001000Y014787D02*
X001015Y014787D01*
X001000Y014628D02*
X002421Y014628D01*
X002440Y014625D02*
X002480Y014625D01*
X002480Y015130D01*
X002480Y015130D01*
X002480Y015130D01*
X001975Y015130D01*
X001975Y015170D01*
X001987Y015248D01*
X002012Y015324D01*
X002048Y015395D01*
X002095Y015459D01*
X002151Y015515D01*
X002215Y015562D01*
X002286Y015598D01*
X002362Y015623D01*
X002440Y015635D01*
X002480Y015635D01*
X002480Y015130D01*
X001975Y015130D01*
X001975Y015090D01*
X001987Y015012D01*
X002012Y014936D01*
X002048Y014865D01*
X002095Y014801D01*
X002151Y014745D01*
X002215Y014698D01*
X002286Y014662D01*
X002362Y014637D01*
X002440Y014625D01*
X002480Y014628D02*
X002480Y014628D01*
X002539Y014628D02*
X003115Y014628D01*
X003112Y014787D02*
X002851Y014787D01*
X002951Y014945D02*
X002954Y014945D01*
X003030Y015180D02*
X003580Y014630D01*
X003241Y014311D02*
X001000Y014311D01*
X001000Y014153D02*
X008710Y014153D01*
X008710Y013994D02*
X001000Y013994D01*
X001000Y013836D02*
X008710Y013836D01*
X008489Y013677D02*
X005829Y013677D01*
X005851Y013670D02*
X005769Y013696D01*
X005683Y013710D01*
X005660Y013710D01*
X005660Y013180D01*
X005620Y013180D01*
X005620Y013710D01*
X005597Y013710D01*
X005511Y013696D01*
X005429Y013670D01*
X005352Y013630D01*
X005282Y013580D01*
X005220Y013518D01*
X005170Y013448D01*
X005130Y013371D01*
X005104Y013289D01*
X005090Y013203D01*
X005090Y013180D01*
X005620Y013180D01*
X005620Y013140D01*
X005090Y013140D01*
X005090Y013117D01*
X005104Y013031D01*
X005130Y012949D01*
X005170Y012872D01*
X005220Y012802D01*
X005282Y012740D01*
X005352Y012690D01*
X005429Y012650D01*
X005511Y012624D01*
X005597Y012610D01*
X005620Y012610D01*
X005620Y013140D01*
X005660Y013140D01*
X005660Y013180D01*
X006190Y013180D01*
X006190Y013203D01*
X006176Y013289D01*
X006150Y013371D01*
X006110Y013448D01*
X006060Y013518D01*
X005998Y013580D01*
X005928Y013630D01*
X005851Y013670D01*
X005660Y013677D02*
X005620Y013677D01*
X005620Y013519D02*
X005660Y013519D01*
X005660Y013360D02*
X005620Y013360D01*
X005620Y013202D02*
X005660Y013202D01*
X005660Y013140D02*
X006190Y013140D01*
X006190Y013117D01*
X006176Y013031D01*
X006150Y012949D01*
X006110Y012872D01*
X006060Y012802D01*
X005998Y012740D01*
X005928Y012690D01*
X005851Y012650D01*
X005769Y012624D01*
X005683Y012610D01*
X005660Y012610D01*
X005660Y013140D01*
X005660Y013043D02*
X005620Y013043D01*
X005620Y012885D02*
X005660Y012885D01*
X005660Y012726D02*
X005620Y012726D01*
X005302Y012726D02*
X002618Y012726D01*
X002684Y012568D02*
X006960Y012568D01*
X006960Y012726D02*
X005978Y012726D01*
X006117Y012885D02*
X006960Y012885D01*
X006916Y013043D02*
X006178Y013043D01*
X006190Y013202D02*
X006910Y013202D01*
X006951Y013360D02*
X006153Y013360D01*
X006059Y013519D02*
X007057Y013519D01*
X007420Y013160D02*
X007440Y013180D01*
X008180Y013180D01*
X008180Y012680D01*
X007960Y012726D02*
X007705Y012726D01*
X007858Y012885D02*
X007960Y012885D01*
X007981Y012568D02*
X007400Y012568D01*
X007400Y012409D02*
X008140Y012409D01*
X008298Y012251D02*
X007400Y012251D01*
X007400Y012092D02*
X009746Y012092D01*
X009690Y011934D02*
X007245Y011934D01*
X007086Y011775D02*
X009682Y011775D01*
X009721Y011617D02*
X006928Y011617D01*
X006830Y011830D02*
X007180Y012180D01*
X007180Y012920D01*
X007420Y013160D01*
X007783Y013519D02*
X008420Y013519D01*
X008420Y013360D02*
X008311Y013360D01*
X009150Y013836D02*
X012960Y013836D01*
X012960Y013994D02*
X009155Y013994D01*
X009371Y013677D02*
X009797Y013677D01*
X009547Y013519D02*
X009440Y013519D01*
X009440Y013360D02*
X009453Y013360D01*
X009440Y012885D02*
X009504Y012885D01*
X009414Y012726D02*
X009693Y012726D01*
X010167Y012726D02*
X010693Y012726D01*
X010504Y012885D02*
X010356Y012885D01*
X010425Y013043D02*
X010435Y013043D01*
X010453Y013360D02*
X010407Y013360D01*
X010313Y013519D02*
X010547Y013519D01*
X010797Y013677D02*
X010063Y013677D01*
X011063Y013677D02*
X011797Y013677D01*
X012063Y013677D02*
X012960Y013677D01*
X012960Y013519D02*
X012313Y013519D01*
X012407Y013360D02*
X012960Y013360D01*
X012960Y013202D02*
X012440Y013202D01*
X012425Y013043D02*
X012960Y013043D01*
X012960Y012885D02*
X012356Y012885D01*
X012167Y012726D02*
X012866Y012726D01*
X011830Y012130D02*
X011530Y012130D01*
X010280Y011130D01*
X010016Y011300D02*
X001000Y011300D01*
X001000Y011458D02*
X001636Y011458D01*
X001299Y011617D02*
X001000Y011617D01*
X001000Y011775D02*
X001140Y011775D01*
X001042Y011934D02*
X001000Y011934D01*
X001000Y012726D02*
X001042Y012726D01*
X001000Y012885D02*
X001140Y012885D01*
X001000Y013043D02*
X001299Y013043D01*
X001000Y013202D02*
X001634Y013202D01*
X002026Y013202D02*
X005090Y013202D01*
X005102Y013043D02*
X002361Y013043D01*
X002520Y012885D02*
X005163Y012885D01*
X005127Y013360D02*
X001000Y013360D01*
X001000Y013519D02*
X005221Y013519D01*
X005451Y013677D02*
X001000Y013677D01*
X001000Y014470D02*
X003143Y014470D01*
X003418Y015104D02*
X005087Y015104D01*
X005006Y015262D02*
X003926Y015262D01*
X004040Y015421D02*
X005510Y015421D01*
X005510Y015579D02*
X005550Y015579D01*
X005550Y015738D02*
X005510Y015738D01*
X005510Y015896D02*
X005550Y015896D01*
X005793Y016055D02*
X003855Y016055D01*
X003774Y016262D02*
X003845Y016298D01*
X003909Y016345D01*
X003965Y016401D01*
X004012Y016465D01*
X004048Y016536D01*
X004073Y016612D01*
X004085Y016690D01*
X004085Y016730D01*
X004085Y016770D01*
X004073Y016848D01*
X004048Y016924D01*
X004012Y016995D01*
X003965Y017059D01*
X003909Y017115D01*
X003845Y017162D01*
X003774Y017198D01*
X003698Y017223D01*
X003620Y017235D01*
X003580Y017235D01*
X003580Y016730D01*
X003580Y016730D01*
X004085Y016730D01*
X003580Y016730D01*
X003580Y016730D01*
X003580Y016730D01*
X003075Y016730D01*
X003075Y016770D01*
X003087Y016848D01*
X003112Y016924D01*
X003148Y016995D01*
X003195Y017059D01*
X003251Y017115D01*
X003315Y017162D01*
X003386Y017198D01*
X003462Y017223D01*
X003540Y017235D01*
X003580Y017235D01*
X003580Y016730D01*
X003580Y016225D01*
X003620Y016225D01*
X003698Y016237D01*
X003774Y016262D01*
X003936Y016372D02*
X005746Y016372D01*
X005770Y016213D02*
X003008Y016213D01*
X002850Y016372D02*
X003224Y016372D01*
X003251Y016345D02*
X003315Y016298D01*
X003386Y016262D01*
X003462Y016237D01*
X003540Y016225D01*
X003580Y016225D01*
X003580Y016730D01*
X003580Y016730D01*
X003075Y016730D01*
X003075Y016690D01*
X003087Y016612D01*
X003112Y016536D01*
X003148Y016465D01*
X003195Y016401D01*
X003251Y016345D01*
X003115Y016530D02*
X002691Y016530D01*
X002533Y016689D02*
X003075Y016689D01*
X003087Y016847D02*
X002484Y016847D01*
X002480Y017006D02*
X002480Y017006D01*
X002480Y017164D02*
X002480Y017164D01*
X002480Y017323D02*
X002480Y017323D01*
X002760Y017006D02*
X003156Y017006D01*
X003319Y017164D02*
X002930Y017164D01*
X003007Y017323D02*
X003349Y017323D01*
X003180Y017481D02*
X003030Y017481D01*
X003006Y017640D02*
X003115Y017640D01*
X003115Y017798D02*
X002929Y017798D01*
X003580Y017164D02*
X003580Y017164D01*
X003580Y017006D02*
X003580Y017006D01*
X003580Y016847D02*
X003580Y016847D01*
X003580Y016689D02*
X003580Y016689D01*
X003580Y016530D02*
X003580Y016530D01*
X003580Y016372D02*
X003580Y016372D01*
X003580Y016055D02*
X003580Y016055D01*
X003580Y015896D02*
X003580Y015896D01*
X003580Y015738D02*
X003580Y015738D01*
X003580Y015579D02*
X003580Y015579D01*
X003580Y015421D02*
X003580Y015421D01*
X003580Y015262D02*
X003580Y015262D01*
X003923Y014945D02*
X005270Y014945D01*
X005510Y014945D02*
X005550Y014945D01*
X005550Y015104D02*
X005510Y015104D01*
X005510Y015262D02*
X005550Y015262D01*
X005973Y015104D02*
X006135Y015104D01*
X006368Y014945D02*
X005790Y014945D01*
X006530Y015430D02*
X006035Y015925D01*
X005885Y016941D01*
X005607Y017006D02*
X005572Y017006D01*
X005572Y017164D02*
X005607Y017164D01*
X005607Y016847D02*
X005572Y016847D01*
X005572Y016689D02*
X005607Y016689D01*
X005665Y016530D02*
X005514Y016530D01*
X005074Y016530D02*
X004045Y016530D01*
X004085Y016689D02*
X005016Y016689D01*
X005016Y016847D02*
X004073Y016847D01*
X004004Y017006D02*
X004406Y017006D01*
X004406Y017164D02*
X003841Y017164D01*
X003811Y017323D02*
X004406Y017323D01*
X004475Y017481D02*
X003980Y017481D01*
X005011Y017481D02*
X005210Y017481D01*
X006191Y016372D02*
X006204Y016372D01*
X006215Y016213D02*
X006242Y016213D01*
X006238Y016055D02*
X006383Y016055D01*
X006738Y015896D02*
X009623Y015896D01*
X009602Y015738D02*
X006944Y015738D01*
X007020Y015579D02*
X009667Y015579D01*
X009536Y015421D02*
X011224Y015421D01*
X011504Y015421D02*
X012209Y015421D01*
X012488Y015421D02*
X013460Y015421D01*
X013490Y015579D02*
X013240Y015579D01*
X013130Y015780D02*
X009930Y015780D01*
X009741Y016055D02*
X006777Y016055D01*
X006530Y015430D02*
X008411Y014861D01*
X007997Y014470D02*
X004017Y014470D01*
X004045Y014628D02*
X007891Y014628D01*
X007841Y014787D02*
X004018Y014787D01*
X003919Y014311D02*
X008251Y014311D01*
X008572Y014311D02*
X008850Y014311D01*
X008826Y014470D02*
X008982Y014470D01*
X008990Y015262D02*
X008817Y015262D01*
X008551Y015421D02*
X009256Y015421D01*
X009801Y015262D02*
X010129Y015262D01*
X009976Y015104D02*
X009912Y015104D01*
X010631Y015262D02*
X010959Y015262D01*
X010848Y015104D02*
X010784Y015104D01*
X011770Y015262D02*
X011943Y015262D01*
X012754Y015262D02*
X013498Y015262D01*
X013292Y015104D02*
X012865Y015104D01*
X012919Y014945D02*
X013134Y014945D01*
X012975Y014787D02*
X012919Y014787D01*
X013130Y015780D02*
X014080Y016430D01*
X013561Y016689D02*
X012795Y016689D01*
X012815Y016847D02*
X014660Y016847D01*
X014660Y016689D02*
X014599Y016689D01*
X014660Y017006D02*
X012780Y017006D01*
X012674Y017164D02*
X013569Y017164D01*
X013470Y016530D02*
X012708Y016530D01*
X012460Y016372D02*
X013460Y016372D01*
X013689Y015896D02*
X014381Y015896D01*
X013610Y015738D02*
X013458Y015738D01*
X012237Y016372D02*
X010784Y016372D01*
X010912Y016530D02*
X011989Y016530D01*
X010428Y016530D02*
X010332Y016530D01*
X010332Y016372D02*
X010428Y016372D01*
X010428Y016220D02*
X010428Y016220D01*
X010428Y016689D02*
X010332Y016689D01*
X010332Y017006D02*
X010428Y017006D01*
X010428Y017164D02*
X010332Y017164D01*
X010332Y017323D02*
X010428Y017323D01*
X010332Y017440D02*
X010332Y017440D01*
X010020Y017323D02*
X007954Y017323D01*
X007954Y017164D02*
X008086Y017164D01*
X007980Y017006D02*
X007954Y017006D01*
X007885Y017481D02*
X008085Y017481D01*
X007979Y017640D02*
X007178Y017640D01*
X007150Y017481D02*
X007349Y017481D01*
X007330Y017798D02*
X007142Y017798D01*
X007020Y017957D02*
X007280Y017957D01*
X007904Y017798D02*
X007945Y017798D01*
X008272Y015421D02*
X007322Y015421D01*
X007374Y014945D02*
X006692Y014945D01*
X007847Y015262D02*
X008006Y015262D01*
X005236Y015896D02*
X004011Y015896D01*
X004074Y015738D02*
X005074Y015738D01*
X005000Y015579D02*
X004083Y015579D01*
X003305Y016055D02*
X003167Y016055D01*
X003030Y015880D02*
X003030Y015180D01*
X002810Y015579D02*
X002711Y015579D01*
X002810Y015738D02*
X001250Y015738D01*
X001250Y015896D02*
X002703Y015896D01*
X002544Y016055D02*
X001250Y016055D01*
X001250Y016213D02*
X002386Y016213D01*
X002180Y016730D02*
X001980Y016730D01*
X002180Y016730D02*
X003030Y015880D01*
X002480Y015579D02*
X002480Y015579D01*
X002480Y015421D02*
X002480Y015421D01*
X002480Y015262D02*
X002480Y015262D01*
X002480Y015104D02*
X002480Y015104D01*
X002480Y014945D02*
X002480Y014945D01*
X002480Y014787D02*
X002480Y014787D01*
X002109Y014787D02*
X001945Y014787D01*
X001945Y014945D02*
X002009Y014945D01*
X001975Y015104D02*
X001945Y015104D01*
X001945Y015262D02*
X001992Y015262D01*
X001945Y015421D02*
X002067Y015421D01*
X002249Y015579D02*
X001879Y015579D01*
X001617Y016372D02*
X001250Y016372D01*
X001250Y016530D02*
X001511Y016530D01*
X001470Y016689D02*
X001300Y016689D01*
X001458Y016847D02*
X001476Y016847D01*
X002710Y012409D02*
X006960Y012409D01*
X006939Y012251D02*
X003531Y012251D01*
X003673Y012092D02*
X006781Y012092D01*
X006830Y011830D02*
X003230Y011830D01*
X003579Y011458D02*
X009824Y011458D01*
X010250Y011810D02*
X010778Y011810D01*
X011278Y012210D01*
X010628Y012210D01*
X010650Y012188D01*
X010700Y012118D01*
X010740Y012041D01*
X010766Y011959D01*
X010780Y011873D01*
X010780Y011850D01*
X010250Y011850D01*
X010250Y011810D01*
X010770Y011934D02*
X010932Y011934D01*
X011130Y012092D02*
X010714Y012092D01*
X011167Y012726D02*
X011693Y012726D01*
X011504Y012885D02*
X011356Y012885D01*
X011425Y013043D02*
X011435Y013043D01*
X011453Y013360D02*
X011407Y013360D01*
X011313Y013519D02*
X011547Y013519D01*
X011380Y011230D02*
X010930Y011230D01*
X010780Y011030D01*
X007081Y010983D02*
X005979Y010983D01*
X006099Y010824D02*
X006961Y010824D01*
X006910Y010666D02*
X006150Y010666D01*
X006150Y010507D02*
X006910Y010507D01*
X006972Y010349D02*
X006088Y010349D01*
X005951Y010190D02*
X007109Y010190D01*
X002881Y011458D02*
X002024Y011458D01*
X002361Y011617D02*
X002766Y011617D01*
X002720Y011775D02*
X002520Y011775D01*
X002618Y011934D02*
X002721Y011934D01*
X002684Y012092D02*
X002787Y012092D01*
X002710Y012251D02*
X002929Y012251D01*
X014424Y017798D02*
X015160Y017798D01*
X015160Y017640D02*
X014645Y017640D01*
X014700Y017481D02*
X015120Y017481D01*
X014961Y017323D02*
X014687Y017323D01*
X014591Y017164D02*
X014803Y017164D01*
X015267Y017006D02*
X019760Y017006D01*
X019760Y017164D02*
X017591Y017164D01*
X017642Y017215D02*
X017535Y017108D01*
X017396Y017050D01*
X016764Y017050D01*
X016625Y017108D01*
X016518Y017215D01*
X016460Y017354D01*
X016460Y017506D01*
X016518Y017645D01*
X016625Y017752D01*
X016764Y017810D01*
X017396Y017810D01*
X017535Y017752D01*
X017642Y017645D01*
X017700Y017506D01*
X017700Y017354D01*
X017642Y017215D01*
X017687Y017323D02*
X017980Y017323D01*
X017888Y017481D02*
X017700Y017481D01*
X017645Y017640D02*
X017865Y017640D01*
X017896Y017798D02*
X017424Y017798D01*
X016736Y017798D02*
X015600Y017798D01*
X015600Y017640D02*
X016515Y017640D01*
X016460Y017481D02*
X015600Y017481D01*
X015584Y017323D02*
X016473Y017323D01*
X016569Y017164D02*
X015425Y017164D01*
X017640Y016213D02*
X017652Y016213D01*
X017799Y015738D02*
X017865Y015738D01*
X017670Y015579D02*
X019265Y015579D01*
X019290Y015575D02*
X019330Y015575D01*
X019370Y015575D01*
X019330Y015575D02*
X019330Y016080D01*
X019330Y016080D01*
X019330Y016080D01*
X019330Y016080D01*
X018825Y016080D01*
X018825Y016120D01*
X018837Y016198D01*
X018862Y016274D01*
X018898Y016345D01*
X018945Y016409D01*
X019001Y016465D01*
X019065Y016512D01*
X019136Y016548D01*
X019212Y016573D01*
X019290Y016585D01*
X019330Y016585D01*
X019330Y016080D01*
X019330Y015575D01*
X019330Y015579D02*
X019330Y015579D01*
X019290Y015575D02*
X019212Y015587D01*
X019136Y015612D01*
X019065Y015648D01*
X019001Y015695D01*
X018945Y015751D01*
X018898Y015815D01*
X018862Y015886D01*
X018837Y015962D01*
X018825Y016040D01*
X018825Y016080D01*
X019330Y016080D01*
X019330Y016055D02*
X019330Y016055D01*
X019330Y016213D02*
X019330Y016213D01*
X019330Y016372D02*
X019330Y016372D01*
X019330Y016530D02*
X019330Y016530D01*
X019101Y016530D02*
X018728Y016530D01*
X018795Y016372D02*
X018918Y016372D01*
X018842Y016213D02*
X018795Y016213D01*
X018795Y016055D02*
X018825Y016055D01*
X018795Y015896D02*
X018859Y015896D01*
X018795Y015738D02*
X018958Y015738D01*
X019330Y015738D02*
X019330Y015738D01*
X019330Y015896D02*
X019330Y015896D01*
X019702Y015738D02*
X019760Y015738D01*
X019742Y016372D02*
X019760Y016372D01*
X019760Y016530D02*
X019559Y016530D01*
X019680Y017323D02*
X019760Y017323D01*
X019330Y017630D02*
X019330Y017880D01*
X018896Y017798D02*
X018764Y017798D01*
X018795Y017640D02*
X018865Y017640D01*
X018888Y017481D02*
X018772Y017481D01*
X018680Y017323D02*
X018980Y017323D01*
X018507Y014787D02*
X018507Y014787D01*
X018507Y014628D02*
X018507Y014628D01*
X018507Y014470D02*
X018507Y014470D01*
X018507Y014430D02*
X018507Y014430D01*
X018507Y014311D02*
X018507Y014311D01*
X018507Y014153D02*
X018507Y014153D01*
X016230Y010130D02*
X016930Y009430D01*
X017080Y009430D01*
D23*
X014830Y008930D03*
X013330Y007680D03*
X013130Y006880D03*
X012380Y007580D03*
X011030Y007380D03*
X010480Y008530D03*
X011930Y010030D03*
X012580Y009080D03*
X010480Y010230D03*
X009930Y010280D03*
X009680Y010680D03*
X010280Y011130D03*
X010780Y011030D03*
X011830Y012130D03*
X014980Y013880D03*
X015680Y013780D03*
X016330Y013980D03*
X015080Y015580D03*
X014680Y015980D03*
X012380Y006080D03*
X011280Y004530D03*
X014730Y004930D03*
X014880Y005380D03*
D24*
X017130Y003630D03*
X019430Y008130D03*
X002780Y007430D03*
D25*
X011380Y011230D02*
X012230Y012130D01*
X012880Y012130D01*
X017080Y012580D02*
X018180Y013680D01*
X019180Y013680D01*
X019557Y014057D01*
X018153Y014430D02*
X017153Y013430D01*
X015380Y017880D02*
X015580Y018080D01*
X019130Y018080D01*
X019330Y017880D01*
X014980Y004280D02*
X014980Y002380D01*
D26*
X009930Y015780D03*
D27*
X006580Y016380D03*
M02*
