G75*
%MOIN*%
%OFA0B0*%
%FSLAX24Y24*%
%IPPOS*%
%LPD*%
%AMOC8*
5,1,8,0,0,1.08239X$1,22.5*
%
%ADD10C,0.0080*%
%ADD11C,0.0000*%
D10*
X000730Y000730D02*
X020030Y000730D01*
X020030Y018330D01*
X000730Y018330D01*
X000730Y000730D01*
D11*
X001180Y003630D02*
X001182Y003680D01*
X001188Y003730D01*
X001198Y003780D01*
X001211Y003828D01*
X001228Y003876D01*
X001249Y003922D01*
X001273Y003966D01*
X001301Y004008D01*
X001332Y004048D01*
X001366Y004085D01*
X001403Y004120D01*
X001442Y004151D01*
X001483Y004180D01*
X001527Y004205D01*
X001573Y004227D01*
X001620Y004245D01*
X001668Y004259D01*
X001717Y004270D01*
X001767Y004277D01*
X001817Y004280D01*
X001868Y004279D01*
X001918Y004274D01*
X001968Y004265D01*
X002016Y004253D01*
X002064Y004236D01*
X002110Y004216D01*
X002155Y004193D01*
X002198Y004166D01*
X002238Y004136D01*
X002276Y004103D01*
X002311Y004067D01*
X002344Y004028D01*
X002373Y003987D01*
X002399Y003944D01*
X002422Y003899D01*
X002441Y003852D01*
X002456Y003804D01*
X002468Y003755D01*
X002476Y003705D01*
X002480Y003655D01*
X002480Y003605D01*
X002476Y003555D01*
X002468Y003505D01*
X002456Y003456D01*
X002441Y003408D01*
X002422Y003361D01*
X002399Y003316D01*
X002373Y003273D01*
X002344Y003232D01*
X002311Y003193D01*
X002276Y003157D01*
X002238Y003124D01*
X002198Y003094D01*
X002155Y003067D01*
X002110Y003044D01*
X002064Y003024D01*
X002016Y003007D01*
X001968Y002995D01*
X001918Y002986D01*
X001868Y002981D01*
X001817Y002980D01*
X001767Y002983D01*
X001717Y002990D01*
X001668Y003001D01*
X001620Y003015D01*
X001573Y003033D01*
X001527Y003055D01*
X001483Y003080D01*
X001442Y003109D01*
X001403Y003140D01*
X001366Y003175D01*
X001332Y003212D01*
X001301Y003252D01*
X001273Y003294D01*
X001249Y003338D01*
X001228Y003384D01*
X001211Y003432D01*
X001198Y003480D01*
X001188Y003530D01*
X001182Y003580D01*
X001180Y003630D01*
X001180Y012330D02*
X001182Y012380D01*
X001188Y012430D01*
X001198Y012480D01*
X001211Y012528D01*
X001228Y012576D01*
X001249Y012622D01*
X001273Y012666D01*
X001301Y012708D01*
X001332Y012748D01*
X001366Y012785D01*
X001403Y012820D01*
X001442Y012851D01*
X001483Y012880D01*
X001527Y012905D01*
X001573Y012927D01*
X001620Y012945D01*
X001668Y012959D01*
X001717Y012970D01*
X001767Y012977D01*
X001817Y012980D01*
X001868Y012979D01*
X001918Y012974D01*
X001968Y012965D01*
X002016Y012953D01*
X002064Y012936D01*
X002110Y012916D01*
X002155Y012893D01*
X002198Y012866D01*
X002238Y012836D01*
X002276Y012803D01*
X002311Y012767D01*
X002344Y012728D01*
X002373Y012687D01*
X002399Y012644D01*
X002422Y012599D01*
X002441Y012552D01*
X002456Y012504D01*
X002468Y012455D01*
X002476Y012405D01*
X002480Y012355D01*
X002480Y012305D01*
X002476Y012255D01*
X002468Y012205D01*
X002456Y012156D01*
X002441Y012108D01*
X002422Y012061D01*
X002399Y012016D01*
X002373Y011973D01*
X002344Y011932D01*
X002311Y011893D01*
X002276Y011857D01*
X002238Y011824D01*
X002198Y011794D01*
X002155Y011767D01*
X002110Y011744D01*
X002064Y011724D01*
X002016Y011707D01*
X001968Y011695D01*
X001918Y011686D01*
X001868Y011681D01*
X001817Y011680D01*
X001767Y011683D01*
X001717Y011690D01*
X001668Y011701D01*
X001620Y011715D01*
X001573Y011733D01*
X001527Y011755D01*
X001483Y011780D01*
X001442Y011809D01*
X001403Y011840D01*
X001366Y011875D01*
X001332Y011912D01*
X001301Y011952D01*
X001273Y011994D01*
X001249Y012038D01*
X001228Y012084D01*
X001211Y012132D01*
X001198Y012180D01*
X001188Y012230D01*
X001182Y012280D01*
X001180Y012330D01*
X005412Y017630D02*
X005414Y017656D01*
X005420Y017682D01*
X005430Y017707D01*
X005443Y017730D01*
X005459Y017750D01*
X005479Y017768D01*
X005501Y017783D01*
X005524Y017795D01*
X005550Y017803D01*
X005576Y017807D01*
X005602Y017807D01*
X005628Y017803D01*
X005654Y017795D01*
X005678Y017783D01*
X005699Y017768D01*
X005719Y017750D01*
X005735Y017730D01*
X005748Y017707D01*
X005758Y017682D01*
X005764Y017656D01*
X005766Y017630D01*
X005764Y017604D01*
X005758Y017578D01*
X005748Y017553D01*
X005735Y017530D01*
X005719Y017510D01*
X005699Y017492D01*
X005677Y017477D01*
X005654Y017465D01*
X005628Y017457D01*
X005602Y017453D01*
X005576Y017453D01*
X005550Y017457D01*
X005524Y017465D01*
X005500Y017477D01*
X005479Y017492D01*
X005459Y017510D01*
X005443Y017530D01*
X005430Y017553D01*
X005420Y017578D01*
X005414Y017604D01*
X005412Y017630D01*
X006594Y017630D02*
X006596Y017656D01*
X006602Y017682D01*
X006612Y017707D01*
X006625Y017730D01*
X006641Y017750D01*
X006661Y017768D01*
X006683Y017783D01*
X006706Y017795D01*
X006732Y017803D01*
X006758Y017807D01*
X006784Y017807D01*
X006810Y017803D01*
X006836Y017795D01*
X006860Y017783D01*
X006881Y017768D01*
X006901Y017750D01*
X006917Y017730D01*
X006930Y017707D01*
X006940Y017682D01*
X006946Y017656D01*
X006948Y017630D01*
X006946Y017604D01*
X006940Y017578D01*
X006930Y017553D01*
X006917Y017530D01*
X006901Y017510D01*
X006881Y017492D01*
X006859Y017477D01*
X006836Y017465D01*
X006810Y017457D01*
X006784Y017453D01*
X006758Y017453D01*
X006732Y017457D01*
X006706Y017465D01*
X006682Y017477D01*
X006661Y017492D01*
X006641Y017510D01*
X006625Y017530D01*
X006612Y017553D01*
X006602Y017578D01*
X006596Y017604D01*
X006594Y017630D01*
X008175Y017814D02*
X008177Y017844D01*
X008183Y017874D01*
X008192Y017903D01*
X008205Y017930D01*
X008222Y017955D01*
X008241Y017978D01*
X008264Y017999D01*
X008289Y018016D01*
X008315Y018030D01*
X008344Y018040D01*
X008373Y018047D01*
X008403Y018050D01*
X008434Y018049D01*
X008464Y018044D01*
X008493Y018035D01*
X008520Y018023D01*
X008546Y018008D01*
X008570Y017989D01*
X008591Y017967D01*
X008609Y017943D01*
X008624Y017916D01*
X008635Y017888D01*
X008643Y017859D01*
X008647Y017829D01*
X008647Y017799D01*
X008643Y017769D01*
X008635Y017740D01*
X008624Y017712D01*
X008609Y017685D01*
X008591Y017661D01*
X008570Y017639D01*
X008546Y017620D01*
X008520Y017605D01*
X008493Y017593D01*
X008464Y017584D01*
X008434Y017579D01*
X008403Y017578D01*
X008373Y017581D01*
X008344Y017588D01*
X008315Y017598D01*
X008289Y017612D01*
X008264Y017629D01*
X008241Y017650D01*
X008222Y017673D01*
X008205Y017698D01*
X008192Y017725D01*
X008183Y017754D01*
X008177Y017784D01*
X008175Y017814D01*
X008175Y016830D02*
X008177Y016860D01*
X008183Y016890D01*
X008192Y016919D01*
X008205Y016946D01*
X008222Y016971D01*
X008241Y016994D01*
X008264Y017015D01*
X008289Y017032D01*
X008315Y017046D01*
X008344Y017056D01*
X008373Y017063D01*
X008403Y017066D01*
X008434Y017065D01*
X008464Y017060D01*
X008493Y017051D01*
X008520Y017039D01*
X008546Y017024D01*
X008570Y017005D01*
X008591Y016983D01*
X008609Y016959D01*
X008624Y016932D01*
X008635Y016904D01*
X008643Y016875D01*
X008647Y016845D01*
X008647Y016815D01*
X008643Y016785D01*
X008635Y016756D01*
X008624Y016728D01*
X008609Y016701D01*
X008591Y016677D01*
X008570Y016655D01*
X008546Y016636D01*
X008520Y016621D01*
X008493Y016609D01*
X008464Y016600D01*
X008434Y016595D01*
X008403Y016594D01*
X008373Y016597D01*
X008344Y016604D01*
X008315Y016614D01*
X008289Y016628D01*
X008264Y016645D01*
X008241Y016666D01*
X008222Y016689D01*
X008205Y016714D01*
X008192Y016741D01*
X008183Y016770D01*
X008177Y016800D01*
X008175Y016830D01*
X010144Y014861D02*
X010146Y014891D01*
X010152Y014921D01*
X010161Y014950D01*
X010174Y014977D01*
X010191Y015002D01*
X010210Y015025D01*
X010233Y015046D01*
X010258Y015063D01*
X010284Y015077D01*
X010313Y015087D01*
X010342Y015094D01*
X010372Y015097D01*
X010403Y015096D01*
X010433Y015091D01*
X010462Y015082D01*
X010489Y015070D01*
X010515Y015055D01*
X010539Y015036D01*
X010560Y015014D01*
X010578Y014990D01*
X010593Y014963D01*
X010604Y014935D01*
X010612Y014906D01*
X010616Y014876D01*
X010616Y014846D01*
X010612Y014816D01*
X010604Y014787D01*
X010593Y014759D01*
X010578Y014732D01*
X010560Y014708D01*
X010539Y014686D01*
X010515Y014667D01*
X010489Y014652D01*
X010462Y014640D01*
X010433Y014631D01*
X010403Y014626D01*
X010372Y014625D01*
X010342Y014628D01*
X010313Y014635D01*
X010284Y014645D01*
X010258Y014659D01*
X010233Y014676D01*
X010210Y014697D01*
X010191Y014720D01*
X010174Y014745D01*
X010161Y014772D01*
X010152Y014801D01*
X010146Y014831D01*
X010144Y014861D01*
X012113Y016830D02*
X012115Y016860D01*
X012121Y016890D01*
X012130Y016919D01*
X012143Y016946D01*
X012160Y016971D01*
X012179Y016994D01*
X012202Y017015D01*
X012227Y017032D01*
X012253Y017046D01*
X012282Y017056D01*
X012311Y017063D01*
X012341Y017066D01*
X012372Y017065D01*
X012402Y017060D01*
X012431Y017051D01*
X012458Y017039D01*
X012484Y017024D01*
X012508Y017005D01*
X012529Y016983D01*
X012547Y016959D01*
X012562Y016932D01*
X012573Y016904D01*
X012581Y016875D01*
X012585Y016845D01*
X012585Y016815D01*
X012581Y016785D01*
X012573Y016756D01*
X012562Y016728D01*
X012547Y016701D01*
X012529Y016677D01*
X012508Y016655D01*
X012484Y016636D01*
X012458Y016621D01*
X012431Y016609D01*
X012402Y016600D01*
X012372Y016595D01*
X012341Y016594D01*
X012311Y016597D01*
X012282Y016604D01*
X012253Y016614D01*
X012227Y016628D01*
X012202Y016645D01*
X012179Y016666D01*
X012160Y016689D01*
X012143Y016714D01*
X012130Y016741D01*
X012121Y016770D01*
X012115Y016800D01*
X012113Y016830D01*
X012113Y017814D02*
X012115Y017844D01*
X012121Y017874D01*
X012130Y017903D01*
X012143Y017930D01*
X012160Y017955D01*
X012179Y017978D01*
X012202Y017999D01*
X012227Y018016D01*
X012253Y018030D01*
X012282Y018040D01*
X012311Y018047D01*
X012341Y018050D01*
X012372Y018049D01*
X012402Y018044D01*
X012431Y018035D01*
X012458Y018023D01*
X012484Y018008D01*
X012508Y017989D01*
X012529Y017967D01*
X012547Y017943D01*
X012562Y017916D01*
X012573Y017888D01*
X012581Y017859D01*
X012585Y017829D01*
X012585Y017799D01*
X012581Y017769D01*
X012573Y017740D01*
X012562Y017712D01*
X012547Y017685D01*
X012529Y017661D01*
X012508Y017639D01*
X012484Y017620D01*
X012458Y017605D01*
X012431Y017593D01*
X012402Y017584D01*
X012372Y017579D01*
X012341Y017578D01*
X012311Y017581D01*
X012282Y017588D01*
X012253Y017598D01*
X012227Y017612D01*
X012202Y017629D01*
X012179Y017650D01*
X012160Y017673D01*
X012143Y017698D01*
X012130Y017725D01*
X012121Y017754D01*
X012115Y017784D01*
X012113Y017814D01*
X018230Y012330D02*
X018232Y012380D01*
X018238Y012430D01*
X018248Y012480D01*
X018261Y012528D01*
X018278Y012576D01*
X018299Y012622D01*
X018323Y012666D01*
X018351Y012708D01*
X018382Y012748D01*
X018416Y012785D01*
X018453Y012820D01*
X018492Y012851D01*
X018533Y012880D01*
X018577Y012905D01*
X018623Y012927D01*
X018670Y012945D01*
X018718Y012959D01*
X018767Y012970D01*
X018817Y012977D01*
X018867Y012980D01*
X018918Y012979D01*
X018968Y012974D01*
X019018Y012965D01*
X019066Y012953D01*
X019114Y012936D01*
X019160Y012916D01*
X019205Y012893D01*
X019248Y012866D01*
X019288Y012836D01*
X019326Y012803D01*
X019361Y012767D01*
X019394Y012728D01*
X019423Y012687D01*
X019449Y012644D01*
X019472Y012599D01*
X019491Y012552D01*
X019506Y012504D01*
X019518Y012455D01*
X019526Y012405D01*
X019530Y012355D01*
X019530Y012305D01*
X019526Y012255D01*
X019518Y012205D01*
X019506Y012156D01*
X019491Y012108D01*
X019472Y012061D01*
X019449Y012016D01*
X019423Y011973D01*
X019394Y011932D01*
X019361Y011893D01*
X019326Y011857D01*
X019288Y011824D01*
X019248Y011794D01*
X019205Y011767D01*
X019160Y011744D01*
X019114Y011724D01*
X019066Y011707D01*
X019018Y011695D01*
X018968Y011686D01*
X018918Y011681D01*
X018867Y011680D01*
X018817Y011683D01*
X018767Y011690D01*
X018718Y011701D01*
X018670Y011715D01*
X018623Y011733D01*
X018577Y011755D01*
X018533Y011780D01*
X018492Y011809D01*
X018453Y011840D01*
X018416Y011875D01*
X018382Y011912D01*
X018351Y011952D01*
X018323Y011994D01*
X018299Y012038D01*
X018278Y012084D01*
X018261Y012132D01*
X018248Y012180D01*
X018238Y012230D01*
X018232Y012280D01*
X018230Y012330D01*
X018230Y003630D02*
X018232Y003680D01*
X018238Y003730D01*
X018248Y003780D01*
X018261Y003828D01*
X018278Y003876D01*
X018299Y003922D01*
X018323Y003966D01*
X018351Y004008D01*
X018382Y004048D01*
X018416Y004085D01*
X018453Y004120D01*
X018492Y004151D01*
X018533Y004180D01*
X018577Y004205D01*
X018623Y004227D01*
X018670Y004245D01*
X018718Y004259D01*
X018767Y004270D01*
X018817Y004277D01*
X018867Y004280D01*
X018918Y004279D01*
X018968Y004274D01*
X019018Y004265D01*
X019066Y004253D01*
X019114Y004236D01*
X019160Y004216D01*
X019205Y004193D01*
X019248Y004166D01*
X019288Y004136D01*
X019326Y004103D01*
X019361Y004067D01*
X019394Y004028D01*
X019423Y003987D01*
X019449Y003944D01*
X019472Y003899D01*
X019491Y003852D01*
X019506Y003804D01*
X019518Y003755D01*
X019526Y003705D01*
X019530Y003655D01*
X019530Y003605D01*
X019526Y003555D01*
X019518Y003505D01*
X019506Y003456D01*
X019491Y003408D01*
X019472Y003361D01*
X019449Y003316D01*
X019423Y003273D01*
X019394Y003232D01*
X019361Y003193D01*
X019326Y003157D01*
X019288Y003124D01*
X019248Y003094D01*
X019205Y003067D01*
X019160Y003044D01*
X019114Y003024D01*
X019066Y003007D01*
X019018Y002995D01*
X018968Y002986D01*
X018918Y002981D01*
X018867Y002980D01*
X018817Y002983D01*
X018767Y002990D01*
X018718Y003001D01*
X018670Y003015D01*
X018623Y003033D01*
X018577Y003055D01*
X018533Y003080D01*
X018492Y003109D01*
X018453Y003140D01*
X018416Y003175D01*
X018382Y003212D01*
X018351Y003252D01*
X018323Y003294D01*
X018299Y003338D01*
X018278Y003384D01*
X018261Y003432D01*
X018248Y003480D01*
X018238Y003530D01*
X018232Y003580D01*
X018230Y003630D01*
M02*
