G75*
%MOIN*%
%OFA0B0*%
%FSLAX24Y24*%
%IPPOS*%
%LPD*%
%AMOC8*
5,1,8,0,0,1.08239X$1,22.5*
%
%ADD10C,0.0480*%
%ADD11C,0.0650*%
%ADD12OC8,0.0740*%
%ADD13C,0.0740*%
%ADD14C,0.0860*%
%ADD15R,0.0709X0.0630*%
%ADD16R,0.0630X0.0709*%
%ADD17R,0.0650X0.0650*%
%ADD18R,0.0740X0.0740*%
%ADD19C,0.0160*%
%ADD20C,0.0337*%
%ADD21C,0.0120*%
%ADD22OC8,0.0376*%
%ADD23C,0.0376*%
%ADD24C,0.0472*%
D10*
X013840Y004430D02*
X014320Y004430D01*
X014320Y005430D02*
X013840Y005430D01*
X013840Y006430D02*
X014320Y006430D01*
X014320Y007430D02*
X013840Y007430D01*
X013840Y008430D02*
X014320Y008430D01*
X014320Y009430D02*
X013840Y009430D01*
X013840Y010430D02*
X014320Y010430D01*
X014320Y011430D02*
X013840Y011430D01*
X013840Y012430D02*
X014320Y012430D01*
X014320Y013430D02*
X013840Y013430D01*
X013840Y014430D02*
X014320Y014430D01*
X014320Y015430D02*
X013840Y015430D01*
X013840Y016430D02*
X014320Y016430D01*
X014320Y017430D02*
X013840Y017430D01*
X016840Y017430D02*
X017320Y017430D01*
X017320Y016430D02*
X016840Y016430D01*
X016840Y015430D02*
X017320Y015430D01*
X017320Y014430D02*
X016840Y014430D01*
X016840Y013430D02*
X017320Y013430D01*
X017320Y012430D02*
X016840Y012430D01*
X016840Y011430D02*
X017320Y011430D01*
X017320Y010430D02*
X016840Y010430D01*
X016840Y009430D02*
X017320Y009430D01*
X017320Y008430D02*
X016840Y008430D01*
X016840Y007430D02*
X017320Y007430D01*
X017320Y006430D02*
X016840Y006430D01*
X016840Y005430D02*
X017320Y005430D01*
X017320Y004430D02*
X016840Y004430D01*
D11*
X018330Y005330D03*
X019330Y005330D03*
X018830Y007130D03*
X018830Y009130D03*
X018330Y010830D03*
X019330Y010830D03*
X019330Y016080D03*
X019330Y017630D03*
X018330Y017630D03*
X013030Y005580D03*
X013030Y004580D03*
X010980Y003930D03*
X009980Y003930D03*
X003580Y014630D03*
X002480Y015130D03*
X003580Y015630D03*
X003580Y016730D03*
X003580Y017730D03*
D12*
X014480Y002930D03*
X015480Y002930D03*
X016480Y002930D03*
X016480Y001930D03*
X015480Y001930D03*
X014480Y001930D03*
D13*
X008930Y004030D03*
X007930Y004030D03*
X006930Y004030D03*
X005930Y004030D03*
X004930Y004030D03*
X003930Y004030D03*
X005640Y010600D03*
X007420Y010600D03*
X007420Y013160D03*
X005640Y013160D03*
X003230Y011830D03*
X005530Y015430D03*
X006530Y015430D03*
X009930Y013180D03*
X010930Y013180D03*
X011930Y013180D03*
X012430Y011630D03*
X012430Y010630D03*
X010230Y011830D03*
X002480Y017480D03*
X001980Y016730D03*
X001480Y017480D03*
D14*
X008411Y014861D03*
X009396Y014861D03*
X011364Y014861D03*
X012349Y014861D03*
X010380Y016830D03*
D15*
X015680Y016481D03*
X015680Y015379D03*
X015680Y013081D03*
X015680Y011979D03*
X015680Y008681D03*
X015680Y007579D03*
X015680Y006181D03*
X015680Y005079D03*
D16*
X004581Y010530D03*
X003479Y010530D03*
D17*
X001480Y015130D03*
X018330Y016080D03*
D18*
X008930Y013180D03*
D19*
X001000Y003334D02*
X001000Y001000D01*
X019760Y001000D01*
X019760Y005153D01*
X019724Y005067D01*
X019593Y004936D01*
X019422Y004865D01*
X019238Y004865D01*
X019067Y004936D01*
X018936Y005067D01*
X018865Y005238D01*
X018865Y005422D01*
X018936Y005593D01*
X019067Y005724D01*
X019238Y005795D01*
X019422Y005795D01*
X019593Y005724D01*
X019724Y005593D01*
X019760Y005507D01*
X019760Y010653D01*
X019724Y010567D01*
X019593Y010436D01*
X019422Y010365D01*
X019238Y010365D01*
X019067Y010436D01*
X018936Y010567D01*
X018865Y010738D01*
X018865Y010922D01*
X018936Y011093D01*
X019067Y011224D01*
X019238Y011295D01*
X019422Y011295D01*
X019593Y011224D01*
X019724Y011093D01*
X019760Y011007D01*
X019760Y015813D01*
X019715Y015751D01*
X019659Y015695D01*
X019595Y015648D01*
X019524Y015612D01*
X019448Y015587D01*
X019370Y015575D01*
X019330Y015575D01*
X019330Y016080D01*
X019330Y016080D01*
X019330Y016585D01*
X019370Y016585D01*
X019448Y016573D01*
X019524Y016548D01*
X019595Y016512D01*
X019659Y016465D01*
X019715Y016409D01*
X019760Y016347D01*
X019760Y017453D01*
X019724Y017367D01*
X019593Y017236D01*
X019422Y017165D01*
X019238Y017165D01*
X019067Y017236D01*
X018936Y017367D01*
X018865Y017538D01*
X018865Y017722D01*
X018936Y017893D01*
X019067Y018024D01*
X019153Y018060D01*
X018507Y018060D01*
X018593Y018024D01*
X018724Y017893D01*
X018795Y017722D01*
X018795Y017538D01*
X018724Y017367D01*
X018593Y017236D01*
X018429Y017168D01*
X018421Y017160D01*
X017971Y016710D01*
X017577Y016710D01*
X017642Y016645D01*
X017700Y016506D01*
X017700Y016354D01*
X017642Y016215D01*
X017535Y016108D01*
X017396Y016050D01*
X016764Y016050D01*
X016625Y016108D01*
X016518Y016215D01*
X016460Y016354D01*
X016460Y016506D01*
X016518Y016645D01*
X016583Y016710D01*
X016471Y016710D01*
X016242Y016481D01*
X016600Y016123D01*
X016600Y015727D01*
X016625Y015752D01*
X016764Y015810D01*
X017396Y015810D01*
X017535Y015752D01*
X017642Y015645D01*
X017700Y015506D01*
X017700Y015354D01*
X017642Y015215D01*
X017535Y015108D01*
X017516Y015100D01*
X017771Y015100D01*
X017900Y014971D01*
X017900Y014789D01*
X017880Y014769D01*
X017880Y011891D01*
X018000Y011771D01*
X018000Y011214D01*
X018001Y011215D01*
X018065Y011262D01*
X018136Y011298D01*
X018212Y011323D01*
X018290Y011335D01*
X018330Y011335D01*
X018330Y010830D01*
X018330Y010830D01*
X018835Y010830D01*
X018835Y010870D01*
X018823Y010948D01*
X018798Y011024D01*
X018762Y011095D01*
X018715Y011159D01*
X018659Y011215D01*
X018595Y011262D01*
X018524Y011298D01*
X018448Y011323D01*
X018370Y011335D01*
X018330Y011335D01*
X018330Y010830D01*
X018330Y010830D01*
X018835Y010830D01*
X018835Y010790D01*
X018823Y010712D01*
X018798Y010636D01*
X018762Y010565D01*
X018715Y010501D01*
X018659Y010445D01*
X018595Y010398D01*
X018524Y010362D01*
X018448Y010337D01*
X018370Y010325D01*
X018330Y010325D01*
X018330Y010830D01*
X018330Y010830D01*
X018330Y010325D01*
X018290Y010325D01*
X018212Y010337D01*
X018136Y010362D01*
X018065Y010398D01*
X018001Y010445D01*
X018000Y010446D01*
X018000Y005714D01*
X018001Y005715D01*
X018065Y005762D01*
X018136Y005798D01*
X018212Y005823D01*
X018290Y005835D01*
X018330Y005835D01*
X018330Y005330D01*
X018330Y005330D01*
X018835Y005330D01*
X018835Y005370D01*
X018823Y005448D01*
X018798Y005524D01*
X018762Y005595D01*
X018715Y005659D01*
X018659Y005715D01*
X018595Y005762D01*
X018524Y005798D01*
X018448Y005823D01*
X018370Y005835D01*
X018330Y005835D01*
X018330Y005330D01*
X018330Y005330D01*
X018835Y005330D01*
X018835Y005290D01*
X018823Y005212D01*
X018798Y005136D01*
X018762Y005065D01*
X018715Y005001D01*
X018659Y004945D01*
X018595Y004898D01*
X018524Y004862D01*
X018448Y004837D01*
X018370Y004825D01*
X018330Y004825D01*
X018330Y005330D01*
X018330Y005330D01*
X018330Y004825D01*
X018290Y004825D01*
X018212Y004837D01*
X018136Y004862D01*
X018065Y004898D01*
X018001Y004945D01*
X018000Y004946D01*
X018000Y004297D01*
X018014Y004276D01*
X018000Y004208D01*
X018000Y004139D01*
X017983Y004122D01*
X017978Y004097D01*
X017920Y004059D01*
X017871Y004010D01*
X017850Y004010D01*
X017850Y002684D01*
X017853Y002597D01*
X017850Y002593D01*
X017850Y002589D01*
X017788Y002527D01*
X017150Y001843D01*
X017150Y001839D01*
X017088Y001777D01*
X017029Y001713D01*
X017024Y001713D01*
X017021Y001710D01*
X016981Y001710D01*
X016691Y001420D01*
X016269Y001420D01*
X015980Y001709D01*
X015691Y001420D01*
X015269Y001420D01*
X014980Y001709D01*
X014691Y001420D01*
X014269Y001420D01*
X013970Y001719D01*
X013970Y002141D01*
X014259Y002430D01*
X013979Y002710D01*
X013289Y002710D01*
X013160Y002839D01*
X012789Y003210D01*
X010189Y003210D01*
X010060Y003339D01*
X009934Y003465D01*
X009888Y003465D01*
X009717Y003536D01*
X009586Y003667D01*
X009515Y003838D01*
X009515Y004022D01*
X009586Y004193D01*
X009717Y004324D01*
X009888Y004395D01*
X010072Y004395D01*
X010243Y004324D01*
X010374Y004193D01*
X010445Y004022D01*
X010445Y003838D01*
X010374Y003667D01*
X010364Y003657D01*
X010371Y003650D01*
X010559Y003650D01*
X010548Y003665D01*
X010512Y003736D01*
X010487Y003812D01*
X010475Y003890D01*
X010475Y003930D01*
X010980Y003930D01*
X010980Y003930D01*
X010980Y004435D01*
X010986Y004435D01*
X010972Y004469D01*
X010972Y004591D01*
X011019Y004705D01*
X011042Y004728D01*
X010830Y007144D01*
X010769Y007205D01*
X010722Y007319D01*
X010722Y007441D01*
X010769Y007555D01*
X010855Y007641D01*
X010969Y007688D01*
X011091Y007688D01*
X011205Y007641D01*
X011291Y007555D01*
X011338Y007441D01*
X011338Y007319D01*
X011291Y007205D01*
X011268Y007182D01*
X011480Y004766D01*
X011541Y004705D01*
X011588Y004591D01*
X011588Y004469D01*
X011541Y004355D01*
X011455Y004269D01*
X011381Y004238D01*
X011412Y004195D01*
X011448Y004124D01*
X011473Y004048D01*
X011485Y003970D01*
X011485Y003930D01*
X010980Y003930D01*
X010980Y003930D01*
X010980Y003930D01*
X010980Y004435D01*
X010940Y004435D01*
X010862Y004423D01*
X010786Y004398D01*
X010715Y004362D01*
X010651Y004315D01*
X010595Y004259D01*
X010548Y004195D01*
X010512Y004124D01*
X010487Y004048D01*
X010475Y003970D01*
X010475Y003930D01*
X010980Y003930D01*
X011485Y003930D01*
X011485Y003890D01*
X011473Y003812D01*
X011448Y003736D01*
X011412Y003665D01*
X011401Y003650D01*
X012971Y003650D01*
X013471Y003150D01*
X013979Y003150D01*
X014269Y003440D01*
X014691Y003440D01*
X014980Y003151D01*
X015269Y003440D01*
X015691Y003440D01*
X015952Y003180D01*
X016252Y003480D01*
X016460Y003480D01*
X016460Y002950D01*
X016500Y002950D01*
X016500Y003480D01*
X016708Y003480D01*
X017030Y003158D01*
X017030Y002950D01*
X016500Y002950D01*
X016500Y002910D01*
X017030Y002910D01*
X017030Y002702D01*
X016730Y002402D01*
X016905Y002226D01*
X017410Y002767D01*
X017410Y004056D01*
X017396Y004050D01*
X017011Y004050D01*
X016671Y003710D01*
X012748Y003710D01*
X012676Y003698D01*
X012659Y003710D01*
X012639Y003710D01*
X012587Y003762D01*
X012309Y003960D01*
X012289Y003960D01*
X012237Y004012D01*
X012178Y004054D01*
X012175Y004074D01*
X012160Y004089D01*
X012160Y004162D01*
X012148Y004234D01*
X012160Y004251D01*
X012160Y005864D01*
X012119Y005905D01*
X012072Y006019D01*
X012072Y006141D01*
X012119Y006255D01*
X012205Y006341D01*
X012319Y006388D01*
X012441Y006388D01*
X012555Y006341D01*
X012641Y006255D01*
X012688Y006141D01*
X012688Y006019D01*
X012641Y005905D01*
X012600Y005864D01*
X012600Y005757D01*
X012636Y005843D01*
X012767Y005974D01*
X012938Y006045D01*
X013122Y006045D01*
X013200Y006013D01*
X012994Y006602D01*
X012955Y006619D01*
X012869Y006705D01*
X012822Y006819D01*
X012822Y006941D01*
X012869Y007055D01*
X012955Y007141D01*
X012992Y007157D01*
X012789Y007360D01*
X012596Y007360D01*
X012555Y007319D01*
X012441Y007272D01*
X012319Y007272D01*
X012205Y007319D01*
X012119Y007405D01*
X012072Y007519D01*
X012072Y007641D01*
X012119Y007755D01*
X012205Y007841D01*
X012319Y007888D01*
X012441Y007888D01*
X012555Y007841D01*
X012596Y007800D01*
X012971Y007800D01*
X013024Y007747D01*
X013069Y007855D01*
X013155Y007941D01*
X013269Y007988D01*
X013377Y007988D01*
X013460Y008071D01*
X013561Y008172D01*
X013518Y008215D01*
X013460Y008354D01*
X013460Y008506D01*
X013518Y008645D01*
X013625Y008752D01*
X013764Y008810D01*
X014396Y008810D01*
X014535Y008752D01*
X014642Y008645D01*
X014700Y008506D01*
X014700Y008354D01*
X014642Y008215D01*
X014627Y008200D01*
X014839Y008200D01*
X014910Y008271D01*
X015039Y008400D01*
X015186Y008400D01*
X015186Y008461D01*
X014988Y008461D01*
X014859Y008590D01*
X014827Y008622D01*
X014769Y008622D01*
X014655Y008669D01*
X014569Y008755D01*
X014522Y008869D01*
X014522Y008991D01*
X014569Y009105D01*
X014655Y009191D01*
X014769Y009238D01*
X014891Y009238D01*
X015005Y009191D01*
X015091Y009105D01*
X015138Y008991D01*
X015138Y008933D01*
X015170Y008901D01*
X015186Y008901D01*
X015186Y009054D01*
X015268Y009136D01*
X016092Y009136D01*
X016174Y009054D01*
X016174Y008400D01*
X016439Y008400D01*
X016460Y008421D01*
X016460Y008506D01*
X016518Y008645D01*
X016625Y008752D01*
X016764Y008810D01*
X017396Y008810D01*
X017535Y008752D01*
X017560Y008727D01*
X017560Y009133D01*
X017535Y009108D01*
X017396Y009050D01*
X016764Y009050D01*
X016625Y009108D01*
X016518Y009215D01*
X016460Y009354D01*
X016460Y009506D01*
X016518Y009645D01*
X016625Y009752D01*
X016764Y009810D01*
X017396Y009810D01*
X017535Y009752D01*
X017560Y009727D01*
X017560Y010133D01*
X017535Y010108D01*
X017396Y010050D01*
X016764Y010050D01*
X016625Y010108D01*
X016518Y010215D01*
X016460Y010354D01*
X016460Y010506D01*
X016518Y010645D01*
X016625Y010752D01*
X016764Y010810D01*
X017396Y010810D01*
X017535Y010752D01*
X017560Y010727D01*
X017560Y011085D01*
X017540Y011071D01*
X017481Y011041D01*
X017418Y011020D01*
X017353Y011010D01*
X017080Y011010D01*
X017080Y011430D01*
X017080Y011430D01*
X017080Y011850D01*
X017353Y011850D01*
X017418Y011840D01*
X017460Y011826D01*
X017460Y011871D01*
X017480Y011891D01*
X017480Y012085D01*
X017396Y012050D01*
X016764Y012050D01*
X016625Y012108D01*
X016518Y012215D01*
X016460Y012354D01*
X016460Y012448D01*
X016421Y012409D01*
X016421Y012409D01*
X016174Y012162D01*
X016174Y011606D01*
X016092Y011524D01*
X015268Y011524D01*
X015186Y011606D01*
X015186Y012352D01*
X015268Y012434D01*
X015824Y012434D01*
X016016Y012626D01*
X015268Y012626D01*
X015186Y012708D01*
X015186Y012861D01*
X014338Y012861D01*
X014149Y013050D01*
X013764Y013050D01*
X013625Y013108D01*
X013518Y013215D01*
X013460Y013354D01*
X013460Y013506D01*
X013518Y013645D01*
X013625Y013752D01*
X013764Y013810D01*
X014396Y013810D01*
X014535Y013752D01*
X014642Y013645D01*
X014700Y013506D01*
X014700Y013354D01*
X014678Y013301D01*
X015186Y013301D01*
X015186Y013454D01*
X015268Y013536D01*
X015488Y013536D01*
X015419Y013605D01*
X015372Y013719D01*
X015372Y013841D01*
X015419Y013955D01*
X015460Y013996D01*
X015460Y014924D01*
X015268Y014924D01*
X015243Y014948D01*
X015227Y014942D01*
X015185Y014960D01*
X015139Y014960D01*
X015104Y014994D01*
X015060Y015014D01*
X015043Y015056D01*
X015010Y015089D01*
X015010Y015138D01*
X014957Y015271D01*
X014950Y015274D01*
X014950Y015274D01*
X014950Y014221D01*
X014983Y014188D01*
X015041Y014188D01*
X015155Y014141D01*
X015241Y014055D01*
X015288Y013941D01*
X015288Y013819D01*
X015241Y013705D01*
X015155Y013619D01*
X015041Y013572D01*
X014919Y013572D01*
X014805Y013619D01*
X014719Y013705D01*
X014672Y013819D01*
X014672Y013877D01*
X014510Y014039D01*
X014510Y014097D01*
X014396Y014050D01*
X013764Y014050D01*
X013625Y014108D01*
X013518Y014215D01*
X013460Y014354D01*
X013460Y014506D01*
X013518Y014645D01*
X013625Y014752D01*
X013764Y014810D01*
X014396Y014810D01*
X014510Y014763D01*
X014510Y015097D01*
X014396Y015050D01*
X013764Y015050D01*
X013625Y015108D01*
X013523Y015210D01*
X013521Y015210D01*
X013400Y015089D01*
X013400Y009589D01*
X013271Y009460D01*
X013089Y009460D01*
X013069Y009480D01*
X011117Y009480D01*
X010900Y009119D01*
X010900Y009089D01*
X010855Y009044D01*
X010822Y008989D01*
X010792Y008981D01*
X010771Y008960D01*
X010707Y008960D01*
X010645Y008944D01*
X010619Y008960D01*
X008271Y008960D01*
X008150Y008839D01*
X008150Y004491D01*
X008219Y004462D01*
X008362Y004319D01*
X008430Y004156D01*
X008498Y004319D01*
X008641Y004462D01*
X008710Y004491D01*
X008710Y008221D01*
X008839Y008350D01*
X008839Y008350D01*
X009110Y008621D01*
X009110Y008621D01*
X009239Y008750D01*
X010264Y008750D01*
X010305Y008791D01*
X010419Y008838D01*
X010541Y008838D01*
X010655Y008791D01*
X010741Y008705D01*
X010788Y008591D01*
X010788Y008469D01*
X010741Y008355D01*
X010655Y008269D01*
X010541Y008222D01*
X010419Y008222D01*
X010305Y008269D01*
X010264Y008310D01*
X009421Y008310D01*
X009150Y008039D01*
X009150Y004491D01*
X009219Y004462D01*
X009362Y004319D01*
X009440Y004131D01*
X009440Y003929D01*
X009362Y003741D01*
X009219Y003598D01*
X009031Y003520D01*
X008829Y003520D01*
X008641Y003598D01*
X008498Y003741D01*
X008430Y003904D01*
X008362Y003741D01*
X008219Y003598D01*
X008031Y003520D01*
X007829Y003520D01*
X007641Y003598D01*
X007498Y003741D01*
X007430Y003904D01*
X007362Y003741D01*
X007219Y003598D01*
X007031Y003520D01*
X006829Y003520D01*
X006641Y003598D01*
X006498Y003741D01*
X006430Y003904D01*
X006362Y003741D01*
X006219Y003598D01*
X006031Y003520D01*
X005829Y003520D01*
X005641Y003598D01*
X005498Y003741D01*
X005430Y003904D01*
X005362Y003741D01*
X005219Y003598D01*
X005031Y003520D01*
X004829Y003520D01*
X004641Y003598D01*
X004498Y003741D01*
X004451Y003854D01*
X004440Y003819D01*
X004400Y003742D01*
X004350Y003672D01*
X004288Y003610D01*
X004218Y003560D01*
X004141Y003520D01*
X004059Y003494D01*
X003973Y003480D01*
X003950Y003480D01*
X003950Y004010D01*
X003910Y004010D01*
X003910Y003480D01*
X003887Y003480D01*
X003801Y003494D01*
X003719Y003520D01*
X003642Y003560D01*
X003572Y003610D01*
X003510Y003672D01*
X003460Y003742D01*
X003420Y003819D01*
X003394Y003901D01*
X003380Y003987D01*
X003380Y004010D01*
X003910Y004010D01*
X003910Y004050D01*
X003910Y004580D01*
X003887Y004580D01*
X003801Y004566D01*
X003719Y004540D01*
X003642Y004500D01*
X003572Y004450D01*
X003510Y004388D01*
X003460Y004318D01*
X003420Y004241D01*
X003394Y004159D01*
X003380Y004073D01*
X003380Y004050D01*
X003910Y004050D01*
X003950Y004050D01*
X003950Y004580D01*
X003973Y004580D01*
X004059Y004566D01*
X004141Y004540D01*
X004218Y004500D01*
X004288Y004450D01*
X004350Y004388D01*
X004400Y004318D01*
X004440Y004241D01*
X004451Y004206D01*
X004498Y004319D01*
X004641Y004462D01*
X004829Y004540D01*
X005031Y004540D01*
X005219Y004462D01*
X005362Y004319D01*
X005430Y004156D01*
X005498Y004319D01*
X005641Y004462D01*
X005829Y004540D01*
X006031Y004540D01*
X006219Y004462D01*
X006362Y004319D01*
X006430Y004156D01*
X006498Y004319D01*
X006641Y004462D01*
X006710Y004491D01*
X006710Y009521D01*
X006949Y009760D01*
X004839Y009760D01*
X004710Y009889D01*
X004710Y009889D01*
X004563Y010036D01*
X004208Y010036D01*
X004126Y010118D01*
X004126Y010942D01*
X004208Y011024D01*
X004360Y011024D01*
X004360Y013589D01*
X004189Y013760D01*
X001789Y013760D01*
X001660Y013889D01*
X001260Y014289D01*
X001260Y014665D01*
X001097Y014665D01*
X001015Y014747D01*
X001015Y015513D01*
X001097Y015595D01*
X001863Y015595D01*
X001945Y015513D01*
X001945Y014747D01*
X001863Y014665D01*
X001700Y014665D01*
X001700Y014471D01*
X001971Y014200D01*
X003403Y014200D01*
X003317Y014236D01*
X003186Y014367D01*
X003115Y014538D01*
X003115Y014722D01*
X003186Y014893D01*
X003317Y015024D01*
X003488Y015095D01*
X003672Y015095D01*
X003843Y015024D01*
X003974Y014893D01*
X003984Y014869D01*
X004010Y014903D01*
X004010Y015363D01*
X003965Y015301D01*
X003909Y015245D01*
X003845Y015198D01*
X003774Y015162D01*
X003698Y015137D01*
X003620Y015125D01*
X003580Y015125D01*
X003580Y015630D01*
X003580Y015630D01*
X003580Y016135D01*
X003620Y016135D01*
X003698Y016123D01*
X003774Y016098D01*
X003845Y016062D01*
X003909Y016015D01*
X003965Y015959D01*
X004010Y015897D01*
X004010Y016463D01*
X003965Y016401D01*
X003909Y016345D01*
X003845Y016298D01*
X003774Y016262D01*
X003698Y016237D01*
X003620Y016225D01*
X003580Y016225D01*
X003580Y016730D01*
X003580Y016730D01*
X003580Y017235D01*
X003620Y017235D01*
X003698Y017223D01*
X003774Y017198D01*
X003845Y017162D01*
X003909Y017115D01*
X003965Y017059D01*
X004012Y016995D01*
X004048Y016924D01*
X004073Y016848D01*
X004085Y016770D01*
X004085Y016730D01*
X003580Y016730D01*
X003580Y016730D01*
X003580Y016730D01*
X003580Y016730D01*
X003075Y016730D01*
X003075Y016770D01*
X003087Y016848D01*
X003112Y016924D01*
X003148Y016995D01*
X003195Y017059D01*
X003251Y017115D01*
X003315Y017162D01*
X003386Y017198D01*
X003462Y017223D01*
X003540Y017235D01*
X003580Y017235D01*
X003580Y016730D01*
X004085Y016730D01*
X004085Y016690D01*
X004073Y016612D01*
X004048Y016536D01*
X004020Y016481D01*
X004139Y016600D01*
X006268Y016600D01*
X006367Y016699D01*
X006505Y016756D01*
X006655Y016756D01*
X006793Y016699D01*
X006899Y016593D01*
X006956Y016455D01*
X006956Y016305D01*
X006899Y016167D01*
X006793Y016061D01*
X006655Y016004D01*
X006505Y016004D01*
X006367Y016061D01*
X006268Y016160D01*
X004450Y016160D01*
X004450Y014846D01*
X004461Y014771D01*
X004450Y014757D01*
X004450Y014739D01*
X004397Y014685D01*
X004300Y014557D01*
X004300Y014539D01*
X004247Y014485D01*
X004201Y014425D01*
X004184Y014423D01*
X004171Y014410D01*
X004096Y014410D01*
X004021Y014399D01*
X004007Y014410D01*
X003992Y014410D01*
X003974Y014367D01*
X003843Y014236D01*
X003757Y014200D01*
X004371Y014200D01*
X004671Y013900D01*
X004800Y013771D01*
X004800Y011024D01*
X004954Y011024D01*
X005036Y010942D01*
X005036Y010200D01*
X005319Y010200D01*
X005208Y010311D01*
X005130Y010499D01*
X005130Y010701D01*
X005208Y010889D01*
X005351Y011032D01*
X005539Y011110D01*
X005741Y011110D01*
X005929Y011032D01*
X006072Y010889D01*
X006150Y010701D01*
X006150Y010499D01*
X006072Y010311D01*
X005961Y010200D01*
X007099Y010200D01*
X006988Y010311D01*
X006910Y010499D01*
X006910Y010701D01*
X006988Y010889D01*
X007131Y011032D01*
X007319Y011110D01*
X007521Y011110D01*
X007709Y011032D01*
X007852Y010889D01*
X007930Y010701D01*
X007930Y010499D01*
X007852Y010311D01*
X007741Y010200D01*
X008260Y010200D01*
X008260Y010271D01*
X008389Y010400D01*
X009110Y011121D01*
X009110Y012171D01*
X009239Y012300D01*
X009673Y012734D01*
X009641Y012748D01*
X009498Y012891D01*
X009440Y013030D01*
X009440Y012752D01*
X009358Y012670D01*
X008502Y012670D01*
X008420Y012752D01*
X008420Y013608D01*
X008502Y013690D01*
X009358Y013690D01*
X009440Y013608D01*
X009440Y013330D01*
X009498Y013469D01*
X009641Y013612D01*
X009829Y013690D01*
X010031Y013690D01*
X010210Y013616D01*
X010210Y013744D01*
X009750Y013974D01*
X009692Y014147D01*
X009730Y014222D01*
X009730Y014390D01*
X009719Y014378D01*
X009509Y014291D01*
X009282Y014291D01*
X009073Y014378D01*
X008913Y014539D01*
X008904Y014560D01*
X008895Y014539D01*
X008734Y014378D01*
X008525Y014291D01*
X008298Y014291D01*
X008089Y014378D01*
X007928Y014539D01*
X007841Y014748D01*
X007841Y014975D01*
X007928Y015184D01*
X008089Y015345D01*
X008298Y015431D01*
X008525Y015431D01*
X008734Y015345D01*
X008895Y015184D01*
X008904Y015163D01*
X008913Y015184D01*
X009073Y015345D01*
X009282Y015431D01*
X009509Y015431D01*
X009719Y015345D01*
X009730Y015333D01*
X009730Y015516D01*
X009652Y015594D01*
X009602Y015715D01*
X009602Y015845D01*
X009652Y015966D01*
X009744Y016058D01*
X009865Y016108D01*
X009995Y016108D01*
X010116Y016058D01*
X010208Y015966D01*
X010258Y015845D01*
X010258Y015715D01*
X010208Y015594D01*
X010130Y015516D01*
X010130Y015263D01*
X010287Y015328D01*
X010473Y015328D01*
X010644Y015257D01*
X010775Y015126D01*
X010816Y015027D01*
X010881Y015184D01*
X011041Y015345D01*
X011251Y015431D01*
X011478Y015431D01*
X011687Y015345D01*
X011847Y015184D01*
X011856Y015163D01*
X011865Y015184D01*
X012026Y015345D01*
X012235Y015431D01*
X012462Y015431D01*
X012671Y015345D01*
X012832Y015184D01*
X012919Y014975D01*
X012919Y014748D01*
X012832Y014539D01*
X012671Y014378D01*
X012462Y014291D01*
X012235Y014291D01*
X012026Y014378D01*
X011865Y014539D01*
X011856Y014560D01*
X011847Y014539D01*
X011687Y014378D01*
X011478Y014291D01*
X011251Y014291D01*
X011041Y014378D01*
X010881Y014539D01*
X010816Y014696D01*
X010775Y014597D01*
X010644Y014466D01*
X010473Y014395D01*
X010287Y014395D01*
X010130Y014460D01*
X010130Y014276D01*
X010482Y014100D01*
X010521Y014100D01*
X010560Y014061D01*
X010610Y014036D01*
X010622Y013999D01*
X010650Y013971D01*
X010650Y013916D01*
X010668Y013863D01*
X010650Y013828D01*
X010650Y013616D01*
X010829Y013690D01*
X011031Y013690D01*
X011219Y013612D01*
X011362Y013469D01*
X011430Y013306D01*
X011498Y013469D01*
X011641Y013612D01*
X011829Y013690D01*
X012031Y013690D01*
X012219Y013612D01*
X012362Y013469D01*
X012440Y013281D01*
X012440Y013079D01*
X012362Y012891D01*
X012219Y012748D01*
X012150Y012719D01*
X012150Y012139D01*
X012138Y012127D01*
X012138Y012069D01*
X012132Y012053D01*
X012141Y012062D01*
X012329Y012140D01*
X012531Y012140D01*
X012719Y012062D01*
X012862Y011919D01*
X012940Y011731D01*
X012940Y011529D01*
X012862Y011341D01*
X012719Y011198D01*
X012556Y011130D01*
X012719Y011062D01*
X012862Y010919D01*
X012940Y010731D01*
X012940Y010529D01*
X012862Y010341D01*
X012719Y010198D01*
X012531Y010120D01*
X012329Y010120D01*
X012205Y010171D01*
X012238Y010091D01*
X012238Y009969D01*
X012202Y009880D01*
X012960Y009880D01*
X012960Y015271D01*
X013089Y015400D01*
X013339Y015650D01*
X013523Y015650D01*
X013625Y015752D01*
X013764Y015810D01*
X014396Y015810D01*
X014427Y015797D01*
X014419Y015805D01*
X014372Y015919D01*
X014372Y016041D01*
X014375Y016050D01*
X013764Y016050D01*
X013625Y016108D01*
X013518Y016215D01*
X013460Y016354D01*
X013460Y016506D01*
X013518Y016645D01*
X013625Y016752D01*
X013764Y016810D01*
X014396Y016810D01*
X014535Y016752D01*
X014642Y016645D01*
X014700Y016506D01*
X014700Y016354D01*
X014673Y016288D01*
X014741Y016288D01*
X014855Y016241D01*
X014941Y016155D01*
X014988Y016041D01*
X014988Y015919D01*
X014967Y015867D01*
X015019Y015888D01*
X015141Y015888D01*
X015255Y015841D01*
X015265Y015831D01*
X015268Y015834D01*
X016092Y015834D01*
X016160Y015766D01*
X016160Y015941D01*
X016075Y016026D01*
X015268Y016026D01*
X015186Y016108D01*
X015186Y016664D01*
X014640Y017210D01*
X014637Y017210D01*
X014535Y017108D01*
X014396Y017050D01*
X013764Y017050D01*
X013625Y017108D01*
X013518Y017215D01*
X013460Y017354D01*
X013460Y017506D01*
X013518Y017645D01*
X013625Y017752D01*
X013764Y017810D01*
X014396Y017810D01*
X014535Y017752D01*
X014637Y017650D01*
X014822Y017650D01*
X015536Y016936D01*
X016075Y016936D01*
X016160Y017021D01*
X016289Y017150D01*
X016583Y017150D01*
X016518Y017215D01*
X016460Y017354D01*
X016460Y017506D01*
X016518Y017645D01*
X016625Y017752D01*
X016764Y017810D01*
X017396Y017810D01*
X017535Y017752D01*
X017642Y017645D01*
X017700Y017506D01*
X017700Y017354D01*
X017642Y017215D01*
X017577Y017150D01*
X017789Y017150D01*
X017971Y017332D01*
X017936Y017367D01*
X017865Y017538D01*
X017865Y017722D01*
X017936Y017893D01*
X018067Y018024D01*
X018153Y018060D01*
X012751Y018060D01*
X012815Y017907D01*
X012815Y017722D01*
X012744Y017550D01*
X012613Y017419D01*
X012441Y017348D01*
X012256Y017348D01*
X012084Y017419D01*
X011953Y017550D01*
X011882Y017722D01*
X011882Y017907D01*
X011946Y018060D01*
X008814Y018060D01*
X008878Y017907D01*
X008878Y017722D01*
X008807Y017550D01*
X008676Y017419D01*
X008504Y017348D01*
X008319Y017348D01*
X008147Y017419D01*
X008016Y017550D01*
X007945Y017722D01*
X007945Y017907D01*
X008009Y018060D01*
X003908Y018060D01*
X003974Y017993D01*
X004045Y017822D01*
X004045Y017638D01*
X003974Y017467D01*
X003843Y017336D01*
X003672Y017265D01*
X003488Y017265D01*
X003317Y017336D01*
X003186Y017467D01*
X003115Y017638D01*
X003115Y017822D01*
X003186Y017993D01*
X003252Y018060D01*
X001000Y018060D01*
X001000Y017654D01*
X001048Y017769D01*
X001191Y017912D01*
X001379Y017990D01*
X001581Y017990D01*
X001769Y017912D01*
X001912Y017769D01*
X001959Y017656D01*
X001970Y017691D01*
X002010Y017768D01*
X002060Y017838D01*
X002122Y017900D01*
X002192Y017950D01*
X002269Y017990D01*
X002351Y018016D01*
X002437Y018030D01*
X002480Y018030D01*
X002480Y017480D01*
X002480Y017480D01*
X003030Y017480D01*
X003030Y017523D01*
X003016Y017609D01*
X002990Y017691D01*
X002950Y017768D01*
X002900Y017838D01*
X002838Y017900D01*
X002768Y017950D01*
X002691Y017990D01*
X002609Y018016D01*
X002523Y018030D01*
X002480Y018030D01*
X002480Y017480D01*
X002480Y017480D01*
X003030Y017480D01*
X003030Y017437D01*
X003016Y017351D01*
X002990Y017269D01*
X002950Y017192D01*
X002900Y017122D01*
X002838Y017060D01*
X002768Y017010D01*
X002691Y016970D01*
X002609Y016944D01*
X002523Y016930D01*
X002480Y016930D01*
X002480Y017480D01*
X002480Y017480D01*
X002480Y016930D01*
X002449Y016930D01*
X002490Y016831D01*
X002490Y016629D01*
X002412Y016441D01*
X002269Y016298D01*
X002081Y016220D01*
X001879Y016220D01*
X001691Y016298D01*
X001548Y016441D01*
X001470Y016629D01*
X001470Y016831D01*
X001527Y016970D01*
X001379Y016970D01*
X001191Y017048D01*
X001048Y017191D01*
X001000Y017306D01*
X001000Y012626D01*
X001084Y012828D01*
X001332Y013076D01*
X001655Y013210D01*
X002005Y013210D01*
X002328Y013076D01*
X002576Y012828D01*
X002710Y012505D01*
X002710Y012155D01*
X002576Y011832D01*
X002328Y011584D01*
X002005Y011450D01*
X001655Y011450D01*
X001332Y011584D01*
X001084Y011832D01*
X001000Y012034D01*
X001000Y003926D01*
X001084Y004128D01*
X001332Y004376D01*
X001655Y004510D01*
X002005Y004510D01*
X002328Y004376D01*
X002576Y004128D01*
X002710Y003805D01*
X002710Y003455D01*
X002576Y003132D01*
X002328Y002884D01*
X002005Y002750D01*
X001655Y002750D01*
X001332Y002884D01*
X001084Y003132D01*
X001000Y003334D01*
X001000Y003216D02*
X001049Y003216D01*
X001000Y003058D02*
X001158Y003058D01*
X001000Y002899D02*
X001316Y002899D01*
X001000Y002741D02*
X013258Y002741D01*
X013100Y002899D02*
X002344Y002899D01*
X002502Y003058D02*
X012941Y003058D01*
X012880Y003430D02*
X013380Y002930D01*
X014480Y002930D01*
X014107Y002582D02*
X001000Y002582D01*
X001000Y002424D02*
X014252Y002424D01*
X014094Y002265D02*
X001000Y002265D01*
X001000Y002107D02*
X013970Y002107D01*
X013970Y001948D02*
X001000Y001948D01*
X001000Y001790D02*
X013970Y001790D01*
X014058Y001631D02*
X001000Y001631D01*
X001000Y001473D02*
X014216Y001473D01*
X014744Y001473D02*
X015216Y001473D01*
X015058Y001631D02*
X014902Y001631D01*
X015744Y001473D02*
X016216Y001473D01*
X016058Y001631D02*
X015902Y001631D01*
X016480Y001930D02*
X016930Y001930D01*
X017630Y002680D01*
X017630Y004130D01*
X017780Y004230D01*
X017780Y011680D01*
X017680Y011780D01*
X017880Y011934D02*
X018092Y011934D01*
X018134Y011832D02*
X018382Y011584D01*
X018705Y011450D01*
X019055Y011450D01*
X019378Y011584D01*
X019626Y011832D01*
X019760Y012155D01*
X019760Y012505D01*
X019626Y012828D01*
X019378Y013076D01*
X019055Y013210D01*
X018705Y013210D01*
X018382Y013076D01*
X018134Y012828D01*
X018000Y012505D01*
X018000Y012155D01*
X018134Y011832D01*
X018190Y011775D02*
X017996Y011775D01*
X018000Y011617D02*
X018349Y011617D01*
X018686Y011458D02*
X018000Y011458D01*
X018000Y011300D02*
X018141Y011300D01*
X018330Y011300D02*
X018330Y011300D01*
X018330Y011141D02*
X018330Y011141D01*
X018330Y010983D02*
X018330Y010983D01*
X018330Y010824D02*
X018330Y010824D01*
X018330Y010666D02*
X018330Y010666D01*
X018330Y010507D02*
X018330Y010507D01*
X018330Y010349D02*
X018330Y010349D01*
X018482Y010349D02*
X019760Y010349D01*
X019760Y010507D02*
X019665Y010507D01*
X019760Y010190D02*
X018000Y010190D01*
X018000Y010032D02*
X019760Y010032D01*
X019760Y009873D02*
X018000Y009873D01*
X018000Y009715D02*
X019760Y009715D01*
X019760Y009556D02*
X019017Y009556D01*
X019093Y009524D02*
X018922Y009595D01*
X018738Y009595D01*
X018567Y009524D01*
X018436Y009393D01*
X018365Y009222D01*
X018365Y009038D01*
X018436Y008867D01*
X018567Y008736D01*
X018738Y008665D01*
X018922Y008665D01*
X019093Y008736D01*
X019224Y008867D01*
X019295Y009038D01*
X019295Y009222D01*
X019224Y009393D01*
X019093Y009524D01*
X019220Y009398D02*
X019760Y009398D01*
X019760Y009239D02*
X019288Y009239D01*
X019295Y009081D02*
X019760Y009081D01*
X019760Y008922D02*
X019247Y008922D01*
X019121Y008764D02*
X019760Y008764D01*
X019760Y008605D02*
X018000Y008605D01*
X018000Y008447D02*
X019760Y008447D01*
X019760Y008288D02*
X018000Y008288D01*
X018000Y008130D02*
X019760Y008130D01*
X019760Y007971D02*
X018000Y007971D01*
X018000Y007813D02*
X019760Y007813D01*
X019760Y007654D02*
X018000Y007654D01*
X018000Y007496D02*
X018538Y007496D01*
X018567Y007524D02*
X018436Y007393D01*
X018365Y007222D01*
X018365Y007038D01*
X018436Y006867D01*
X018567Y006736D01*
X018738Y006665D01*
X018922Y006665D01*
X019093Y006736D01*
X019224Y006867D01*
X019295Y007038D01*
X019295Y007222D01*
X019224Y007393D01*
X019093Y007524D01*
X018922Y007595D01*
X018738Y007595D01*
X018567Y007524D01*
X018412Y007337D02*
X018000Y007337D01*
X018000Y007179D02*
X018365Y007179D01*
X018372Y007020D02*
X018000Y007020D01*
X018000Y006862D02*
X018441Y006862D01*
X018646Y006703D02*
X018000Y006703D01*
X018000Y006545D02*
X019760Y006545D01*
X019760Y006703D02*
X019014Y006703D01*
X019219Y006862D02*
X019760Y006862D01*
X019760Y007020D02*
X019288Y007020D01*
X019295Y007179D02*
X019760Y007179D01*
X019760Y007337D02*
X019248Y007337D01*
X019122Y007496D02*
X019760Y007496D01*
X019760Y006386D02*
X018000Y006386D01*
X018000Y006228D02*
X019760Y006228D01*
X019760Y006069D02*
X018000Y006069D01*
X018000Y005911D02*
X019760Y005911D01*
X019760Y005752D02*
X019526Y005752D01*
X019724Y005594D02*
X019760Y005594D01*
X019745Y005118D02*
X019760Y005118D01*
X019760Y004960D02*
X019617Y004960D01*
X019760Y004801D02*
X018000Y004801D01*
X018000Y004643D02*
X019760Y004643D01*
X019760Y004484D02*
X019118Y004484D01*
X019055Y004510D02*
X018705Y004510D01*
X018382Y004376D01*
X018134Y004128D01*
X018000Y003805D01*
X018000Y003455D01*
X018134Y003132D01*
X018382Y002884D01*
X018705Y002750D01*
X019055Y002750D01*
X019378Y002884D01*
X019626Y003132D01*
X019760Y003455D01*
X019760Y003805D01*
X019626Y004128D01*
X019378Y004376D01*
X019055Y004510D01*
X018642Y004484D02*
X018000Y004484D01*
X018000Y004326D02*
X018331Y004326D01*
X018172Y004167D02*
X018000Y004167D01*
X018084Y004009D02*
X017850Y004009D01*
X017850Y003850D02*
X018019Y003850D01*
X018000Y003692D02*
X017850Y003692D01*
X017850Y003533D02*
X018000Y003533D01*
X018033Y003375D02*
X017850Y003375D01*
X017850Y003216D02*
X018099Y003216D01*
X018208Y003058D02*
X017850Y003058D01*
X017850Y002899D02*
X018366Y002899D01*
X017850Y002741D02*
X019760Y002741D01*
X019760Y002899D02*
X019394Y002899D01*
X019552Y003058D02*
X019760Y003058D01*
X019760Y003216D02*
X019661Y003216D01*
X019727Y003375D02*
X019760Y003375D01*
X019760Y003533D02*
X019760Y003533D01*
X019760Y003692D02*
X019760Y003692D01*
X019760Y003850D02*
X019741Y003850D01*
X019760Y004009D02*
X019676Y004009D01*
X019760Y004167D02*
X019588Y004167D01*
X019429Y004326D02*
X019760Y004326D01*
X019043Y004960D02*
X018674Y004960D01*
X018789Y005118D02*
X018914Y005118D01*
X018865Y005277D02*
X018833Y005277D01*
X018825Y005435D02*
X018870Y005435D01*
X018936Y005594D02*
X018763Y005594D01*
X018608Y005752D02*
X019134Y005752D01*
X018330Y005752D02*
X018330Y005752D01*
X018330Y005594D02*
X018330Y005594D01*
X018330Y005435D02*
X018330Y005435D01*
X018330Y005277D02*
X018330Y005277D01*
X018330Y005118D02*
X018330Y005118D01*
X018330Y004960D02*
X018330Y004960D01*
X018052Y005752D02*
X018000Y005752D01*
X017080Y006430D02*
X016580Y006930D01*
X013530Y006930D01*
X012880Y007580D01*
X012380Y007580D01*
X012573Y007337D02*
X012812Y007337D01*
X012970Y007179D02*
X011269Y007179D01*
X011282Y007020D02*
X012854Y007020D01*
X012822Y006862D02*
X011296Y006862D01*
X011310Y006703D02*
X012871Y006703D01*
X013014Y006545D02*
X011324Y006545D01*
X011338Y006386D02*
X012313Y006386D01*
X012447Y006386D02*
X013070Y006386D01*
X013125Y006228D02*
X012653Y006228D01*
X012688Y006069D02*
X013181Y006069D01*
X013480Y005880D02*
X013130Y006880D01*
X013330Y007680D02*
X013380Y007680D01*
X013680Y007980D01*
X014930Y007980D01*
X015130Y008180D01*
X016530Y008180D01*
X016780Y008430D01*
X017080Y008430D01*
X016652Y008764D02*
X016174Y008764D01*
X016174Y008922D02*
X017560Y008922D01*
X017560Y008764D02*
X017508Y008764D01*
X017469Y009081D02*
X017560Y009081D01*
X018000Y009081D02*
X018365Y009081D01*
X018372Y009239D02*
X018000Y009239D01*
X018000Y009398D02*
X018440Y009398D01*
X018643Y009556D02*
X018000Y009556D01*
X017560Y009873D02*
X013400Y009873D01*
X013430Y009780D02*
X014080Y010430D01*
X014080Y010430D01*
X014080Y010850D01*
X014353Y010850D01*
X014418Y010840D01*
X014481Y010819D01*
X014540Y010789D01*
X014594Y010750D01*
X014640Y010704D01*
X014679Y010650D01*
X014709Y010591D01*
X014730Y010528D01*
X014740Y010463D01*
X014740Y010430D01*
X014080Y010430D01*
X014080Y010430D01*
X014080Y010010D01*
X014353Y010010D01*
X014418Y010020D01*
X014481Y010041D01*
X014540Y010071D01*
X014594Y010110D01*
X014640Y010156D01*
X014679Y010210D01*
X014709Y010269D01*
X014730Y010332D01*
X014740Y010397D01*
X014740Y010430D01*
X014080Y010430D01*
X014080Y010430D01*
X014080Y010430D01*
X013420Y010430D01*
X013420Y010463D01*
X013430Y010528D01*
X013451Y010591D01*
X013481Y010650D01*
X013520Y010704D01*
X013566Y010750D01*
X013620Y010789D01*
X013679Y010819D01*
X013742Y010840D01*
X013807Y010850D01*
X014080Y010850D01*
X014080Y010430D01*
X014080Y010010D01*
X013807Y010010D01*
X013742Y010020D01*
X013679Y010041D01*
X013620Y010071D01*
X013566Y010110D01*
X013520Y010156D01*
X013481Y010210D01*
X013451Y010269D01*
X013430Y010332D01*
X013420Y010397D01*
X013420Y010430D01*
X014080Y010430D01*
X014080Y010507D02*
X014080Y010507D01*
X014080Y010349D02*
X014080Y010349D01*
X014080Y010190D02*
X014080Y010190D01*
X014080Y010032D02*
X014080Y010032D01*
X013707Y010032D02*
X013400Y010032D01*
X013400Y010190D02*
X013495Y010190D01*
X013428Y010349D02*
X013400Y010349D01*
X013400Y010507D02*
X013427Y010507D01*
X013400Y010666D02*
X013492Y010666D01*
X013400Y010824D02*
X013694Y010824D01*
X013764Y011050D02*
X013625Y011108D01*
X013518Y011215D01*
X013460Y011354D01*
X013460Y011506D01*
X013518Y011645D01*
X013625Y011752D01*
X013764Y011810D01*
X014396Y011810D01*
X014535Y011752D01*
X014642Y011645D01*
X014700Y011506D01*
X014700Y011354D01*
X014642Y011215D01*
X014535Y011108D01*
X014396Y011050D01*
X013764Y011050D01*
X013592Y011141D02*
X013400Y011141D01*
X013400Y010983D02*
X017560Y010983D01*
X017560Y010824D02*
X014466Y010824D01*
X014668Y010666D02*
X016538Y010666D01*
X016461Y010507D02*
X014733Y010507D01*
X014732Y010349D02*
X016462Y010349D01*
X016543Y010190D02*
X014665Y010190D01*
X014453Y010032D02*
X017560Y010032D01*
X018000Y010349D02*
X018178Y010349D01*
X018720Y010507D02*
X018995Y010507D01*
X018895Y010666D02*
X018808Y010666D01*
X018835Y010824D02*
X018865Y010824D01*
X018890Y010983D02*
X018811Y010983D01*
X018728Y011141D02*
X018983Y011141D01*
X019074Y011458D02*
X019760Y011458D01*
X019760Y011300D02*
X018519Y011300D01*
X018026Y012092D02*
X017880Y012092D01*
X017880Y012251D02*
X018000Y012251D01*
X018000Y012409D02*
X017880Y012409D01*
X017880Y012568D02*
X018026Y012568D01*
X018092Y012726D02*
X017880Y012726D01*
X017880Y012885D02*
X018190Y012885D01*
X018349Y013043D02*
X017880Y013043D01*
X017880Y013202D02*
X018684Y013202D01*
X019076Y013202D02*
X019760Y013202D01*
X019760Y013360D02*
X017880Y013360D01*
X017880Y013519D02*
X019760Y013519D01*
X019760Y013677D02*
X017880Y013677D01*
X017880Y013836D02*
X019760Y013836D01*
X019760Y013994D02*
X017880Y013994D01*
X017880Y014153D02*
X019760Y014153D01*
X019760Y014311D02*
X017880Y014311D01*
X017880Y014470D02*
X019760Y014470D01*
X019760Y014628D02*
X017880Y014628D01*
X017898Y014787D02*
X019760Y014787D01*
X019760Y014945D02*
X017900Y014945D01*
X017680Y014880D02*
X016430Y014880D01*
X016380Y014930D01*
X016380Y016032D01*
X015931Y016481D01*
X016380Y016930D01*
X017880Y016930D01*
X018330Y017380D01*
X018330Y017630D01*
X017999Y017957D02*
X012794Y017957D01*
X012815Y017798D02*
X013736Y017798D01*
X013515Y017640D02*
X012781Y017640D01*
X012675Y017481D02*
X013460Y017481D01*
X013473Y017323D02*
X010740Y017323D01*
X010777Y017295D02*
X010700Y017352D01*
X010614Y017395D01*
X010523Y017425D01*
X010428Y017440D01*
X010428Y017440D01*
X010428Y016878D01*
X010332Y016878D01*
X010332Y017440D01*
X010237Y017425D01*
X010146Y017395D01*
X010060Y017352D01*
X009983Y017295D01*
X009915Y017227D01*
X009858Y017150D01*
X009815Y017064D01*
X009785Y016973D01*
X009770Y016878D01*
X009770Y016878D01*
X010332Y016878D01*
X010332Y016782D01*
X009770Y016782D01*
X009785Y016687D01*
X009815Y016596D01*
X009858Y016510D01*
X009915Y016433D01*
X009983Y016365D01*
X010060Y016308D01*
X010146Y016265D01*
X010237Y016235D01*
X010332Y016220D01*
X010332Y016220D01*
X010332Y016782D01*
X010428Y016782D01*
X010428Y016878D01*
X010990Y016878D01*
X010975Y016973D01*
X010945Y017064D01*
X010902Y017150D01*
X010845Y017227D01*
X010777Y017295D01*
X010891Y017164D02*
X012023Y017164D01*
X012084Y017225D02*
X011953Y017094D01*
X011882Y016923D01*
X011882Y016737D01*
X011953Y016566D01*
X012084Y016435D01*
X012256Y016364D01*
X012441Y016364D01*
X012613Y016435D01*
X012744Y016566D01*
X012815Y016737D01*
X012815Y016923D01*
X012744Y017094D01*
X012613Y017225D01*
X012441Y017296D01*
X012256Y017296D01*
X012084Y017225D01*
X012022Y017481D02*
X008738Y017481D01*
X008844Y017640D02*
X011916Y017640D01*
X011882Y017798D02*
X008878Y017798D01*
X008857Y017957D02*
X011903Y017957D01*
X011917Y017006D02*
X010964Y017006D01*
X010990Y016878D02*
X010990Y016878D01*
X010990Y016782D02*
X010428Y016782D01*
X010428Y016220D01*
X010523Y016235D01*
X010614Y016265D01*
X010700Y016308D01*
X010777Y016365D01*
X010845Y016433D01*
X010902Y016510D01*
X010945Y016596D01*
X010975Y016687D01*
X010990Y016782D01*
X010990Y016782D01*
X010975Y016689D02*
X011902Y016689D01*
X011882Y016847D02*
X010428Y016847D01*
X010332Y016847D02*
X008878Y016847D01*
X008878Y016923D02*
X008807Y017094D01*
X008676Y017225D01*
X008504Y017296D01*
X008319Y017296D01*
X008147Y017225D01*
X008016Y017094D01*
X007945Y016923D01*
X007945Y016737D01*
X008016Y016566D01*
X008147Y016435D01*
X008319Y016364D01*
X008504Y016364D01*
X008676Y016435D01*
X008807Y016566D01*
X008878Y016737D01*
X008878Y016923D01*
X008843Y017006D02*
X009796Y017006D01*
X009869Y017164D02*
X008737Y017164D01*
X008858Y016689D02*
X009785Y016689D01*
X009770Y016782D02*
X009770Y016782D01*
X009848Y016530D02*
X008771Y016530D01*
X008523Y016372D02*
X009976Y016372D01*
X010119Y016055D02*
X013753Y016055D01*
X013520Y016213D02*
X006918Y016213D01*
X006956Y016372D02*
X008300Y016372D01*
X008052Y016530D02*
X006925Y016530D01*
X006804Y016689D02*
X007965Y016689D01*
X007945Y016847D02*
X004073Y016847D01*
X004085Y016689D02*
X006356Y016689D01*
X006580Y016380D02*
X004230Y016380D01*
X004230Y014830D01*
X004080Y014630D01*
X003580Y014630D01*
X003241Y014311D02*
X001860Y014311D01*
X001702Y014470D02*
X003143Y014470D01*
X003115Y014628D02*
X002539Y014628D01*
X002520Y014625D02*
X002598Y014637D01*
X002674Y014662D01*
X002745Y014698D01*
X002809Y014745D01*
X002865Y014801D01*
X002912Y014865D01*
X002948Y014936D01*
X002973Y015012D01*
X002985Y015090D01*
X002985Y015130D01*
X002985Y015170D01*
X002973Y015248D01*
X002948Y015324D01*
X002912Y015395D01*
X002865Y015459D01*
X002809Y015515D01*
X002745Y015562D01*
X002674Y015598D01*
X002598Y015623D01*
X002520Y015635D01*
X002480Y015635D01*
X002480Y015130D01*
X002985Y015130D01*
X002480Y015130D01*
X002480Y015130D01*
X002480Y015130D01*
X002480Y014625D01*
X002520Y014625D01*
X002480Y014625D02*
X002480Y015130D01*
X002480Y015130D01*
X002480Y015130D01*
X001975Y015130D01*
X001975Y015170D01*
X001987Y015248D01*
X002012Y015324D01*
X002048Y015395D01*
X002095Y015459D01*
X002151Y015515D01*
X002215Y015562D01*
X002286Y015598D01*
X002362Y015623D01*
X002440Y015635D01*
X002480Y015635D01*
X002480Y015130D01*
X001975Y015130D01*
X001975Y015090D01*
X001987Y015012D01*
X002012Y014936D01*
X002048Y014865D01*
X002095Y014801D01*
X002151Y014745D01*
X002215Y014698D01*
X002286Y014662D01*
X002362Y014637D01*
X002440Y014625D01*
X002480Y014625D01*
X002480Y014628D02*
X002480Y014628D01*
X002421Y014628D02*
X001700Y014628D01*
X001480Y014380D02*
X001880Y013980D01*
X004280Y013980D01*
X004580Y013680D01*
X004580Y010531D01*
X004581Y010530D01*
X004581Y010329D01*
X004930Y009980D01*
X008480Y009980D01*
X008480Y010180D01*
X009330Y011030D01*
X009680Y010680D01*
X009935Y010861D02*
X009855Y010941D01*
X009741Y010988D01*
X009683Y010988D01*
X009550Y011121D01*
X009550Y011989D01*
X010150Y012589D01*
X010150Y012719D01*
X010210Y012744D01*
X010210Y012509D01*
X010202Y012500D01*
X010210Y012419D01*
X010210Y012339D01*
X010219Y012330D01*
X010220Y012318D01*
X010250Y012293D01*
X010250Y011850D01*
X010780Y011850D01*
X010780Y011857D01*
X011060Y011626D01*
X011060Y011160D01*
X011041Y011205D01*
X010955Y011291D01*
X010841Y011338D01*
X010719Y011338D01*
X010605Y011291D01*
X010564Y011250D01*
X010541Y011305D01*
X010497Y011349D01*
X010518Y011360D01*
X010588Y011410D01*
X010650Y011472D01*
X010700Y011542D01*
X010740Y011619D01*
X010766Y011701D01*
X010780Y011787D01*
X010780Y011810D01*
X010250Y011810D01*
X010250Y011850D01*
X010210Y011850D01*
X010210Y012380D01*
X010187Y012380D01*
X010101Y012366D01*
X010019Y012340D01*
X009942Y012300D01*
X009872Y012250D01*
X009810Y012188D01*
X009760Y012118D01*
X009720Y012041D01*
X009694Y011959D01*
X009680Y011873D01*
X009680Y011850D01*
X010210Y011850D01*
X010210Y011810D01*
X009680Y011810D01*
X009680Y011787D01*
X009694Y011701D01*
X009720Y011619D01*
X009760Y011542D01*
X009810Y011472D01*
X009872Y011410D01*
X009942Y011360D01*
X010019Y011320D01*
X010030Y011317D01*
X010019Y011305D01*
X009972Y011191D01*
X009972Y011069D01*
X009995Y011011D01*
X009935Y010861D01*
X009984Y010983D02*
X009756Y010983D01*
X009550Y011141D02*
X009972Y011141D01*
X010016Y011300D02*
X009550Y011300D01*
X009550Y011458D02*
X009824Y011458D01*
X009721Y011617D02*
X009550Y011617D01*
X009550Y011775D02*
X009682Y011775D01*
X009690Y011934D02*
X009550Y011934D01*
X009653Y012092D02*
X009746Y012092D01*
X009812Y012251D02*
X009873Y012251D01*
X009970Y012409D02*
X010210Y012409D01*
X010210Y012251D02*
X010250Y012251D01*
X010250Y012092D02*
X010210Y012092D01*
X010210Y011934D02*
X010250Y011934D01*
X010430Y012430D02*
X011280Y011730D01*
X011280Y010880D01*
X010680Y009680D01*
X007180Y009680D01*
X006930Y009430D01*
X006930Y004030D01*
X007407Y003850D02*
X007453Y003850D01*
X007547Y003692D02*
X007313Y003692D01*
X007063Y003533D02*
X007797Y003533D01*
X008063Y003533D02*
X008797Y003533D01*
X009063Y003533D02*
X009723Y003533D01*
X009575Y003692D02*
X009313Y003692D01*
X009407Y003850D02*
X009515Y003850D01*
X009515Y004009D02*
X009440Y004009D01*
X009425Y004167D02*
X009575Y004167D01*
X009720Y004326D02*
X009356Y004326D01*
X009167Y004484D02*
X010972Y004484D01*
X010980Y004326D02*
X010980Y004326D01*
X010980Y004167D02*
X010980Y004167D01*
X010980Y004009D02*
X010980Y004009D01*
X010665Y004326D02*
X010240Y004326D01*
X010385Y004167D02*
X010534Y004167D01*
X010481Y004009D02*
X010445Y004009D01*
X010445Y003850D02*
X010481Y003850D01*
X010535Y003692D02*
X010385Y003692D01*
X010280Y003430D02*
X012880Y003430D01*
X013088Y003533D02*
X017410Y003533D01*
X017410Y003375D02*
X016813Y003375D01*
X016972Y003216D02*
X017410Y003216D01*
X017410Y003058D02*
X017030Y003058D01*
X017030Y002899D02*
X017410Y002899D01*
X017386Y002741D02*
X017030Y002741D01*
X016910Y002582D02*
X017238Y002582D01*
X017090Y002424D02*
X016751Y002424D01*
X016866Y002265D02*
X016942Y002265D01*
X017248Y001948D02*
X019760Y001948D01*
X019760Y001790D02*
X017101Y001790D01*
X016902Y001631D02*
X019760Y001631D01*
X019760Y001473D02*
X016744Y001473D01*
X017396Y002107D02*
X019760Y002107D01*
X019760Y002265D02*
X017544Y002265D01*
X017692Y002424D02*
X019760Y002424D01*
X019760Y002582D02*
X017843Y002582D01*
X017410Y003692D02*
X011425Y003692D01*
X011479Y003850D02*
X012463Y003850D01*
X012240Y004009D02*
X011479Y004009D01*
X011426Y004167D02*
X012159Y004167D01*
X012160Y004326D02*
X011512Y004326D01*
X011588Y004484D02*
X012160Y004484D01*
X012160Y004643D02*
X011567Y004643D01*
X011477Y004801D02*
X012160Y004801D01*
X012160Y004960D02*
X011463Y004960D01*
X011449Y005118D02*
X012160Y005118D01*
X012160Y005277D02*
X011435Y005277D01*
X011421Y005435D02*
X012160Y005435D01*
X012160Y005594D02*
X011408Y005594D01*
X011394Y005752D02*
X012160Y005752D01*
X012116Y005911D02*
X011380Y005911D01*
X011366Y006069D02*
X012072Y006069D01*
X012107Y006228D02*
X011352Y006228D01*
X010910Y006228D02*
X009150Y006228D01*
X009150Y006386D02*
X010896Y006386D01*
X010882Y006545D02*
X009150Y006545D01*
X009150Y006703D02*
X010869Y006703D01*
X010855Y006862D02*
X009150Y006862D01*
X009150Y007020D02*
X010841Y007020D01*
X010795Y007179D02*
X009150Y007179D01*
X009150Y007337D02*
X010722Y007337D01*
X010744Y007496D02*
X009150Y007496D01*
X009150Y007654D02*
X010886Y007654D01*
X011174Y007654D02*
X012077Y007654D01*
X012081Y007496D02*
X011316Y007496D01*
X011338Y007337D02*
X012187Y007337D01*
X012176Y007813D02*
X009150Y007813D01*
X009150Y007971D02*
X013227Y007971D01*
X013051Y007813D02*
X012584Y007813D01*
X013518Y008130D02*
X009241Y008130D01*
X009399Y008288D02*
X010286Y008288D01*
X010480Y008530D02*
X009330Y008530D01*
X008930Y008130D01*
X008930Y004030D01*
X008453Y003850D02*
X008407Y003850D01*
X008313Y003692D02*
X008547Y003692D01*
X008435Y004167D02*
X008425Y004167D01*
X008356Y004326D02*
X008504Y004326D01*
X008693Y004484D02*
X008167Y004484D01*
X008150Y004643D02*
X008710Y004643D01*
X008710Y004801D02*
X008150Y004801D01*
X008150Y004960D02*
X008710Y004960D01*
X008710Y005118D02*
X008150Y005118D01*
X008150Y005277D02*
X008710Y005277D01*
X008710Y005435D02*
X008150Y005435D01*
X008150Y005594D02*
X008710Y005594D01*
X008710Y005752D02*
X008150Y005752D01*
X008150Y005911D02*
X008710Y005911D01*
X008710Y006069D02*
X008150Y006069D01*
X008150Y006228D02*
X008710Y006228D01*
X008710Y006386D02*
X008150Y006386D01*
X008150Y006545D02*
X008710Y006545D01*
X008710Y006703D02*
X008150Y006703D01*
X008150Y006862D02*
X008710Y006862D01*
X008710Y007020D02*
X008150Y007020D01*
X008150Y007179D02*
X008710Y007179D01*
X008710Y007337D02*
X008150Y007337D01*
X008150Y007496D02*
X008710Y007496D01*
X008710Y007654D02*
X008150Y007654D01*
X008150Y007813D02*
X008710Y007813D01*
X008710Y007971D02*
X008150Y007971D01*
X008150Y008130D02*
X008710Y008130D01*
X008777Y008288D02*
X008150Y008288D01*
X008150Y008447D02*
X008935Y008447D01*
X009094Y008605D02*
X008150Y008605D01*
X008150Y008764D02*
X010277Y008764D01*
X010683Y008764D02*
X013652Y008764D01*
X013501Y008605D02*
X010783Y008605D01*
X010779Y008447D02*
X013460Y008447D01*
X013488Y008288D02*
X010674Y008288D01*
X010892Y009081D02*
X013691Y009081D01*
X013625Y009108D02*
X013764Y009050D01*
X014396Y009050D01*
X014535Y009108D01*
X014642Y009215D01*
X014700Y009354D01*
X014700Y009506D01*
X014642Y009645D01*
X014535Y009752D01*
X014396Y009810D01*
X013764Y009810D01*
X013625Y009752D01*
X013518Y009645D01*
X013460Y009506D01*
X013460Y009354D01*
X013518Y009215D01*
X013625Y009108D01*
X013508Y009239D02*
X010972Y009239D01*
X011067Y009398D02*
X013460Y009398D01*
X013430Y009430D02*
X013430Y009780D01*
X013400Y009715D02*
X013587Y009715D01*
X013481Y009556D02*
X013367Y009556D01*
X013180Y009680D02*
X013180Y015180D01*
X013430Y015430D01*
X014080Y015430D01*
X013635Y015104D02*
X013415Y015104D01*
X013400Y014945D02*
X014510Y014945D01*
X014510Y014787D02*
X014452Y014787D01*
X014950Y014787D02*
X015460Y014787D01*
X015460Y014628D02*
X014950Y014628D01*
X014950Y014470D02*
X015460Y014470D01*
X015460Y014311D02*
X014950Y014311D01*
X015128Y014153D02*
X015460Y014153D01*
X015458Y013994D02*
X015267Y013994D01*
X015288Y013836D02*
X015372Y013836D01*
X015389Y013677D02*
X015213Y013677D01*
X015250Y013519D02*
X014695Y013519D01*
X014700Y013360D02*
X015186Y013360D01*
X014747Y013677D02*
X014610Y013677D01*
X014672Y013836D02*
X013400Y013836D01*
X013400Y013994D02*
X014555Y013994D01*
X014730Y014130D02*
X014980Y013880D01*
X014730Y014130D02*
X014730Y015730D01*
X014680Y015780D01*
X014680Y015980D01*
X014381Y015896D02*
X010237Y015896D01*
X010258Y015738D02*
X013610Y015738D01*
X013268Y015579D02*
X010193Y015579D01*
X010130Y015421D02*
X011224Y015421D01*
X011504Y015421D02*
X012209Y015421D01*
X012488Y015421D02*
X013109Y015421D01*
X012960Y015262D02*
X012754Y015262D01*
X012865Y015104D02*
X012960Y015104D01*
X012960Y014945D02*
X012919Y014945D01*
X012919Y014787D02*
X012960Y014787D01*
X012960Y014628D02*
X012869Y014628D01*
X012960Y014470D02*
X012763Y014470D01*
X012960Y014311D02*
X012509Y014311D01*
X012188Y014311D02*
X011525Y014311D01*
X011778Y014470D02*
X011934Y014470D01*
X011204Y014311D02*
X010130Y014311D01*
X009930Y014130D02*
X010430Y013880D01*
X010430Y012430D01*
X010210Y012568D02*
X010129Y012568D01*
X010167Y012726D02*
X010210Y012726D01*
X009930Y012680D02*
X009330Y012080D01*
X009330Y011030D01*
X009110Y011141D02*
X004800Y011141D01*
X004800Y011300D02*
X009110Y011300D01*
X009110Y011458D02*
X004800Y011458D01*
X004800Y011617D02*
X009110Y011617D01*
X009110Y011775D02*
X004800Y011775D01*
X004800Y011934D02*
X009110Y011934D01*
X009110Y012092D02*
X004800Y012092D01*
X004800Y012251D02*
X009189Y012251D01*
X009348Y012409D02*
X004800Y012409D01*
X004800Y012568D02*
X009506Y012568D01*
X009414Y012726D02*
X009665Y012726D01*
X009504Y012885D02*
X009440Y012885D01*
X009930Y012680D02*
X009930Y013180D01*
X009453Y013360D02*
X009440Y013360D01*
X009440Y013519D02*
X009547Y013519D01*
X009371Y013677D02*
X009797Y013677D01*
X010027Y013836D02*
X004736Y013836D01*
X004800Y013677D02*
X005451Y013677D01*
X005429Y013670D02*
X005511Y013696D01*
X005597Y013710D01*
X005620Y013710D01*
X005620Y013180D01*
X005660Y013180D01*
X005660Y013710D01*
X005683Y013710D01*
X005769Y013696D01*
X005851Y013670D01*
X005928Y013630D01*
X005998Y013580D01*
X006060Y013518D01*
X006110Y013448D01*
X006150Y013371D01*
X006176Y013289D01*
X006190Y013203D01*
X006190Y013180D01*
X005660Y013180D01*
X005660Y013140D01*
X006190Y013140D01*
X006190Y013117D01*
X006176Y013031D01*
X006150Y012949D01*
X006110Y012872D01*
X006060Y012802D01*
X005998Y012740D01*
X005928Y012690D01*
X005851Y012650D01*
X005769Y012624D01*
X005683Y012610D01*
X005660Y012610D01*
X005660Y013140D01*
X005620Y013140D01*
X005090Y013140D01*
X005090Y013117D01*
X005104Y013031D01*
X005130Y012949D01*
X005170Y012872D01*
X005220Y012802D01*
X005282Y012740D01*
X005352Y012690D01*
X005429Y012650D01*
X005511Y012624D01*
X005597Y012610D01*
X005620Y012610D01*
X005620Y013140D01*
X005620Y013180D01*
X005090Y013180D01*
X005090Y013203D01*
X005104Y013289D01*
X005130Y013371D01*
X005170Y013448D01*
X005220Y013518D01*
X005282Y013580D01*
X005352Y013630D01*
X005429Y013670D01*
X005620Y013677D02*
X005660Y013677D01*
X005660Y013519D02*
X005620Y013519D01*
X005620Y013360D02*
X005660Y013360D01*
X005660Y013202D02*
X005620Y013202D01*
X005620Y013043D02*
X005660Y013043D01*
X005660Y012885D02*
X005620Y012885D01*
X005620Y012726D02*
X005660Y012726D01*
X005978Y012726D02*
X007135Y012726D01*
X007131Y012728D02*
X007319Y012650D01*
X007521Y012650D01*
X007709Y012728D01*
X007852Y012871D01*
X007930Y013059D01*
X007930Y013261D01*
X007852Y013449D01*
X007709Y013592D01*
X007521Y013670D01*
X007319Y013670D01*
X007131Y013592D01*
X006988Y013449D01*
X006910Y013261D01*
X006910Y013059D01*
X006988Y012871D01*
X007131Y012728D01*
X006982Y012885D02*
X006117Y012885D01*
X006178Y013043D02*
X006916Y013043D01*
X006910Y013202D02*
X006190Y013202D01*
X006153Y013360D02*
X006951Y013360D01*
X007057Y013519D02*
X006059Y013519D01*
X005829Y013677D02*
X008489Y013677D01*
X008420Y013519D02*
X007783Y013519D01*
X007889Y013360D02*
X008420Y013360D01*
X008420Y013202D02*
X007930Y013202D01*
X007924Y013043D02*
X008420Y013043D01*
X008420Y012885D02*
X007858Y012885D01*
X007705Y012726D02*
X008446Y012726D01*
X009743Y013994D02*
X004577Y013994D01*
X004419Y014153D02*
X009695Y014153D01*
X009730Y014311D02*
X009556Y014311D01*
X009235Y014311D02*
X008572Y014311D01*
X008826Y014470D02*
X008982Y014470D01*
X008251Y014311D02*
X003919Y014311D01*
X004235Y014470D02*
X007997Y014470D01*
X007891Y014628D02*
X004354Y014628D01*
X004458Y014787D02*
X007841Y014787D01*
X007841Y014945D02*
X006692Y014945D01*
X006631Y014920D02*
X006819Y014998D01*
X006962Y015141D01*
X007040Y015329D01*
X007040Y015531D01*
X006962Y015719D01*
X006819Y015862D01*
X006631Y015940D01*
X006429Y015940D01*
X006241Y015862D01*
X006098Y015719D01*
X006051Y015606D01*
X006040Y015641D01*
X006000Y015718D01*
X005950Y015788D01*
X005888Y015850D01*
X005818Y015900D01*
X005741Y015940D01*
X005659Y015966D01*
X005573Y015980D01*
X005550Y015980D01*
X005550Y015450D01*
X005510Y015450D01*
X005510Y015980D01*
X005487Y015980D01*
X005401Y015966D01*
X005319Y015940D01*
X005242Y015900D01*
X005172Y015850D01*
X005110Y015788D01*
X005060Y015718D01*
X005020Y015641D01*
X004994Y015559D01*
X004980Y015473D01*
X004980Y015450D01*
X005510Y015450D01*
X005510Y015410D01*
X004980Y015410D01*
X004980Y015387D01*
X004994Y015301D01*
X005020Y015219D01*
X005060Y015142D01*
X005110Y015072D01*
X005172Y015010D01*
X005242Y014960D01*
X005319Y014920D01*
X005401Y014894D01*
X005487Y014880D01*
X005510Y014880D01*
X005510Y015410D01*
X005550Y015410D01*
X005550Y014880D01*
X005573Y014880D01*
X005659Y014894D01*
X005741Y014920D01*
X005818Y014960D01*
X005888Y015010D01*
X005950Y015072D01*
X006000Y015142D01*
X006040Y015219D01*
X006051Y015254D01*
X006098Y015141D01*
X006241Y014998D01*
X006429Y014920D01*
X006631Y014920D01*
X006925Y015104D02*
X007895Y015104D01*
X008006Y015262D02*
X007012Y015262D01*
X007040Y015421D02*
X008272Y015421D01*
X008551Y015421D02*
X009256Y015421D01*
X009536Y015421D02*
X009730Y015421D01*
X009667Y015579D02*
X007020Y015579D01*
X006944Y015738D02*
X009602Y015738D01*
X009623Y015896D02*
X006738Y015896D01*
X006777Y016055D02*
X009741Y016055D01*
X010332Y016372D02*
X010428Y016372D01*
X010428Y016220D02*
X010428Y016220D01*
X010428Y016530D02*
X010332Y016530D01*
X010332Y016689D02*
X010428Y016689D01*
X010428Y017006D02*
X010332Y017006D01*
X010332Y017164D02*
X010428Y017164D01*
X010428Y017323D02*
X010332Y017323D01*
X010332Y017440D02*
X010332Y017440D01*
X010020Y017323D02*
X007039Y017323D01*
X007001Y017285D02*
X007116Y017399D01*
X007178Y017549D01*
X007178Y017711D01*
X007116Y017861D01*
X007001Y017975D01*
X006852Y018037D01*
X006690Y018037D01*
X006540Y017975D01*
X006425Y017861D01*
X006363Y017711D01*
X006363Y017549D01*
X006425Y017399D01*
X006540Y017285D01*
X006690Y017223D01*
X006852Y017223D01*
X007001Y017285D01*
X007150Y017481D02*
X008085Y017481D01*
X007979Y017640D02*
X007178Y017640D01*
X007142Y017798D02*
X007945Y017798D01*
X007966Y017957D02*
X007020Y017957D01*
X006521Y017957D02*
X005839Y017957D01*
X005820Y017975D02*
X005935Y017861D01*
X005997Y017711D01*
X005997Y017549D01*
X005935Y017399D01*
X005820Y017285D01*
X005670Y017223D01*
X005508Y017223D01*
X005359Y017285D01*
X005244Y017399D01*
X005182Y017549D01*
X005182Y017711D01*
X005244Y017861D01*
X005359Y017975D01*
X005508Y018037D01*
X005670Y018037D01*
X005820Y017975D01*
X005961Y017798D02*
X006399Y017798D01*
X006363Y017640D02*
X005997Y017640D01*
X005968Y017481D02*
X006392Y017481D01*
X006502Y017323D02*
X005858Y017323D01*
X005321Y017323D02*
X003811Y017323D01*
X003841Y017164D02*
X008086Y017164D01*
X007980Y017006D02*
X004004Y017006D01*
X003580Y017006D02*
X003580Y017006D01*
X003580Y017164D02*
X003580Y017164D01*
X003319Y017164D02*
X002930Y017164D01*
X003007Y017323D02*
X003349Y017323D01*
X003180Y017481D02*
X003030Y017481D01*
X003006Y017640D02*
X003115Y017640D01*
X003115Y017798D02*
X002929Y017798D01*
X002756Y017957D02*
X003171Y017957D01*
X002480Y017957D02*
X002480Y017957D01*
X002480Y017798D02*
X002480Y017798D01*
X002480Y017640D02*
X002480Y017640D01*
X002480Y017481D02*
X002480Y017481D01*
X002480Y017323D02*
X002480Y017323D01*
X002480Y017164D02*
X002480Y017164D01*
X002480Y017006D02*
X002480Y017006D01*
X002484Y016847D02*
X003087Y016847D01*
X003075Y016730D02*
X003075Y016690D01*
X003087Y016612D01*
X003112Y016536D01*
X003148Y016465D01*
X003195Y016401D01*
X003251Y016345D01*
X003315Y016298D01*
X003386Y016262D01*
X003462Y016237D01*
X003540Y016225D01*
X003580Y016225D01*
X003580Y016730D01*
X003075Y016730D01*
X003075Y016689D02*
X002490Y016689D01*
X002449Y016530D02*
X003115Y016530D01*
X003224Y016372D02*
X002343Y016372D01*
X001617Y016372D02*
X001000Y016372D01*
X001000Y016530D02*
X001511Y016530D01*
X001470Y016689D02*
X001000Y016689D01*
X001000Y016847D02*
X001476Y016847D01*
X001293Y017006D02*
X001000Y017006D01*
X001000Y017164D02*
X001075Y017164D01*
X001077Y017798D02*
X001000Y017798D01*
X001000Y017957D02*
X001298Y017957D01*
X001662Y017957D02*
X002204Y017957D01*
X002031Y017798D02*
X001883Y017798D01*
X002760Y017006D02*
X003156Y017006D01*
X003580Y016847D02*
X003580Y016847D01*
X003580Y016689D02*
X003580Y016689D01*
X003580Y016530D02*
X003580Y016530D01*
X003580Y016372D02*
X003580Y016372D01*
X003580Y016135D02*
X003540Y016135D01*
X003462Y016123D01*
X003386Y016098D01*
X003315Y016062D01*
X003251Y016015D01*
X003195Y015959D01*
X003148Y015895D01*
X003112Y015824D01*
X003087Y015748D01*
X003075Y015670D01*
X003075Y015630D01*
X003580Y015630D01*
X003580Y015630D01*
X003580Y016135D01*
X003580Y016055D02*
X003580Y016055D01*
X003580Y015896D02*
X003580Y015896D01*
X003580Y015738D02*
X003580Y015738D01*
X003580Y015630D02*
X003075Y015630D01*
X003075Y015590D01*
X003087Y015512D01*
X003112Y015436D01*
X003148Y015365D01*
X003195Y015301D01*
X003251Y015245D01*
X003315Y015198D01*
X003386Y015162D01*
X003462Y015137D01*
X003540Y015125D01*
X003580Y015125D01*
X003580Y015630D01*
X003580Y015630D01*
X003580Y015579D02*
X003580Y015579D01*
X003580Y015421D02*
X003580Y015421D01*
X003580Y015262D02*
X003580Y015262D01*
X003234Y015262D02*
X002968Y015262D01*
X002985Y015104D02*
X004010Y015104D01*
X004010Y015262D02*
X003926Y015262D01*
X003923Y014945D02*
X004010Y014945D01*
X004450Y014945D02*
X005270Y014945D01*
X005510Y014945D02*
X005550Y014945D01*
X005550Y015104D02*
X005510Y015104D01*
X005510Y015262D02*
X005550Y015262D01*
X005510Y015421D02*
X004450Y015421D01*
X004450Y015579D02*
X005000Y015579D01*
X005074Y015738D02*
X004450Y015738D01*
X004450Y015896D02*
X005236Y015896D01*
X005510Y015896D02*
X005550Y015896D01*
X005550Y015738D02*
X005510Y015738D01*
X005510Y015579D02*
X005550Y015579D01*
X005824Y015896D02*
X006322Y015896D01*
X006383Y016055D02*
X004450Y016055D01*
X004010Y016055D02*
X003855Y016055D01*
X004010Y016213D02*
X001000Y016213D01*
X001000Y016055D02*
X003305Y016055D01*
X003149Y015896D02*
X001000Y015896D01*
X001000Y015738D02*
X003086Y015738D01*
X003077Y015579D02*
X002711Y015579D01*
X002480Y015579D02*
X002480Y015579D01*
X002480Y015421D02*
X002480Y015421D01*
X002480Y015262D02*
X002480Y015262D01*
X002480Y015104D02*
X002480Y015104D01*
X002480Y014945D02*
X002480Y014945D01*
X002480Y014787D02*
X002480Y014787D01*
X002851Y014787D02*
X003142Y014787D01*
X003237Y014945D02*
X002951Y014945D01*
X002893Y015421D02*
X003120Y015421D01*
X002249Y015579D02*
X001879Y015579D01*
X001945Y015421D02*
X002067Y015421D01*
X001992Y015262D02*
X001945Y015262D01*
X001945Y015104D02*
X001975Y015104D01*
X001945Y014945D02*
X002009Y014945D01*
X001945Y014787D02*
X002109Y014787D01*
X001480Y015130D02*
X001480Y014380D01*
X001260Y014311D02*
X001000Y014311D01*
X001000Y014153D02*
X001396Y014153D01*
X001555Y013994D02*
X001000Y013994D01*
X001000Y013836D02*
X001713Y013836D01*
X001634Y013202D02*
X001000Y013202D01*
X001000Y013360D02*
X004360Y013360D01*
X004360Y013202D02*
X002026Y013202D01*
X002361Y013043D02*
X004360Y013043D01*
X004360Y012885D02*
X002520Y012885D01*
X002618Y012726D02*
X004360Y012726D01*
X004360Y012568D02*
X002684Y012568D01*
X002710Y012409D02*
X004360Y012409D01*
X004360Y012251D02*
X003531Y012251D01*
X003519Y012262D02*
X003331Y012340D01*
X003129Y012340D01*
X002941Y012262D01*
X002798Y012119D01*
X002720Y011931D01*
X002720Y011729D01*
X002798Y011541D01*
X002941Y011398D01*
X003010Y011369D01*
X003010Y010688D01*
X003024Y010674D01*
X003024Y010118D01*
X003106Y010036D01*
X003852Y010036D01*
X003934Y010118D01*
X003934Y010942D01*
X003852Y011024D01*
X003450Y011024D01*
X003450Y011369D01*
X003519Y011398D01*
X003662Y011541D01*
X003740Y011729D01*
X003740Y011931D01*
X003662Y012119D01*
X003519Y012262D01*
X003673Y012092D02*
X004360Y012092D01*
X004360Y011934D02*
X003739Y011934D01*
X003740Y011775D02*
X004360Y011775D01*
X004360Y011617D02*
X003694Y011617D01*
X003579Y011458D02*
X004360Y011458D01*
X004360Y011300D02*
X003450Y011300D01*
X003450Y011141D02*
X004360Y011141D01*
X004166Y010983D02*
X003894Y010983D01*
X003934Y010824D02*
X004126Y010824D01*
X004126Y010666D02*
X003934Y010666D01*
X003934Y010507D02*
X004126Y010507D01*
X004126Y010349D02*
X003934Y010349D01*
X003934Y010190D02*
X004126Y010190D01*
X004567Y010032D02*
X001000Y010032D01*
X001000Y010190D02*
X003024Y010190D01*
X003024Y010349D02*
X001000Y010349D01*
X001000Y010507D02*
X003024Y010507D01*
X003024Y010666D02*
X001000Y010666D01*
X001000Y010824D02*
X003010Y010824D01*
X003010Y010983D02*
X001000Y010983D01*
X001000Y011141D02*
X003010Y011141D01*
X003010Y011300D02*
X001000Y011300D01*
X001000Y011458D02*
X001636Y011458D01*
X001299Y011617D02*
X001000Y011617D01*
X001000Y011775D02*
X001140Y011775D01*
X001042Y011934D02*
X001000Y011934D01*
X001000Y012726D02*
X001042Y012726D01*
X001000Y012885D02*
X001140Y012885D01*
X001000Y013043D02*
X001299Y013043D01*
X001000Y013519D02*
X004360Y013519D01*
X004272Y013677D02*
X001000Y013677D01*
X001000Y014470D02*
X001260Y014470D01*
X001260Y014628D02*
X001000Y014628D01*
X001000Y014787D02*
X001015Y014787D01*
X001000Y014945D02*
X001015Y014945D01*
X001000Y015104D02*
X001015Y015104D01*
X001000Y015262D02*
X001015Y015262D01*
X001000Y015421D02*
X001015Y015421D01*
X001000Y015579D02*
X001081Y015579D01*
X003936Y016372D02*
X004010Y016372D01*
X004045Y016530D02*
X004069Y016530D01*
X003980Y017481D02*
X005210Y017481D01*
X005182Y017640D02*
X004045Y017640D01*
X004045Y017798D02*
X005218Y017798D01*
X005340Y017957D02*
X003989Y017957D01*
X005986Y015738D02*
X006116Y015738D01*
X006135Y015104D02*
X005973Y015104D01*
X005790Y014945D02*
X006368Y014945D01*
X005087Y015104D02*
X004450Y015104D01*
X004450Y015262D02*
X005006Y015262D01*
X004800Y013519D02*
X005221Y013519D01*
X005127Y013360D02*
X004800Y013360D01*
X004800Y013202D02*
X005090Y013202D01*
X005102Y013043D02*
X004800Y013043D01*
X004800Y012885D02*
X005163Y012885D01*
X005302Y012726D02*
X004800Y012726D01*
X003230Y011830D02*
X003230Y010779D01*
X003479Y010530D01*
X002881Y011458D02*
X002024Y011458D01*
X002361Y011617D02*
X002766Y011617D01*
X002720Y011775D02*
X002520Y011775D01*
X002618Y011934D02*
X002721Y011934D01*
X002684Y012092D02*
X002787Y012092D01*
X002710Y012251D02*
X002929Y012251D01*
X004996Y010983D02*
X005301Y010983D01*
X005181Y010824D02*
X005036Y010824D01*
X005036Y010666D02*
X005130Y010666D01*
X005130Y010507D02*
X005036Y010507D01*
X005036Y010349D02*
X005192Y010349D01*
X004726Y009873D02*
X001000Y009873D01*
X001000Y009715D02*
X006903Y009715D01*
X006745Y009556D02*
X001000Y009556D01*
X001000Y009398D02*
X006710Y009398D01*
X006710Y009239D02*
X001000Y009239D01*
X001000Y009081D02*
X006710Y009081D01*
X006710Y008922D02*
X001000Y008922D01*
X001000Y008764D02*
X006710Y008764D01*
X006710Y008605D02*
X001000Y008605D01*
X001000Y008447D02*
X006710Y008447D01*
X006710Y008288D02*
X001000Y008288D01*
X001000Y008130D02*
X006710Y008130D01*
X006710Y007971D02*
X001000Y007971D01*
X001000Y007813D02*
X006710Y007813D01*
X006710Y007654D02*
X001000Y007654D01*
X001000Y007496D02*
X006710Y007496D01*
X006710Y007337D02*
X001000Y007337D01*
X001000Y007179D02*
X006710Y007179D01*
X006710Y007020D02*
X001000Y007020D01*
X001000Y006862D02*
X006710Y006862D01*
X006710Y006703D02*
X001000Y006703D01*
X001000Y006545D02*
X006710Y006545D01*
X006710Y006386D02*
X001000Y006386D01*
X001000Y006228D02*
X006710Y006228D01*
X006710Y006069D02*
X001000Y006069D01*
X001000Y005911D02*
X006710Y005911D01*
X006710Y005752D02*
X001000Y005752D01*
X001000Y005594D02*
X006710Y005594D01*
X006710Y005435D02*
X001000Y005435D01*
X001000Y005277D02*
X006710Y005277D01*
X006710Y005118D02*
X001000Y005118D01*
X001000Y004960D02*
X006710Y004960D01*
X006710Y004801D02*
X001000Y004801D01*
X001000Y004643D02*
X006710Y004643D01*
X006693Y004484D02*
X006167Y004484D01*
X006356Y004326D02*
X006504Y004326D01*
X006435Y004167D02*
X006425Y004167D01*
X006407Y003850D02*
X006453Y003850D01*
X006547Y003692D02*
X006313Y003692D01*
X006063Y003533D02*
X006797Y003533D01*
X005797Y003533D02*
X005063Y003533D01*
X004797Y003533D02*
X004166Y003533D01*
X003950Y003533D02*
X003910Y003533D01*
X003910Y003692D02*
X003950Y003692D01*
X003950Y003850D02*
X003910Y003850D01*
X003910Y004009D02*
X003950Y004009D01*
X003950Y004167D02*
X003910Y004167D01*
X003910Y004326D02*
X003950Y004326D01*
X003950Y004484D02*
X003910Y004484D01*
X004241Y004484D02*
X004693Y004484D01*
X004504Y004326D02*
X004395Y004326D01*
X004450Y003850D02*
X004453Y003850D01*
X004364Y003692D02*
X004547Y003692D01*
X005313Y003692D02*
X005547Y003692D01*
X005453Y003850D02*
X005407Y003850D01*
X005425Y004167D02*
X005435Y004167D01*
X005504Y004326D02*
X005356Y004326D01*
X005167Y004484D02*
X005693Y004484D01*
X003694Y003533D02*
X002710Y003533D01*
X002710Y003692D02*
X003496Y003692D01*
X003410Y003850D02*
X002691Y003850D01*
X002626Y004009D02*
X003380Y004009D01*
X003396Y004167D02*
X002538Y004167D01*
X002379Y004326D02*
X003465Y004326D01*
X003619Y004484D02*
X002068Y004484D01*
X001592Y004484D02*
X001000Y004484D01*
X001000Y004326D02*
X001281Y004326D01*
X001122Y004167D02*
X001000Y004167D01*
X001000Y004009D02*
X001034Y004009D01*
X002677Y003375D02*
X010024Y003375D01*
X010183Y003216D02*
X002611Y003216D01*
X001000Y001314D02*
X019760Y001314D01*
X019760Y001156D02*
X001000Y001156D01*
X007930Y004030D02*
X007930Y008930D01*
X008180Y009180D01*
X010680Y009180D01*
X010980Y009680D01*
X010480Y010230D02*
X010780Y010530D01*
X010780Y011030D01*
X010625Y011300D02*
X010544Y011300D01*
X010636Y011458D02*
X011060Y011458D01*
X011060Y011300D02*
X010935Y011300D01*
X011060Y011617D02*
X010739Y011617D01*
X010778Y011775D02*
X010879Y011775D01*
X011530Y011830D02*
X010930Y012430D01*
X010930Y013180D01*
X011407Y013360D02*
X011453Y013360D01*
X011547Y013519D02*
X011313Y013519D01*
X011063Y013677D02*
X011797Y013677D01*
X012063Y013677D02*
X012960Y013677D01*
X012960Y013519D02*
X012313Y013519D01*
X012407Y013360D02*
X012960Y013360D01*
X012960Y013202D02*
X012440Y013202D01*
X012425Y013043D02*
X012960Y013043D01*
X012960Y012885D02*
X012356Y012885D01*
X012167Y012726D02*
X012960Y012726D01*
X012960Y012568D02*
X012150Y012568D01*
X012150Y012409D02*
X012960Y012409D01*
X012960Y012251D02*
X012150Y012251D01*
X012138Y012092D02*
X012213Y012092D01*
X011930Y012230D02*
X011830Y012130D01*
X011930Y012230D02*
X011930Y013180D01*
X012960Y013836D02*
X010654Y013836D01*
X010650Y013677D02*
X010797Y013677D01*
X010627Y013994D02*
X012960Y013994D01*
X012960Y014153D02*
X010377Y014153D01*
X010647Y014470D02*
X010950Y014470D01*
X010844Y014628D02*
X010788Y014628D01*
X010784Y015104D02*
X010848Y015104D01*
X010959Y015262D02*
X010631Y015262D01*
X010784Y016372D02*
X012237Y016372D01*
X012460Y016372D02*
X013460Y016372D01*
X013470Y016530D02*
X012708Y016530D01*
X012795Y016689D02*
X013561Y016689D01*
X013569Y017164D02*
X012674Y017164D01*
X012780Y017006D02*
X014845Y017006D01*
X014686Y017164D02*
X014591Y017164D01*
X014731Y017430D02*
X015680Y016481D01*
X015931Y016481D01*
X016291Y016530D02*
X016470Y016530D01*
X016460Y016372D02*
X016352Y016372D01*
X016510Y016213D02*
X016520Y016213D01*
X016600Y016055D02*
X016753Y016055D01*
X016600Y015896D02*
X017865Y015896D01*
X017865Y015738D02*
X017550Y015738D01*
X017670Y015579D02*
X019265Y015579D01*
X019290Y015575D02*
X019330Y015575D01*
X019330Y016080D01*
X019330Y016080D01*
X019330Y016080D01*
X018825Y016080D01*
X018825Y016120D01*
X018837Y016198D01*
X018862Y016274D01*
X018898Y016345D01*
X018945Y016409D01*
X019001Y016465D01*
X019065Y016512D01*
X019136Y016548D01*
X019212Y016573D01*
X019290Y016585D01*
X019330Y016585D01*
X019330Y016080D01*
X018825Y016080D01*
X018825Y016040D01*
X018837Y015962D01*
X018862Y015886D01*
X018898Y015815D01*
X018945Y015751D01*
X019001Y015695D01*
X019065Y015648D01*
X019136Y015612D01*
X019212Y015587D01*
X019290Y015575D01*
X019330Y015579D02*
X019330Y015579D01*
X019395Y015579D02*
X019760Y015579D01*
X019760Y015421D02*
X017700Y015421D01*
X017662Y015262D02*
X019760Y015262D01*
X019760Y015104D02*
X017525Y015104D01*
X017947Y015615D02*
X018713Y015615D01*
X018795Y015697D01*
X018795Y016463D01*
X018713Y016545D01*
X017947Y016545D01*
X017865Y016463D01*
X017865Y015697D01*
X017947Y015615D01*
X017865Y016055D02*
X017407Y016055D01*
X017640Y016213D02*
X017865Y016213D01*
X017865Y016372D02*
X017700Y016372D01*
X017690Y016530D02*
X017932Y016530D01*
X018108Y016847D02*
X019760Y016847D01*
X019760Y016689D02*
X017599Y016689D01*
X017591Y017164D02*
X017803Y017164D01*
X017687Y017323D02*
X017961Y017323D01*
X017888Y017481D02*
X017700Y017481D01*
X017645Y017640D02*
X017865Y017640D01*
X017896Y017798D02*
X017424Y017798D01*
X016736Y017798D02*
X014424Y017798D01*
X014833Y017640D02*
X016515Y017640D01*
X016460Y017481D02*
X014991Y017481D01*
X015150Y017323D02*
X016473Y017323D01*
X016569Y017164D02*
X015308Y017164D01*
X015467Y017006D02*
X016144Y017006D01*
X016450Y016689D02*
X016561Y016689D01*
X016160Y015896D02*
X014979Y015896D01*
X014983Y016055D02*
X015239Y016055D01*
X015186Y016213D02*
X014883Y016213D01*
X014700Y016372D02*
X015186Y016372D01*
X015186Y016530D02*
X014690Y016530D01*
X014599Y016689D02*
X015162Y016689D01*
X015003Y016847D02*
X012815Y016847D01*
X011989Y016530D02*
X010912Y016530D01*
X011770Y015262D02*
X011943Y015262D01*
X013400Y014787D02*
X013708Y014787D01*
X013511Y014628D02*
X013400Y014628D01*
X013400Y014470D02*
X013460Y014470D01*
X013478Y014311D02*
X013400Y014311D01*
X013400Y014153D02*
X013580Y014153D01*
X013550Y013677D02*
X013400Y013677D01*
X013400Y013519D02*
X013465Y013519D01*
X013460Y013360D02*
X013400Y013360D01*
X013400Y013202D02*
X013531Y013202D01*
X013400Y013043D02*
X014156Y013043D01*
X014314Y012885D02*
X013400Y012885D01*
X013400Y012726D02*
X013599Y012726D01*
X013625Y012752D02*
X013518Y012645D01*
X013460Y012506D01*
X013460Y012354D01*
X013518Y012215D01*
X013625Y012108D01*
X013764Y012050D01*
X014396Y012050D01*
X014535Y012108D01*
X014642Y012215D01*
X014700Y012354D01*
X014700Y012506D01*
X014642Y012645D01*
X014535Y012752D01*
X014396Y012810D01*
X013764Y012810D01*
X013625Y012752D01*
X013486Y012568D02*
X013400Y012568D01*
X013400Y012409D02*
X013460Y012409D01*
X013503Y012251D02*
X013400Y012251D01*
X013400Y012092D02*
X013663Y012092D01*
X013680Y011775D02*
X013400Y011775D01*
X013400Y011617D02*
X013506Y011617D01*
X013460Y011458D02*
X013400Y011458D01*
X013400Y011300D02*
X013483Y011300D01*
X014080Y010824D02*
X014080Y010824D01*
X014080Y010666D02*
X014080Y010666D01*
X014568Y011141D02*
X016535Y011141D01*
X016520Y011156D02*
X016566Y011110D01*
X016620Y011071D01*
X016679Y011041D01*
X016742Y011020D01*
X016807Y011010D01*
X017080Y011010D01*
X017080Y011430D01*
X017080Y011430D01*
X017080Y011430D01*
X016420Y011430D01*
X016420Y011463D01*
X016430Y011528D01*
X016451Y011591D01*
X016481Y011650D01*
X016520Y011704D01*
X016566Y011750D01*
X016620Y011789D01*
X016679Y011819D01*
X016742Y011840D01*
X016807Y011850D01*
X017080Y011850D01*
X017080Y011430D01*
X016420Y011430D01*
X016420Y011397D01*
X016430Y011332D01*
X016451Y011269D01*
X016481Y011210D01*
X016520Y011156D01*
X016441Y011300D02*
X014677Y011300D01*
X014700Y011458D02*
X016420Y011458D01*
X016464Y011617D02*
X016174Y011617D01*
X016174Y011775D02*
X016600Y011775D01*
X016663Y012092D02*
X016174Y012092D01*
X016174Y011934D02*
X017480Y011934D01*
X017080Y011775D02*
X017080Y011775D01*
X017080Y011617D02*
X017080Y011617D01*
X017080Y011458D02*
X017080Y011458D01*
X017080Y011300D02*
X017080Y011300D01*
X017080Y011141D02*
X017080Y011141D01*
X016503Y012251D02*
X016263Y012251D01*
X016421Y012409D02*
X016460Y012409D01*
X016330Y012629D02*
X015680Y011979D01*
X015186Y011934D02*
X013400Y011934D01*
X012960Y011934D02*
X012848Y011934D01*
X012922Y011775D02*
X012960Y011775D01*
X012960Y011617D02*
X012940Y011617D01*
X012960Y011458D02*
X012911Y011458D01*
X012960Y011300D02*
X012821Y011300D01*
X012960Y011141D02*
X012582Y011141D01*
X012799Y010983D02*
X012960Y010983D01*
X012960Y010824D02*
X012902Y010824D01*
X012940Y010666D02*
X012960Y010666D01*
X012960Y010507D02*
X012931Y010507D01*
X012960Y010349D02*
X012865Y010349D01*
X012960Y010190D02*
X012700Y010190D01*
X012960Y010032D02*
X012238Y010032D01*
X011930Y010030D02*
X011530Y010330D01*
X011530Y011830D01*
X012647Y012092D02*
X012960Y012092D01*
X014497Y012092D02*
X015186Y012092D01*
X015186Y012251D02*
X014657Y012251D01*
X014700Y012409D02*
X015243Y012409D01*
X015186Y012726D02*
X014561Y012726D01*
X014674Y012568D02*
X015958Y012568D01*
X016330Y012629D02*
X016330Y013980D01*
X015680Y013780D02*
X015680Y015379D01*
X015481Y015180D01*
X015230Y015180D01*
X015130Y015430D01*
X015080Y015580D01*
X014960Y015262D02*
X014950Y015262D01*
X014950Y015104D02*
X015010Y015104D01*
X014950Y014945D02*
X015220Y014945D01*
X015235Y014945D02*
X015247Y014945D01*
X016600Y015738D02*
X016610Y015738D01*
X018267Y017006D02*
X019760Y017006D01*
X019760Y017164D02*
X018425Y017164D01*
X018680Y017323D02*
X018980Y017323D01*
X018888Y017481D02*
X018772Y017481D01*
X018795Y017640D02*
X018865Y017640D01*
X018896Y017798D02*
X018764Y017798D01*
X018661Y017957D02*
X018999Y017957D01*
X019680Y017323D02*
X019760Y017323D01*
X019760Y016530D02*
X019559Y016530D01*
X019330Y016530D02*
X019330Y016530D01*
X019330Y016372D02*
X019330Y016372D01*
X019330Y016213D02*
X019330Y016213D01*
X019330Y016055D02*
X019330Y016055D01*
X019330Y015896D02*
X019330Y015896D01*
X019330Y015738D02*
X019330Y015738D01*
X019702Y015738D02*
X019760Y015738D01*
X019742Y016372D02*
X019760Y016372D01*
X019101Y016530D02*
X018728Y016530D01*
X018795Y016372D02*
X018918Y016372D01*
X018842Y016213D02*
X018795Y016213D01*
X018795Y016055D02*
X018825Y016055D01*
X018795Y015896D02*
X018859Y015896D01*
X018795Y015738D02*
X018958Y015738D01*
X019411Y013043D02*
X019760Y013043D01*
X019760Y012885D02*
X019570Y012885D01*
X019668Y012726D02*
X019760Y012726D01*
X019760Y012568D02*
X019734Y012568D01*
X019760Y012409D02*
X019760Y012409D01*
X019760Y012251D02*
X019760Y012251D01*
X019760Y012092D02*
X019734Y012092D01*
X019760Y011934D02*
X019668Y011934D01*
X019760Y011775D02*
X019570Y011775D01*
X019411Y011617D02*
X019760Y011617D01*
X019760Y011141D02*
X019677Y011141D01*
X018413Y008922D02*
X018000Y008922D01*
X018000Y008764D02*
X018539Y008764D01*
X016691Y009081D02*
X016148Y009081D01*
X016508Y009239D02*
X014652Y009239D01*
X014700Y009398D02*
X016460Y009398D01*
X016481Y009556D02*
X014679Y009556D01*
X014573Y009715D02*
X016587Y009715D01*
X016501Y008605D02*
X016174Y008605D01*
X016174Y008447D02*
X016460Y008447D01*
X015680Y008681D02*
X015079Y008681D01*
X014830Y008930D01*
X014522Y008922D02*
X008233Y008922D01*
X008337Y010349D02*
X007868Y010349D01*
X007930Y010507D02*
X008496Y010507D01*
X008654Y010666D02*
X007930Y010666D01*
X007879Y010824D02*
X008813Y010824D01*
X008971Y010983D02*
X007759Y010983D01*
X007081Y010983D02*
X005979Y010983D01*
X006099Y010824D02*
X006961Y010824D01*
X006910Y010666D02*
X006150Y010666D01*
X006150Y010507D02*
X006910Y010507D01*
X006972Y010349D02*
X006088Y010349D01*
X009930Y010280D02*
X010080Y010630D01*
X010280Y011130D01*
X010210Y013677D02*
X010063Y013677D01*
X008990Y015262D02*
X008817Y015262D01*
X014080Y013430D02*
X014429Y013081D01*
X015680Y013081D01*
X015186Y011775D02*
X014480Y011775D01*
X014654Y011617D02*
X015186Y011617D01*
X015212Y009081D02*
X015101Y009081D01*
X015149Y008922D02*
X015186Y008922D01*
X014844Y008605D02*
X014659Y008605D01*
X014700Y008447D02*
X015186Y008447D01*
X014927Y008288D02*
X014672Y008288D01*
X014565Y008764D02*
X014508Y008764D01*
X014469Y009081D02*
X014559Y009081D01*
X014229Y007579D02*
X014080Y007430D01*
X014229Y007579D02*
X015680Y007579D01*
X015680Y006181D02*
X015680Y006180D01*
X014330Y006180D01*
X014080Y006430D01*
X014630Y005880D02*
X013480Y005880D01*
X013460Y005403D02*
X013424Y005317D01*
X013293Y005186D01*
X013122Y005115D01*
X012938Y005115D01*
X012767Y005186D01*
X012636Y005317D01*
X012600Y005403D01*
X012600Y004847D01*
X012645Y004909D01*
X012701Y004965D01*
X012765Y005012D01*
X012836Y005048D01*
X012912Y005073D01*
X012990Y005085D01*
X013030Y005085D01*
X013030Y004580D01*
X013030Y004580D01*
X013030Y005085D01*
X013070Y005085D01*
X013148Y005073D01*
X013224Y005048D01*
X013295Y005012D01*
X013359Y004965D01*
X013415Y004909D01*
X013462Y004845D01*
X013498Y004774D01*
X013523Y004698D01*
X013529Y004657D01*
X013625Y004752D01*
X013764Y004810D01*
X014396Y004810D01*
X014456Y004785D01*
X014422Y004869D01*
X014422Y004991D01*
X014456Y005075D01*
X014396Y005050D01*
X013764Y005050D01*
X013625Y005108D01*
X013518Y005215D01*
X013460Y005354D01*
X013460Y005403D01*
X013492Y005277D02*
X013384Y005277D01*
X013615Y005118D02*
X013130Y005118D01*
X013030Y004960D02*
X013030Y004960D01*
X013030Y004801D02*
X013030Y004801D01*
X013030Y004643D02*
X013030Y004643D01*
X013365Y004960D02*
X014422Y004960D01*
X014417Y004801D02*
X014450Y004801D01*
X014730Y004930D02*
X015531Y004930D01*
X015680Y005079D01*
X014880Y005380D02*
X014880Y005630D01*
X014630Y005880D01*
X013743Y004801D02*
X013484Y004801D01*
X012930Y005118D02*
X012600Y005118D01*
X012600Y004960D02*
X012695Y004960D01*
X012676Y005277D02*
X012600Y005277D01*
X012644Y005911D02*
X012703Y005911D01*
X012380Y006080D02*
X012380Y004180D01*
X012730Y003930D01*
X016580Y003930D01*
X017080Y004430D01*
X016970Y004009D02*
X017410Y004009D01*
X017410Y003850D02*
X016811Y003850D01*
X016500Y003375D02*
X016460Y003375D01*
X016460Y003216D02*
X016500Y003216D01*
X016500Y003058D02*
X016460Y003058D01*
X016147Y003375D02*
X015757Y003375D01*
X015915Y003216D02*
X015988Y003216D01*
X015203Y003375D02*
X014757Y003375D01*
X014915Y003216D02*
X015045Y003216D01*
X014203Y003375D02*
X013247Y003375D01*
X013405Y003216D02*
X014045Y003216D01*
X011280Y004530D02*
X011030Y007380D01*
X010924Y006069D02*
X009150Y006069D01*
X009150Y005911D02*
X010938Y005911D01*
X010952Y005752D02*
X009150Y005752D01*
X009150Y005594D02*
X010966Y005594D01*
X010980Y005435D02*
X009150Y005435D01*
X009150Y005277D02*
X010994Y005277D01*
X011008Y005118D02*
X009150Y005118D01*
X009150Y004960D02*
X011021Y004960D01*
X011035Y004801D02*
X009150Y004801D01*
X009150Y004643D02*
X010993Y004643D01*
X009980Y003930D02*
X009980Y003730D01*
X010280Y003430D01*
X014080Y017430D02*
X014731Y017430D01*
D20*
X014680Y015980D03*
X015080Y015580D03*
X014980Y013880D03*
X015680Y013780D03*
X016330Y013980D03*
X011830Y012130D03*
X010780Y011030D03*
X010280Y011130D03*
X009680Y010680D03*
X009930Y010280D03*
X010480Y010230D03*
X011930Y010030D03*
X012580Y009080D03*
X013330Y007680D03*
X013130Y006880D03*
X012380Y007580D03*
X011030Y007380D03*
X010480Y008530D03*
X012380Y006080D03*
X011280Y004530D03*
X014730Y004930D03*
X014880Y005380D03*
X014830Y008930D03*
D21*
X013430Y009430D02*
X012580Y009080D01*
X013180Y009680D02*
X010980Y009680D01*
X009930Y014130D02*
X009930Y015780D01*
X017680Y014880D02*
X017680Y011780D01*
D22*
X019430Y008130D03*
X017130Y003630D03*
X002780Y007430D03*
D23*
X009930Y015780D03*
D24*
X006580Y016380D03*
M02*
