G75*
%MOIN*%
%OFA0B0*%
%FSLAX24Y24*%
%IPPOS*%
%LPD*%
%AMOC8*
5,1,8,0,0,1.08239X$1,22.5*
%
%ADD10C,0.0080*%
%ADD11C,0.0040*%
%ADD12C,0.0030*%
%ADD13C,0.0020*%
%ADD14C,0.0010*%
%ADD15C,0.0000*%
%ADD16C,0.0050*%
%ADD17C,0.0059*%
%ADD18C,0.0008*%
D10*
X000730Y000730D02*
X020030Y000730D01*
X020030Y018330D01*
X000730Y018330D01*
X000730Y000730D01*
X003680Y003530D02*
X003430Y003780D01*
X003430Y004280D01*
X003680Y004530D01*
X004180Y004530D01*
X004430Y004280D01*
X004680Y004530D01*
X005180Y004530D01*
X005430Y004280D01*
X005680Y004530D01*
X006180Y004530D01*
X006430Y004280D01*
X006680Y004530D01*
X007180Y004530D01*
X007430Y004280D01*
X007680Y004530D01*
X008180Y004530D01*
X008430Y004280D01*
X008680Y004530D01*
X009180Y004530D01*
X009430Y004280D01*
X009430Y003780D01*
X009180Y003530D01*
X008680Y003530D01*
X008430Y003780D01*
X008180Y003530D01*
X007680Y003530D01*
X007430Y003780D01*
X007180Y003530D01*
X006680Y003530D01*
X006430Y003780D01*
X006180Y003530D01*
X005680Y003530D01*
X005430Y003780D01*
X005180Y003530D01*
X004680Y003530D01*
X004430Y003780D01*
X004180Y003530D01*
X003680Y003530D01*
X001021Y004846D02*
X011500Y004846D01*
X011496Y004910D02*
X011496Y009789D01*
X011500Y009846D02*
X001021Y009846D01*
X000996Y009789D02*
X000996Y004910D01*
X006130Y010680D02*
X006923Y010680D01*
X007730Y011030D02*
X007730Y012730D01*
X008430Y012930D02*
X008430Y013430D01*
X008680Y013680D01*
X009180Y013680D01*
X009430Y013430D01*
X009680Y013680D01*
X010180Y013680D01*
X010430Y013430D01*
X010680Y013680D01*
X011180Y013680D01*
X011430Y013430D01*
X011680Y013680D01*
X012180Y013680D01*
X012430Y013430D01*
X012430Y012930D01*
X012180Y012680D01*
X011680Y012680D01*
X011430Y012930D01*
X011180Y012680D01*
X010680Y012680D01*
X010430Y012930D01*
X010180Y012680D01*
X009680Y012680D01*
X009430Y012930D01*
X009180Y012680D01*
X008680Y012680D01*
X008430Y012930D01*
X008018Y013877D02*
X008018Y014271D01*
X008018Y013877D02*
X012742Y013877D01*
X012742Y014271D01*
X012742Y015452D02*
X012742Y018208D01*
X008018Y018208D01*
X008018Y015452D01*
X007030Y015680D02*
X007030Y015180D01*
X006780Y014930D01*
X006280Y014930D01*
X006030Y015180D01*
X005780Y014930D01*
X005280Y014930D01*
X005030Y015180D01*
X005030Y015680D01*
X005280Y015930D01*
X005780Y015930D01*
X006030Y015680D01*
X006280Y015930D01*
X006780Y015930D01*
X007030Y015680D01*
X006771Y017118D02*
X006180Y017118D01*
X007243Y018142D02*
X005117Y018142D01*
X004861Y017748D02*
X004861Y017512D01*
X003830Y017230D02*
X003330Y017230D01*
X003025Y017580D02*
X002867Y017580D01*
X002805Y018130D02*
X001155Y018130D01*
X001093Y017580D02*
X000935Y017580D01*
X001867Y017580D02*
X002093Y017580D01*
X000996Y015130D02*
X000998Y015192D01*
X001004Y015255D01*
X001014Y015316D01*
X001028Y015377D01*
X001045Y015437D01*
X001066Y015496D01*
X001092Y015553D01*
X001120Y015608D01*
X001152Y015662D01*
X001188Y015713D01*
X001226Y015763D01*
X001268Y015809D01*
X001312Y015853D01*
X001360Y015894D01*
X001409Y015932D01*
X001461Y015966D01*
X001515Y015997D01*
X001571Y016025D01*
X001629Y016049D01*
X001688Y016070D01*
X001748Y016086D01*
X001809Y016099D01*
X001871Y016108D01*
X001933Y016113D01*
X001996Y016114D01*
X002058Y016111D01*
X002120Y016104D01*
X002182Y016093D01*
X002242Y016078D01*
X002302Y016060D01*
X002360Y016038D01*
X002417Y016012D01*
X002472Y015982D01*
X002525Y015949D01*
X002576Y015913D01*
X002624Y015874D01*
X002670Y015831D01*
X002713Y015786D01*
X002753Y015738D01*
X002790Y015688D01*
X002824Y015635D01*
X002855Y015581D01*
X002881Y015525D01*
X002905Y015467D01*
X002924Y015407D01*
X002940Y015347D01*
X002952Y015285D01*
X002960Y015224D01*
X002964Y015161D01*
X002964Y015099D01*
X002960Y015036D01*
X002952Y014975D01*
X002940Y014913D01*
X002924Y014853D01*
X002905Y014793D01*
X002881Y014735D01*
X002855Y014679D01*
X002824Y014625D01*
X002790Y014572D01*
X002753Y014522D01*
X002713Y014474D01*
X002670Y014429D01*
X002624Y014386D01*
X002576Y014347D01*
X002525Y014311D01*
X002472Y014278D01*
X002417Y014248D01*
X002360Y014222D01*
X002302Y014200D01*
X002242Y014182D01*
X002182Y014167D01*
X002120Y014156D01*
X002058Y014149D01*
X001996Y014146D01*
X001933Y014147D01*
X001871Y014152D01*
X001809Y014161D01*
X001748Y014174D01*
X001688Y014190D01*
X001629Y014211D01*
X001571Y014235D01*
X001515Y014263D01*
X001461Y014294D01*
X001409Y014328D01*
X001360Y014366D01*
X001312Y014407D01*
X001268Y014451D01*
X001226Y014497D01*
X001188Y014547D01*
X001152Y014598D01*
X001120Y014652D01*
X001092Y014707D01*
X001066Y014764D01*
X001045Y014823D01*
X001028Y014883D01*
X001014Y014944D01*
X001004Y015005D01*
X000998Y015068D01*
X000996Y015130D01*
X002280Y014580D02*
X002680Y014580D01*
X003330Y015130D02*
X003830Y015130D01*
X006130Y013080D02*
X006935Y013080D01*
X005830Y011880D02*
X005832Y011932D01*
X005838Y011984D01*
X005848Y012036D01*
X005861Y012086D01*
X005878Y012136D01*
X005899Y012184D01*
X005924Y012230D01*
X005952Y012274D01*
X005983Y012316D01*
X006017Y012356D01*
X006054Y012393D01*
X006094Y012427D01*
X006136Y012458D01*
X006180Y012486D01*
X006226Y012511D01*
X006274Y012532D01*
X006324Y012549D01*
X006374Y012562D01*
X006426Y012572D01*
X006478Y012578D01*
X006530Y012580D01*
X006582Y012578D01*
X006634Y012572D01*
X006686Y012562D01*
X006736Y012549D01*
X006786Y012532D01*
X006834Y012511D01*
X006880Y012486D01*
X006924Y012458D01*
X006966Y012427D01*
X007006Y012393D01*
X007043Y012356D01*
X007077Y012316D01*
X007108Y012274D01*
X007136Y012230D01*
X007161Y012184D01*
X007182Y012136D01*
X007199Y012086D01*
X007212Y012036D01*
X007222Y011984D01*
X007228Y011932D01*
X007230Y011880D01*
X007228Y011828D01*
X007222Y011776D01*
X007212Y011724D01*
X007199Y011674D01*
X007182Y011624D01*
X007161Y011576D01*
X007136Y011530D01*
X007108Y011486D01*
X007077Y011444D01*
X007043Y011404D01*
X007006Y011367D01*
X006966Y011333D01*
X006924Y011302D01*
X006880Y011274D01*
X006834Y011249D01*
X006786Y011228D01*
X006736Y011211D01*
X006686Y011198D01*
X006634Y011188D01*
X006582Y011182D01*
X006530Y011180D01*
X006478Y011182D01*
X006426Y011188D01*
X006374Y011198D01*
X006324Y011211D01*
X006274Y011228D01*
X006226Y011249D01*
X006180Y011274D01*
X006136Y011302D01*
X006094Y011333D01*
X006054Y011367D01*
X006017Y011404D01*
X005983Y011444D01*
X005952Y011486D01*
X005924Y011530D01*
X005899Y011576D01*
X005878Y011624D01*
X005861Y011674D01*
X005848Y011724D01*
X005838Y011776D01*
X005832Y011828D01*
X005830Y011880D01*
X005330Y012730D02*
X005330Y011030D01*
X011930Y010880D02*
X011930Y010380D01*
X012180Y010130D01*
X012680Y010130D01*
X012930Y010380D01*
X012930Y010880D01*
X012680Y011130D01*
X012930Y011380D01*
X012930Y011880D01*
X012680Y012130D01*
X012180Y012130D01*
X011930Y011880D01*
X011930Y011380D01*
X012180Y011130D01*
X011930Y010880D01*
X012780Y005080D02*
X013280Y005080D01*
X014380Y004030D02*
X014380Y003930D01*
X016780Y003930D01*
X016780Y004030D01*
X016730Y003430D02*
X016230Y003430D01*
X015980Y003180D01*
X015980Y001680D01*
X016230Y001430D01*
X016730Y001430D01*
X016980Y001680D01*
X016980Y003180D01*
X016730Y003430D01*
X015980Y003180D02*
X015730Y003430D01*
X015230Y003430D01*
X014980Y003180D01*
X014980Y001680D01*
X015230Y001430D01*
X015730Y001430D01*
X015980Y001680D01*
X014980Y001680D02*
X014730Y001430D01*
X014230Y001430D01*
X013980Y001680D01*
X013980Y003180D01*
X014230Y003430D01*
X014730Y003430D01*
X014980Y003180D01*
X014730Y001298D02*
X014230Y001298D01*
X010480Y003680D02*
X010480Y004180D01*
X017930Y006780D02*
X017930Y009480D01*
X017932Y009539D01*
X017938Y009597D01*
X017947Y009656D01*
X017961Y009713D01*
X017978Y009769D01*
X017999Y009824D01*
X018023Y009878D01*
X018051Y009930D01*
X018082Y009980D01*
X018116Y010028D01*
X018153Y010073D01*
X018194Y010116D01*
X018237Y010157D01*
X018282Y010194D01*
X018330Y010228D01*
X018380Y010259D01*
X018432Y010287D01*
X018486Y010311D01*
X018541Y010332D01*
X018597Y010349D01*
X018654Y010363D01*
X018713Y010372D01*
X018771Y010378D01*
X018830Y010380D01*
X018889Y010378D01*
X018947Y010372D01*
X019006Y010363D01*
X019063Y010349D01*
X019119Y010332D01*
X019174Y010311D01*
X019228Y010287D01*
X019280Y010259D01*
X019330Y010228D01*
X019378Y010194D01*
X019423Y010157D01*
X019466Y010116D01*
X019507Y010073D01*
X019544Y010028D01*
X019578Y009980D01*
X019609Y009930D01*
X019637Y009878D01*
X019661Y009824D01*
X019682Y009769D01*
X019699Y009713D01*
X019713Y009656D01*
X019722Y009597D01*
X019728Y009539D01*
X019730Y009480D01*
X019730Y006780D01*
X019728Y006721D01*
X019722Y006663D01*
X019713Y006604D01*
X019699Y006547D01*
X019682Y006491D01*
X019661Y006436D01*
X019637Y006382D01*
X019609Y006330D01*
X019578Y006280D01*
X019544Y006232D01*
X019507Y006187D01*
X019466Y006144D01*
X019423Y006103D01*
X019378Y006066D01*
X019330Y006032D01*
X019280Y006001D01*
X019228Y005973D01*
X019174Y005949D01*
X019119Y005928D01*
X019063Y005911D01*
X019006Y005897D01*
X018947Y005888D01*
X018889Y005882D01*
X018830Y005880D01*
X018771Y005882D01*
X018713Y005888D01*
X018654Y005897D01*
X018597Y005911D01*
X018541Y005928D01*
X018486Y005949D01*
X018432Y005973D01*
X018380Y006001D01*
X018330Y006032D01*
X018282Y006066D01*
X018237Y006103D01*
X018194Y006144D01*
X018153Y006187D01*
X018116Y006232D01*
X018082Y006280D01*
X018051Y006330D01*
X018023Y006382D01*
X017999Y006436D01*
X017978Y006491D01*
X017961Y006547D01*
X017947Y006604D01*
X017938Y006663D01*
X017932Y006721D01*
X017930Y006780D01*
X018830Y005580D02*
X018830Y005080D01*
X018830Y010580D02*
X018830Y011080D01*
X018645Y014036D02*
X018015Y014036D01*
X018015Y014037D02*
X017999Y014042D01*
X017983Y014050D01*
X017969Y014060D01*
X017957Y014072D01*
X017947Y014087D01*
X017940Y014103D01*
X017936Y014120D01*
X017935Y014137D01*
X017937Y014155D01*
X017937Y014705D02*
X017935Y014723D01*
X017936Y014740D01*
X017940Y014757D01*
X017947Y014773D01*
X017957Y014788D01*
X017969Y014800D01*
X017983Y014810D01*
X017999Y014818D01*
X018015Y014823D01*
X018015Y014824D02*
X018645Y014824D01*
X018645Y014823D02*
X018661Y014818D01*
X018677Y014810D01*
X018691Y014800D01*
X018703Y014788D01*
X018713Y014773D01*
X018720Y014757D01*
X018724Y014740D01*
X018725Y014723D01*
X018723Y014705D01*
X019065Y014824D02*
X019695Y014824D01*
X019695Y014823D02*
X019711Y014818D01*
X019727Y014810D01*
X019741Y014800D01*
X019753Y014788D01*
X019763Y014773D01*
X019770Y014757D01*
X019774Y014740D01*
X019775Y014723D01*
X019773Y014705D01*
X019773Y014155D02*
X019775Y014137D01*
X019774Y014120D01*
X019770Y014103D01*
X019763Y014087D01*
X019753Y014072D01*
X019741Y014060D01*
X019727Y014050D01*
X019711Y014042D01*
X019695Y014037D01*
X019695Y014036D02*
X019065Y014036D01*
X019065Y014037D02*
X019049Y014042D01*
X019033Y014050D01*
X019019Y014060D01*
X019007Y014072D01*
X018997Y014087D01*
X018990Y014103D01*
X018986Y014120D01*
X018985Y014137D01*
X018987Y014155D01*
X018723Y014155D02*
X018725Y014137D01*
X018724Y014120D01*
X018720Y014103D01*
X018713Y014087D01*
X018703Y014072D01*
X018691Y014060D01*
X018677Y014050D01*
X018661Y014042D01*
X018645Y014037D01*
X018987Y014705D02*
X018985Y014723D01*
X018986Y014740D01*
X018990Y014757D01*
X018997Y014773D01*
X019007Y014788D01*
X019019Y014800D01*
X019033Y014810D01*
X019049Y014818D01*
X019065Y014823D01*
X019130Y015530D02*
X019530Y015530D01*
X017846Y016080D02*
X017848Y016142D01*
X017854Y016205D01*
X017864Y016266D01*
X017878Y016327D01*
X017895Y016387D01*
X017916Y016446D01*
X017942Y016503D01*
X017970Y016558D01*
X018002Y016612D01*
X018038Y016663D01*
X018076Y016713D01*
X018118Y016759D01*
X018162Y016803D01*
X018210Y016844D01*
X018259Y016882D01*
X018311Y016916D01*
X018365Y016947D01*
X018421Y016975D01*
X018479Y016999D01*
X018538Y017020D01*
X018598Y017036D01*
X018659Y017049D01*
X018721Y017058D01*
X018783Y017063D01*
X018846Y017064D01*
X018908Y017061D01*
X018970Y017054D01*
X019032Y017043D01*
X019092Y017028D01*
X019152Y017010D01*
X019210Y016988D01*
X019267Y016962D01*
X019322Y016932D01*
X019375Y016899D01*
X019426Y016863D01*
X019474Y016824D01*
X019520Y016781D01*
X019563Y016736D01*
X019603Y016688D01*
X019640Y016638D01*
X019674Y016585D01*
X019705Y016531D01*
X019731Y016475D01*
X019755Y016417D01*
X019774Y016357D01*
X019790Y016297D01*
X019802Y016235D01*
X019810Y016174D01*
X019814Y016111D01*
X019814Y016049D01*
X019810Y015986D01*
X019802Y015925D01*
X019790Y015863D01*
X019774Y015803D01*
X019755Y015743D01*
X019731Y015685D01*
X019705Y015629D01*
X019674Y015575D01*
X019640Y015522D01*
X019603Y015472D01*
X019563Y015424D01*
X019520Y015379D01*
X019474Y015336D01*
X019426Y015297D01*
X019375Y015261D01*
X019322Y015228D01*
X019267Y015198D01*
X019210Y015172D01*
X019152Y015150D01*
X019092Y015132D01*
X019032Y015117D01*
X018970Y015106D01*
X018908Y015099D01*
X018846Y015096D01*
X018783Y015097D01*
X018721Y015102D01*
X018659Y015111D01*
X018598Y015124D01*
X018538Y015140D01*
X018479Y015161D01*
X018421Y015185D01*
X018365Y015213D01*
X018311Y015244D01*
X018259Y015278D01*
X018210Y015316D01*
X018162Y015357D01*
X018118Y015401D01*
X018076Y015447D01*
X018038Y015497D01*
X018002Y015548D01*
X017970Y015602D01*
X017942Y015657D01*
X017916Y015714D01*
X017895Y015773D01*
X017878Y015833D01*
X017864Y015894D01*
X017854Y015955D01*
X017848Y016018D01*
X017846Y016080D01*
X018830Y017380D02*
X018830Y017880D01*
X016780Y017930D02*
X016780Y017830D01*
X016780Y017930D02*
X016080Y017930D01*
X016078Y017886D01*
X016072Y017843D01*
X016063Y017801D01*
X016050Y017759D01*
X016033Y017719D01*
X016013Y017680D01*
X015990Y017643D01*
X015963Y017609D01*
X015934Y017576D01*
X015901Y017547D01*
X015867Y017520D01*
X015830Y017497D01*
X015791Y017477D01*
X015751Y017460D01*
X015709Y017447D01*
X015667Y017438D01*
X015624Y017432D01*
X015580Y017430D01*
X015536Y017432D01*
X015493Y017438D01*
X015451Y017447D01*
X015409Y017460D01*
X015369Y017477D01*
X015330Y017497D01*
X015293Y017520D01*
X015259Y017547D01*
X015226Y017576D01*
X015197Y017609D01*
X015170Y017643D01*
X015147Y017680D01*
X015127Y017719D01*
X015110Y017759D01*
X015097Y017801D01*
X015088Y017843D01*
X015082Y017886D01*
X015080Y017930D01*
X014380Y017930D01*
X014380Y017830D01*
X007499Y017748D02*
X007499Y017512D01*
D11*
X007512Y001610D02*
X007358Y001610D01*
X007282Y001534D01*
X007282Y001227D01*
X007358Y001150D01*
X007512Y001150D01*
X007589Y001227D01*
X007742Y001227D02*
X007819Y001150D01*
X007972Y001150D01*
X008049Y001227D01*
X008049Y001380D01*
X007972Y001457D01*
X007819Y001457D01*
X007742Y001380D01*
X007742Y001227D01*
X007589Y001534D02*
X007512Y001610D01*
X008202Y001457D02*
X008202Y001150D01*
X008509Y001150D02*
X008509Y001380D01*
X008433Y001457D01*
X008202Y001457D01*
X008663Y001457D02*
X008816Y001457D01*
X008740Y001534D02*
X008740Y001227D01*
X008816Y001150D01*
X008970Y001150D02*
X008970Y001457D01*
X009123Y001457D02*
X009200Y001457D01*
X009123Y001457D02*
X008970Y001303D01*
X009353Y001380D02*
X009353Y001227D01*
X009430Y001150D01*
X009584Y001150D01*
X009660Y001227D01*
X009660Y001380D01*
X009584Y001457D01*
X009430Y001457D01*
X009353Y001380D01*
X009814Y001150D02*
X009967Y001150D01*
X009891Y001150D02*
X009891Y001610D01*
X009814Y001610D01*
X010121Y001610D02*
X010197Y001610D01*
X010197Y001150D01*
X010121Y001150D02*
X010274Y001150D01*
X010428Y001227D02*
X010428Y001380D01*
X010504Y001457D01*
X010658Y001457D01*
X010735Y001380D01*
X010735Y001303D01*
X010428Y001303D01*
X010428Y001227D02*
X010504Y001150D01*
X010658Y001150D01*
X010888Y001150D02*
X010888Y001457D01*
X011042Y001457D02*
X011118Y001457D01*
X011042Y001457D02*
X010888Y001303D01*
X011732Y001150D02*
X012039Y001457D01*
X012039Y001534D01*
X011962Y001610D01*
X011809Y001610D01*
X011732Y001534D01*
X011732Y001150D02*
X012039Y001150D01*
X012192Y001227D02*
X012499Y001534D01*
X012499Y001227D01*
X012423Y001150D01*
X012269Y001150D01*
X012192Y001227D01*
X012192Y001534D01*
X012269Y001610D01*
X012423Y001610D01*
X012499Y001534D01*
X012653Y001457D02*
X012806Y001610D01*
X012806Y001150D01*
X012653Y001150D02*
X012960Y001150D01*
X013113Y001380D02*
X013420Y001380D01*
X013343Y001150D02*
X013343Y001610D01*
X013113Y001380D01*
X017300Y001303D02*
X017530Y001303D01*
X017607Y001380D01*
X017607Y001534D01*
X017530Y001610D01*
X017300Y001610D01*
X017300Y001150D01*
X017453Y001303D02*
X017607Y001150D01*
X017760Y001227D02*
X017760Y001380D01*
X017837Y001457D01*
X017991Y001457D01*
X018067Y001380D01*
X018067Y001303D01*
X017760Y001303D01*
X017760Y001227D02*
X017837Y001150D01*
X017991Y001150D01*
X018221Y001457D02*
X018374Y001150D01*
X018528Y001457D01*
X018681Y001227D02*
X018758Y001227D01*
X018758Y001150D01*
X018681Y001150D01*
X018681Y001227D01*
X019372Y001150D02*
X019679Y001150D01*
X019525Y001150D02*
X019525Y001610D01*
X019372Y001457D01*
X006668Y001457D02*
X006514Y001457D01*
X006591Y001534D02*
X006591Y001227D01*
X006668Y001150D01*
X006361Y001227D02*
X006361Y001380D01*
X006284Y001457D01*
X006131Y001457D01*
X006054Y001380D01*
X006054Y001227D01*
X006131Y001150D01*
X006284Y001150D01*
X006361Y001227D01*
X005900Y001227D02*
X005824Y001150D01*
X005670Y001150D01*
X005594Y001227D01*
X005594Y001380D01*
X005670Y001457D01*
X005824Y001457D01*
X005900Y001380D01*
X005900Y001227D01*
X005440Y001610D02*
X005133Y001610D01*
X005133Y001150D01*
X005133Y001380D02*
X005287Y001380D01*
X004519Y001457D02*
X004519Y001073D01*
X004443Y000997D01*
X004366Y000997D01*
X004289Y001150D02*
X004519Y001150D01*
X004289Y001150D02*
X004212Y001227D01*
X004212Y001380D01*
X004289Y001457D01*
X004519Y001457D01*
X004059Y001380D02*
X004059Y001150D01*
X004059Y001380D02*
X003982Y001457D01*
X003752Y001457D01*
X003752Y001150D01*
X003598Y001227D02*
X003598Y001380D01*
X003522Y001457D01*
X003368Y001457D01*
X003292Y001380D01*
X003292Y001227D01*
X003368Y001150D01*
X003522Y001150D01*
X003598Y001227D01*
X003138Y001380D02*
X003061Y001303D01*
X002831Y001303D01*
X002831Y001150D02*
X002831Y001610D01*
X003061Y001610D01*
X003138Y001534D01*
X003138Y001380D01*
X002217Y001227D02*
X002141Y001150D01*
X001910Y001150D01*
X001910Y001610D01*
X002141Y001610D01*
X002217Y001534D01*
X002217Y001227D01*
X001757Y001150D02*
X001450Y001150D01*
X001603Y001150D02*
X001603Y001610D01*
X001450Y001457D01*
D12*
X003495Y001945D02*
X003495Y002315D01*
X003557Y002192D02*
X003680Y002192D01*
X003742Y002130D01*
X003742Y001945D01*
X003925Y002007D02*
X003987Y001945D01*
X003925Y002007D02*
X003925Y002254D01*
X003863Y002192D02*
X003987Y002192D01*
X004109Y002192D02*
X004232Y002192D01*
X004171Y002254D02*
X004171Y002007D01*
X004232Y001945D01*
X004354Y001945D02*
X004540Y001945D01*
X004601Y002007D01*
X004601Y002130D01*
X004540Y002192D01*
X004354Y002192D01*
X004354Y001822D01*
X004723Y001945D02*
X004723Y002007D01*
X004784Y002007D01*
X004784Y001945D01*
X004723Y001945D01*
X004907Y001945D02*
X005154Y002315D01*
X005522Y002315D02*
X005275Y001945D01*
X005644Y002007D02*
X005705Y001945D01*
X005890Y001945D01*
X005890Y001883D02*
X005890Y002192D01*
X005705Y002192D01*
X005644Y002130D01*
X005644Y002007D01*
X005767Y001822D02*
X005829Y001822D01*
X005890Y001883D01*
X006012Y001945D02*
X006135Y001945D01*
X006074Y001945D02*
X006074Y002192D01*
X006012Y002192D01*
X006074Y002315D02*
X006074Y002377D01*
X006257Y002192D02*
X006381Y002192D01*
X006319Y002254D02*
X006319Y002007D01*
X006381Y001945D01*
X006503Y001945D02*
X006503Y002315D01*
X006565Y002192D02*
X006688Y002192D01*
X006750Y002130D01*
X006750Y001945D01*
X006871Y002007D02*
X006933Y001945D01*
X007118Y001945D01*
X007118Y002192D01*
X007240Y002192D02*
X007425Y002192D01*
X007486Y002130D01*
X007486Y002007D01*
X007425Y001945D01*
X007240Y001945D01*
X007240Y002315D01*
X006871Y002192D02*
X006871Y002007D01*
X006565Y002192D02*
X006503Y002130D01*
X007608Y002007D02*
X007608Y001945D01*
X007670Y001945D01*
X007670Y002007D01*
X007608Y002007D01*
X007792Y002007D02*
X007854Y001945D01*
X008039Y001945D01*
X008160Y002007D02*
X008222Y001945D01*
X008345Y001945D01*
X008407Y002007D01*
X008407Y002130D01*
X008345Y002192D01*
X008222Y002192D01*
X008160Y002130D01*
X008160Y002007D01*
X008039Y002192D02*
X007854Y002192D01*
X007792Y002130D01*
X007792Y002007D01*
X008529Y001945D02*
X008529Y002192D01*
X008590Y002192D01*
X008652Y002130D01*
X008714Y002192D01*
X008776Y002130D01*
X008776Y001945D01*
X008897Y001945D02*
X009144Y002315D01*
X009327Y002192D02*
X009265Y002130D01*
X009265Y002007D01*
X009327Y001945D01*
X009512Y001945D01*
X009512Y001883D02*
X009512Y002192D01*
X009327Y002192D01*
X009634Y002192D02*
X009634Y002007D01*
X009695Y001945D01*
X009880Y001945D01*
X009880Y002192D01*
X010002Y002192D02*
X010064Y002192D01*
X010064Y001945D01*
X010125Y001945D02*
X010002Y001945D01*
X010247Y001945D02*
X010247Y002315D01*
X010247Y002192D02*
X010433Y002192D01*
X010494Y002130D01*
X010494Y002007D01*
X010433Y001945D01*
X010247Y001945D01*
X010616Y002007D02*
X010677Y001945D01*
X010801Y001945D01*
X010863Y002007D01*
X010863Y002130D01*
X010801Y002192D01*
X010677Y002192D01*
X010616Y002130D01*
X010616Y002007D01*
X010984Y001945D02*
X010984Y002192D01*
X011046Y002192D01*
X011107Y002130D01*
X011169Y002192D01*
X011231Y002130D01*
X011231Y001945D01*
X011107Y001945D02*
X011107Y002130D01*
X010064Y002315D02*
X010064Y002377D01*
X009512Y001883D02*
X009450Y001822D01*
X009389Y001822D01*
X008652Y001945D02*
X008652Y002130D01*
X004784Y002130D02*
X004723Y002130D01*
X004723Y002192D01*
X004784Y002192D01*
X004784Y002130D01*
X003557Y002192D02*
X003495Y002130D01*
X003945Y011295D02*
X003945Y011585D01*
X004090Y011585D01*
X004138Y011537D01*
X004138Y011440D01*
X004090Y011392D01*
X003945Y011392D01*
X004042Y011392D02*
X004138Y011295D01*
X004240Y011343D02*
X004240Y011440D01*
X004288Y011488D01*
X004385Y011488D01*
X004433Y011440D01*
X004433Y011392D01*
X004240Y011392D01*
X004240Y011343D02*
X004288Y011295D01*
X004385Y011295D01*
X004534Y011343D02*
X004534Y011440D01*
X004583Y011488D01*
X004679Y011488D01*
X004728Y011440D01*
X004728Y011392D01*
X004534Y011392D01*
X004534Y011343D02*
X004583Y011295D01*
X004679Y011295D01*
X004829Y011343D02*
X004829Y011440D01*
X004877Y011488D01*
X005022Y011488D01*
X005022Y011585D02*
X005022Y011295D01*
X004877Y011295D01*
X004829Y011343D01*
X005043Y014495D02*
X005140Y014495D01*
X005188Y014543D01*
X005188Y014640D01*
X005092Y014640D01*
X005188Y014737D02*
X005140Y014785D01*
X005043Y014785D01*
X004995Y014737D01*
X004995Y014543D01*
X005043Y014495D01*
X005290Y014495D02*
X005290Y014785D01*
X005483Y014495D01*
X005483Y014785D01*
X005584Y014785D02*
X005584Y014495D01*
X005729Y014495D01*
X005778Y014543D01*
X005778Y014737D01*
X005729Y014785D01*
X005584Y014785D01*
X006045Y014640D02*
X006238Y014640D01*
X006340Y014592D02*
X006436Y014495D01*
X006533Y014592D01*
X006533Y014785D01*
X006634Y014785D02*
X006634Y014495D01*
X006779Y014495D01*
X006828Y014543D01*
X006828Y014592D01*
X006779Y014640D01*
X006634Y014640D01*
X006634Y014785D02*
X006779Y014785D01*
X006828Y014737D01*
X006828Y014688D01*
X006779Y014640D01*
X006929Y014640D02*
X007122Y014640D01*
X007122Y014688D02*
X007122Y014495D01*
X006929Y014495D02*
X006929Y014688D01*
X007026Y014785D01*
X007122Y014688D01*
X007224Y014785D02*
X007417Y014785D01*
X007320Y014785D02*
X007320Y014495D01*
X006340Y014592D02*
X006340Y014785D01*
X006142Y014737D02*
X006142Y014543D01*
X008845Y012535D02*
X008845Y012245D01*
X008845Y012342D02*
X008990Y012342D01*
X009038Y012390D01*
X009038Y012487D01*
X008990Y012535D01*
X008845Y012535D01*
X008942Y012342D02*
X009038Y012245D01*
X009895Y012440D02*
X010088Y012440D01*
X009992Y012537D02*
X009992Y012343D01*
X010895Y012343D02*
X010943Y012295D01*
X011040Y012295D01*
X011088Y012343D01*
X011088Y012440D01*
X010992Y012440D01*
X011088Y012537D02*
X011040Y012585D01*
X010943Y012585D01*
X010895Y012537D01*
X010895Y012343D01*
X012445Y012495D02*
X012590Y012495D01*
X012638Y012543D01*
X012638Y012592D01*
X012590Y012640D01*
X012445Y012640D01*
X012445Y012495D02*
X012445Y012785D01*
X012590Y012785D01*
X012638Y012737D01*
X012638Y012688D01*
X012590Y012640D01*
X018095Y008727D02*
X018157Y008788D01*
X018218Y008788D01*
X018280Y008727D01*
X018280Y008603D01*
X018218Y008541D01*
X018157Y008541D01*
X018095Y008603D01*
X018095Y008727D01*
X018280Y008727D02*
X018342Y008788D01*
X018404Y008788D01*
X018465Y008727D01*
X018465Y008603D01*
X018404Y008541D01*
X018342Y008541D01*
X018280Y008603D01*
X018095Y008420D02*
X018465Y008420D01*
X018342Y008297D01*
X018465Y008173D01*
X018095Y008173D01*
X018095Y008052D02*
X018465Y008052D01*
X018280Y008052D02*
X018280Y007805D01*
X018342Y007683D02*
X018342Y007436D01*
X018095Y007683D01*
X018095Y007436D01*
X018095Y007805D02*
X018465Y007805D01*
X018438Y013595D02*
X018438Y013788D01*
X018342Y013885D01*
X018245Y013788D01*
X018245Y013595D01*
X018245Y013740D02*
X018438Y013740D01*
X018540Y013595D02*
X018685Y013595D01*
X018733Y013643D01*
X018733Y013837D01*
X018685Y013885D01*
X018540Y013885D01*
X018540Y013595D01*
X018834Y013595D02*
X018834Y013885D01*
X018979Y013885D01*
X019028Y013837D01*
X019028Y013643D01*
X018979Y013595D01*
X018834Y013595D01*
X019129Y013595D02*
X019129Y013885D01*
X019274Y013885D01*
X019322Y013837D01*
X019322Y013740D01*
X019274Y013692D01*
X019129Y013692D01*
X019226Y013692D02*
X019322Y013595D01*
D13*
X011710Y011820D02*
X011490Y011673D01*
X011710Y011673D01*
X011710Y011599D02*
X011710Y011489D01*
X011673Y011452D01*
X011600Y011452D01*
X011563Y011489D01*
X011563Y011599D01*
X011490Y011599D02*
X011710Y011599D01*
X011563Y011526D02*
X011490Y011452D01*
X011490Y011378D02*
X011710Y011378D01*
X011710Y011231D01*
X011600Y011305D02*
X011600Y011378D01*
X011490Y011820D02*
X011710Y011820D01*
X011710Y010936D02*
X011563Y010936D01*
X011490Y010863D01*
X011563Y010789D01*
X011710Y010789D01*
X011673Y010715D02*
X011527Y010715D01*
X011490Y010678D01*
X011490Y010605D01*
X011527Y010568D01*
X011527Y010494D02*
X011490Y010457D01*
X011490Y010384D01*
X011527Y010347D01*
X011673Y010347D02*
X011710Y010384D01*
X011710Y010457D01*
X011673Y010494D01*
X011527Y010494D01*
X011673Y010568D02*
X011710Y010605D01*
X011710Y010678D01*
X011673Y010715D01*
X008903Y005337D02*
X008940Y005300D01*
X008940Y005190D01*
X008830Y005190D01*
X008793Y005227D01*
X008830Y005263D01*
X008940Y005263D01*
X008903Y005337D02*
X008830Y005337D01*
X008719Y005300D02*
X008719Y005190D01*
X008719Y005300D02*
X008682Y005337D01*
X008572Y005337D01*
X008572Y005190D01*
X008498Y005190D02*
X008498Y005300D01*
X008461Y005337D01*
X008351Y005337D01*
X008351Y005190D01*
X008277Y005263D02*
X008277Y005300D01*
X008240Y005337D01*
X008167Y005337D01*
X008130Y005300D01*
X008130Y005227D01*
X008167Y005190D01*
X008240Y005190D01*
X008277Y005263D02*
X008130Y005263D01*
X008056Y005190D02*
X008020Y005227D01*
X008020Y005373D01*
X008056Y005337D02*
X007983Y005337D01*
X007909Y005300D02*
X007909Y005190D01*
X007909Y005300D02*
X007872Y005337D01*
X007762Y005337D01*
X007762Y005190D01*
X007688Y005190D02*
X007688Y005337D01*
X007614Y005410D01*
X007541Y005337D01*
X007541Y005190D01*
X007541Y005300D02*
X007688Y005300D01*
X007246Y005337D02*
X007136Y005337D01*
X007099Y005300D01*
X007099Y005227D01*
X007136Y005190D01*
X007246Y005190D01*
X007025Y005190D02*
X006952Y005190D01*
X006988Y005190D02*
X006988Y005337D01*
X006952Y005337D01*
X006988Y005410D02*
X006988Y005447D01*
X006877Y005300D02*
X006877Y005190D01*
X006804Y005190D02*
X006804Y005300D01*
X006841Y005337D01*
X006877Y005300D01*
X006804Y005300D02*
X006767Y005337D01*
X006731Y005337D01*
X006731Y005190D01*
X006656Y005190D02*
X006546Y005190D01*
X006510Y005227D01*
X006546Y005263D01*
X006656Y005263D01*
X006656Y005300D02*
X006656Y005190D01*
X006656Y005300D02*
X006620Y005337D01*
X006546Y005337D01*
X006435Y005337D02*
X006399Y005337D01*
X006325Y005263D01*
X006325Y005190D02*
X006325Y005337D01*
X006251Y005300D02*
X006251Y005263D01*
X006104Y005263D01*
X006104Y005227D02*
X006104Y005300D01*
X006141Y005337D01*
X006215Y005337D01*
X006251Y005300D01*
X006215Y005190D02*
X006141Y005190D01*
X006104Y005227D01*
X006030Y005227D02*
X005994Y005190D01*
X005920Y005190D01*
X005883Y005227D01*
X005883Y005373D01*
X005920Y005410D01*
X005994Y005410D01*
X006030Y005373D01*
X005588Y005300D02*
X005588Y005190D01*
X005588Y005300D02*
X005552Y005337D01*
X005478Y005337D01*
X005441Y005300D01*
X005368Y005337D02*
X005294Y005337D01*
X005331Y005373D02*
X005331Y005227D01*
X005368Y005190D01*
X005441Y005190D02*
X005441Y005410D01*
X005183Y005410D02*
X005183Y005447D01*
X005183Y005337D02*
X005183Y005190D01*
X005147Y005190D02*
X005220Y005190D01*
X005183Y005337D02*
X005147Y005337D01*
X005073Y005337D02*
X005073Y005227D01*
X005036Y005190D01*
X004999Y005227D01*
X004963Y005190D01*
X004926Y005227D01*
X004926Y005337D01*
X004631Y005337D02*
X004631Y005190D01*
X004631Y005300D02*
X004484Y005300D01*
X004484Y005337D02*
X004557Y005410D01*
X004631Y005337D01*
X004484Y005337D02*
X004484Y005190D01*
X004410Y005190D02*
X004410Y005410D01*
X004263Y005410D02*
X004263Y005190D01*
X004189Y005190D02*
X004042Y005190D01*
X004042Y005410D01*
X003968Y005300D02*
X003821Y005300D01*
X003747Y005300D02*
X003600Y005300D01*
X003600Y005337D02*
X003673Y005410D01*
X003747Y005337D01*
X003747Y005190D01*
X003600Y005190D02*
X003600Y005337D01*
X003526Y005373D02*
X003526Y005300D01*
X003489Y005263D01*
X003379Y005263D01*
X003379Y005190D02*
X003379Y005410D01*
X003489Y005410D01*
X003526Y005373D01*
X003305Y005300D02*
X003158Y005300D01*
X003231Y005373D02*
X003231Y005227D01*
X003084Y005190D02*
X002937Y005190D01*
X003010Y005190D02*
X003010Y005410D01*
X002937Y005337D01*
X002863Y005373D02*
X002716Y005227D01*
X002753Y005190D01*
X002826Y005190D01*
X002863Y005227D01*
X002863Y005373D01*
X002826Y005410D01*
X002753Y005410D01*
X002716Y005373D01*
X002716Y005227D01*
X002642Y005190D02*
X002495Y005190D01*
X002495Y005410D01*
X002384Y005410D02*
X002274Y005300D01*
X002421Y005300D01*
X002384Y005190D02*
X002384Y005410D01*
X002200Y005373D02*
X002163Y005410D01*
X002090Y005410D01*
X002053Y005373D01*
X001979Y005410D02*
X001832Y005410D01*
X001832Y005190D01*
X001758Y005190D02*
X001684Y005263D01*
X001721Y005263D02*
X001611Y005263D01*
X001611Y005190D02*
X001611Y005410D01*
X001721Y005410D01*
X001758Y005373D01*
X001758Y005300D01*
X001721Y005263D01*
X001832Y005300D02*
X001905Y005300D01*
X002053Y005190D02*
X002200Y005337D01*
X002200Y005373D01*
X002200Y005190D02*
X002053Y005190D01*
X001537Y005190D02*
X001537Y005410D01*
X001390Y005410D02*
X001390Y005190D01*
X001537Y005190D02*
X001390Y005410D01*
X003590Y003323D02*
X003590Y003177D01*
X003627Y003140D01*
X003700Y003140D01*
X003737Y003177D01*
X003737Y003250D01*
X003663Y003250D01*
X003590Y003323D02*
X003627Y003360D01*
X003700Y003360D01*
X003737Y003323D01*
X003811Y003360D02*
X003958Y003140D01*
X003958Y003360D01*
X004032Y003360D02*
X004142Y003360D01*
X004179Y003323D01*
X004179Y003177D01*
X004142Y003140D01*
X004032Y003140D01*
X004032Y003360D01*
X003811Y003360D02*
X003811Y003140D01*
X004695Y003177D02*
X004732Y003140D01*
X004805Y003140D01*
X004842Y003177D01*
X004842Y003323D02*
X004805Y003360D01*
X004732Y003360D01*
X004695Y003323D01*
X004695Y003177D01*
X004916Y003360D02*
X005063Y003360D01*
X004989Y003360D02*
X004989Y003140D01*
X005137Y003177D02*
X005174Y003140D01*
X005247Y003140D01*
X005284Y003177D01*
X005284Y003213D01*
X005247Y003250D01*
X005174Y003250D01*
X005137Y003287D01*
X005137Y003323D01*
X005174Y003360D01*
X005247Y003360D01*
X005284Y003323D01*
X005579Y003360D02*
X005579Y003213D01*
X005652Y003140D01*
X005726Y003213D01*
X005726Y003360D01*
X005800Y003323D02*
X005800Y003177D01*
X005837Y003140D01*
X005910Y003140D01*
X005947Y003177D01*
X006021Y003177D02*
X006021Y003323D01*
X006058Y003360D01*
X006131Y003360D01*
X006168Y003323D01*
X006168Y003177D02*
X006131Y003140D01*
X006058Y003140D01*
X006021Y003177D01*
X005947Y003323D02*
X005910Y003360D01*
X005837Y003360D01*
X005800Y003323D01*
X006684Y003360D02*
X006831Y003360D01*
X006757Y003360D02*
X006757Y003140D01*
X006905Y003140D02*
X007052Y003360D01*
X006905Y003360D02*
X007052Y003140D01*
X007789Y003140D02*
X007789Y003360D01*
X007899Y003360D01*
X007936Y003323D01*
X007936Y003250D01*
X007899Y003213D01*
X007789Y003213D01*
X007862Y003213D02*
X007936Y003140D01*
X008010Y003140D02*
X008157Y003360D01*
X008010Y003360D02*
X008157Y003140D01*
X008673Y003140D02*
X008783Y003140D01*
X008820Y003177D01*
X008820Y003323D01*
X008783Y003360D01*
X008673Y003360D01*
X008673Y003140D01*
X008894Y003360D02*
X009041Y003360D01*
X009115Y003360D02*
X009225Y003360D01*
X009261Y003323D01*
X009261Y003250D01*
X009225Y003213D01*
X009115Y003213D01*
X009115Y003140D02*
X009115Y003360D01*
X008967Y003360D02*
X008967Y003140D01*
X009188Y003213D02*
X009261Y003140D01*
X004410Y005190D02*
X004263Y005410D01*
X003894Y005373D02*
X003894Y005227D01*
D14*
X010385Y004510D02*
X010385Y004410D01*
X010410Y004385D01*
X010460Y004385D01*
X010485Y004410D01*
X010532Y004460D02*
X010632Y004460D01*
X010607Y004385D02*
X010607Y004535D01*
X010532Y004460D01*
X010485Y004510D02*
X010460Y004535D01*
X010410Y004535D01*
X010385Y004510D01*
X012335Y005010D02*
X012360Y004985D01*
X012410Y004985D01*
X012435Y005010D01*
X012482Y005010D02*
X012507Y004985D01*
X012557Y004985D01*
X012582Y005010D01*
X012582Y005060D01*
X012557Y005085D01*
X012532Y005085D01*
X012482Y005060D01*
X012482Y005135D01*
X012582Y005135D01*
X012435Y005110D02*
X012410Y005135D01*
X012360Y005135D01*
X012335Y005110D01*
X012335Y005010D01*
X018685Y004960D02*
X018685Y004860D01*
X018710Y004835D01*
X018760Y004835D01*
X018785Y004860D01*
X018832Y004860D02*
X018857Y004835D01*
X018907Y004835D01*
X018932Y004860D01*
X018932Y004885D01*
X018907Y004910D01*
X018882Y004910D01*
X018907Y004910D02*
X018932Y004935D01*
X018932Y004960D01*
X018907Y004985D01*
X018857Y004985D01*
X018832Y004960D01*
X018785Y004960D02*
X018760Y004985D01*
X018710Y004985D01*
X018685Y004960D01*
X018132Y011185D02*
X018032Y011185D01*
X018132Y011285D01*
X018132Y011310D01*
X018107Y011335D01*
X018057Y011335D01*
X018032Y011310D01*
X017985Y011310D02*
X017960Y011335D01*
X017910Y011335D01*
X017885Y011310D01*
X017885Y011210D01*
X017910Y011185D01*
X017960Y011185D01*
X017985Y011210D01*
X018665Y016575D02*
X018715Y016575D01*
X018740Y016600D01*
X018788Y016600D02*
X018813Y016575D01*
X018863Y016575D01*
X018888Y016600D01*
X018888Y016625D01*
X018863Y016650D01*
X018788Y016650D01*
X018788Y016600D01*
X018788Y016650D02*
X018838Y016700D01*
X018888Y016725D01*
X018740Y016700D02*
X018715Y016725D01*
X018665Y016725D01*
X018640Y016700D01*
X018640Y016600D01*
X018665Y016575D01*
X019465Y018025D02*
X019515Y018025D01*
X019540Y018050D01*
X019588Y018025D02*
X019688Y018025D01*
X019638Y018025D02*
X019638Y018175D01*
X019588Y018125D01*
X019540Y018150D02*
X019515Y018175D01*
X019465Y018175D01*
X019440Y018150D01*
X019440Y018050D01*
X019465Y018025D01*
X004282Y015160D02*
X004282Y015135D01*
X004257Y015110D01*
X004207Y015110D01*
X004182Y015135D01*
X004182Y015160D01*
X004207Y015185D01*
X004257Y015185D01*
X004282Y015160D01*
X004257Y015110D02*
X004282Y015085D01*
X004282Y015060D01*
X004257Y015035D01*
X004207Y015035D01*
X004182Y015060D01*
X004182Y015085D01*
X004207Y015110D01*
X004135Y015060D02*
X004110Y015035D01*
X004060Y015035D01*
X004035Y015060D01*
X004035Y015160D01*
X004060Y015185D01*
X004110Y015185D01*
X004135Y015160D01*
X004138Y017175D02*
X004138Y017200D01*
X004238Y017300D01*
X004238Y017325D01*
X004138Y017325D01*
X004090Y017300D02*
X004065Y017325D01*
X004015Y017325D01*
X003990Y017300D01*
X003990Y017200D01*
X004015Y017175D01*
X004065Y017175D01*
X004090Y017200D01*
X002088Y015750D02*
X002063Y015775D01*
X002013Y015775D01*
X001988Y015750D01*
X001988Y015725D01*
X002013Y015700D01*
X002088Y015700D01*
X002088Y015650D02*
X002088Y015750D01*
X002088Y015650D02*
X002063Y015625D01*
X002013Y015625D01*
X001988Y015650D01*
X001940Y015650D02*
X001915Y015625D01*
X001865Y015625D01*
X001840Y015650D01*
X001840Y015750D01*
X001865Y015775D01*
X001915Y015775D01*
X001940Y015750D01*
D15*
X001180Y012330D02*
X001182Y012380D01*
X001188Y012430D01*
X001198Y012480D01*
X001211Y012528D01*
X001228Y012576D01*
X001249Y012622D01*
X001273Y012666D01*
X001301Y012708D01*
X001332Y012748D01*
X001366Y012785D01*
X001403Y012820D01*
X001442Y012851D01*
X001483Y012880D01*
X001527Y012905D01*
X001573Y012927D01*
X001620Y012945D01*
X001668Y012959D01*
X001717Y012970D01*
X001767Y012977D01*
X001817Y012980D01*
X001868Y012979D01*
X001918Y012974D01*
X001968Y012965D01*
X002016Y012953D01*
X002064Y012936D01*
X002110Y012916D01*
X002155Y012893D01*
X002198Y012866D01*
X002238Y012836D01*
X002276Y012803D01*
X002311Y012767D01*
X002344Y012728D01*
X002373Y012687D01*
X002399Y012644D01*
X002422Y012599D01*
X002441Y012552D01*
X002456Y012504D01*
X002468Y012455D01*
X002476Y012405D01*
X002480Y012355D01*
X002480Y012305D01*
X002476Y012255D01*
X002468Y012205D01*
X002456Y012156D01*
X002441Y012108D01*
X002422Y012061D01*
X002399Y012016D01*
X002373Y011973D01*
X002344Y011932D01*
X002311Y011893D01*
X002276Y011857D01*
X002238Y011824D01*
X002198Y011794D01*
X002155Y011767D01*
X002110Y011744D01*
X002064Y011724D01*
X002016Y011707D01*
X001968Y011695D01*
X001918Y011686D01*
X001868Y011681D01*
X001817Y011680D01*
X001767Y011683D01*
X001717Y011690D01*
X001668Y011701D01*
X001620Y011715D01*
X001573Y011733D01*
X001527Y011755D01*
X001483Y011780D01*
X001442Y011809D01*
X001403Y011840D01*
X001366Y011875D01*
X001332Y011912D01*
X001301Y011952D01*
X001273Y011994D01*
X001249Y012038D01*
X001228Y012084D01*
X001211Y012132D01*
X001198Y012180D01*
X001188Y012230D01*
X001182Y012280D01*
X001180Y012330D01*
X005412Y017630D02*
X005414Y017656D01*
X005420Y017682D01*
X005430Y017707D01*
X005443Y017730D01*
X005459Y017750D01*
X005479Y017768D01*
X005501Y017783D01*
X005524Y017795D01*
X005550Y017803D01*
X005576Y017807D01*
X005602Y017807D01*
X005628Y017803D01*
X005654Y017795D01*
X005678Y017783D01*
X005699Y017768D01*
X005719Y017750D01*
X005735Y017730D01*
X005748Y017707D01*
X005758Y017682D01*
X005764Y017656D01*
X005766Y017630D01*
X005764Y017604D01*
X005758Y017578D01*
X005748Y017553D01*
X005735Y017530D01*
X005719Y017510D01*
X005699Y017492D01*
X005677Y017477D01*
X005654Y017465D01*
X005628Y017457D01*
X005602Y017453D01*
X005576Y017453D01*
X005550Y017457D01*
X005524Y017465D01*
X005500Y017477D01*
X005479Y017492D01*
X005459Y017510D01*
X005443Y017530D01*
X005430Y017553D01*
X005420Y017578D01*
X005414Y017604D01*
X005412Y017630D01*
X006594Y017630D02*
X006596Y017656D01*
X006602Y017682D01*
X006612Y017707D01*
X006625Y017730D01*
X006641Y017750D01*
X006661Y017768D01*
X006683Y017783D01*
X006706Y017795D01*
X006732Y017803D01*
X006758Y017807D01*
X006784Y017807D01*
X006810Y017803D01*
X006836Y017795D01*
X006860Y017783D01*
X006881Y017768D01*
X006901Y017750D01*
X006917Y017730D01*
X006930Y017707D01*
X006940Y017682D01*
X006946Y017656D01*
X006948Y017630D01*
X006946Y017604D01*
X006940Y017578D01*
X006930Y017553D01*
X006917Y017530D01*
X006901Y017510D01*
X006881Y017492D01*
X006859Y017477D01*
X006836Y017465D01*
X006810Y017457D01*
X006784Y017453D01*
X006758Y017453D01*
X006732Y017457D01*
X006706Y017465D01*
X006682Y017477D01*
X006661Y017492D01*
X006641Y017510D01*
X006625Y017530D01*
X006612Y017553D01*
X006602Y017578D01*
X006596Y017604D01*
X006594Y017630D01*
X008175Y017814D02*
X008177Y017844D01*
X008183Y017874D01*
X008192Y017903D01*
X008205Y017930D01*
X008222Y017955D01*
X008241Y017978D01*
X008264Y017999D01*
X008289Y018016D01*
X008315Y018030D01*
X008344Y018040D01*
X008373Y018047D01*
X008403Y018050D01*
X008434Y018049D01*
X008464Y018044D01*
X008493Y018035D01*
X008520Y018023D01*
X008546Y018008D01*
X008570Y017989D01*
X008591Y017967D01*
X008609Y017943D01*
X008624Y017916D01*
X008635Y017888D01*
X008643Y017859D01*
X008647Y017829D01*
X008647Y017799D01*
X008643Y017769D01*
X008635Y017740D01*
X008624Y017712D01*
X008609Y017685D01*
X008591Y017661D01*
X008570Y017639D01*
X008546Y017620D01*
X008520Y017605D01*
X008493Y017593D01*
X008464Y017584D01*
X008434Y017579D01*
X008403Y017578D01*
X008373Y017581D01*
X008344Y017588D01*
X008315Y017598D01*
X008289Y017612D01*
X008264Y017629D01*
X008241Y017650D01*
X008222Y017673D01*
X008205Y017698D01*
X008192Y017725D01*
X008183Y017754D01*
X008177Y017784D01*
X008175Y017814D01*
X008175Y016830D02*
X008177Y016860D01*
X008183Y016890D01*
X008192Y016919D01*
X008205Y016946D01*
X008222Y016971D01*
X008241Y016994D01*
X008264Y017015D01*
X008289Y017032D01*
X008315Y017046D01*
X008344Y017056D01*
X008373Y017063D01*
X008403Y017066D01*
X008434Y017065D01*
X008464Y017060D01*
X008493Y017051D01*
X008520Y017039D01*
X008546Y017024D01*
X008570Y017005D01*
X008591Y016983D01*
X008609Y016959D01*
X008624Y016932D01*
X008635Y016904D01*
X008643Y016875D01*
X008647Y016845D01*
X008647Y016815D01*
X008643Y016785D01*
X008635Y016756D01*
X008624Y016728D01*
X008609Y016701D01*
X008591Y016677D01*
X008570Y016655D01*
X008546Y016636D01*
X008520Y016621D01*
X008493Y016609D01*
X008464Y016600D01*
X008434Y016595D01*
X008403Y016594D01*
X008373Y016597D01*
X008344Y016604D01*
X008315Y016614D01*
X008289Y016628D01*
X008264Y016645D01*
X008241Y016666D01*
X008222Y016689D01*
X008205Y016714D01*
X008192Y016741D01*
X008183Y016770D01*
X008177Y016800D01*
X008175Y016830D01*
X010144Y014861D02*
X010146Y014891D01*
X010152Y014921D01*
X010161Y014950D01*
X010174Y014977D01*
X010191Y015002D01*
X010210Y015025D01*
X010233Y015046D01*
X010258Y015063D01*
X010284Y015077D01*
X010313Y015087D01*
X010342Y015094D01*
X010372Y015097D01*
X010403Y015096D01*
X010433Y015091D01*
X010462Y015082D01*
X010489Y015070D01*
X010515Y015055D01*
X010539Y015036D01*
X010560Y015014D01*
X010578Y014990D01*
X010593Y014963D01*
X010604Y014935D01*
X010612Y014906D01*
X010616Y014876D01*
X010616Y014846D01*
X010612Y014816D01*
X010604Y014787D01*
X010593Y014759D01*
X010578Y014732D01*
X010560Y014708D01*
X010539Y014686D01*
X010515Y014667D01*
X010489Y014652D01*
X010462Y014640D01*
X010433Y014631D01*
X010403Y014626D01*
X010372Y014625D01*
X010342Y014628D01*
X010313Y014635D01*
X010284Y014645D01*
X010258Y014659D01*
X010233Y014676D01*
X010210Y014697D01*
X010191Y014720D01*
X010174Y014745D01*
X010161Y014772D01*
X010152Y014801D01*
X010146Y014831D01*
X010144Y014861D01*
X012113Y016830D02*
X012115Y016860D01*
X012121Y016890D01*
X012130Y016919D01*
X012143Y016946D01*
X012160Y016971D01*
X012179Y016994D01*
X012202Y017015D01*
X012227Y017032D01*
X012253Y017046D01*
X012282Y017056D01*
X012311Y017063D01*
X012341Y017066D01*
X012372Y017065D01*
X012402Y017060D01*
X012431Y017051D01*
X012458Y017039D01*
X012484Y017024D01*
X012508Y017005D01*
X012529Y016983D01*
X012547Y016959D01*
X012562Y016932D01*
X012573Y016904D01*
X012581Y016875D01*
X012585Y016845D01*
X012585Y016815D01*
X012581Y016785D01*
X012573Y016756D01*
X012562Y016728D01*
X012547Y016701D01*
X012529Y016677D01*
X012508Y016655D01*
X012484Y016636D01*
X012458Y016621D01*
X012431Y016609D01*
X012402Y016600D01*
X012372Y016595D01*
X012341Y016594D01*
X012311Y016597D01*
X012282Y016604D01*
X012253Y016614D01*
X012227Y016628D01*
X012202Y016645D01*
X012179Y016666D01*
X012160Y016689D01*
X012143Y016714D01*
X012130Y016741D01*
X012121Y016770D01*
X012115Y016800D01*
X012113Y016830D01*
X012113Y017814D02*
X012115Y017844D01*
X012121Y017874D01*
X012130Y017903D01*
X012143Y017930D01*
X012160Y017955D01*
X012179Y017978D01*
X012202Y017999D01*
X012227Y018016D01*
X012253Y018030D01*
X012282Y018040D01*
X012311Y018047D01*
X012341Y018050D01*
X012372Y018049D01*
X012402Y018044D01*
X012431Y018035D01*
X012458Y018023D01*
X012484Y018008D01*
X012508Y017989D01*
X012529Y017967D01*
X012547Y017943D01*
X012562Y017916D01*
X012573Y017888D01*
X012581Y017859D01*
X012585Y017829D01*
X012585Y017799D01*
X012581Y017769D01*
X012573Y017740D01*
X012562Y017712D01*
X012547Y017685D01*
X012529Y017661D01*
X012508Y017639D01*
X012484Y017620D01*
X012458Y017605D01*
X012431Y017593D01*
X012402Y017584D01*
X012372Y017579D01*
X012341Y017578D01*
X012311Y017581D01*
X012282Y017588D01*
X012253Y017598D01*
X012227Y017612D01*
X012202Y017629D01*
X012179Y017650D01*
X012160Y017673D01*
X012143Y017698D01*
X012130Y017725D01*
X012121Y017754D01*
X012115Y017784D01*
X012113Y017814D01*
X018230Y012330D02*
X018232Y012380D01*
X018238Y012430D01*
X018248Y012480D01*
X018261Y012528D01*
X018278Y012576D01*
X018299Y012622D01*
X018323Y012666D01*
X018351Y012708D01*
X018382Y012748D01*
X018416Y012785D01*
X018453Y012820D01*
X018492Y012851D01*
X018533Y012880D01*
X018577Y012905D01*
X018623Y012927D01*
X018670Y012945D01*
X018718Y012959D01*
X018767Y012970D01*
X018817Y012977D01*
X018867Y012980D01*
X018918Y012979D01*
X018968Y012974D01*
X019018Y012965D01*
X019066Y012953D01*
X019114Y012936D01*
X019160Y012916D01*
X019205Y012893D01*
X019248Y012866D01*
X019288Y012836D01*
X019326Y012803D01*
X019361Y012767D01*
X019394Y012728D01*
X019423Y012687D01*
X019449Y012644D01*
X019472Y012599D01*
X019491Y012552D01*
X019506Y012504D01*
X019518Y012455D01*
X019526Y012405D01*
X019530Y012355D01*
X019530Y012305D01*
X019526Y012255D01*
X019518Y012205D01*
X019506Y012156D01*
X019491Y012108D01*
X019472Y012061D01*
X019449Y012016D01*
X019423Y011973D01*
X019394Y011932D01*
X019361Y011893D01*
X019326Y011857D01*
X019288Y011824D01*
X019248Y011794D01*
X019205Y011767D01*
X019160Y011744D01*
X019114Y011724D01*
X019066Y011707D01*
X019018Y011695D01*
X018968Y011686D01*
X018918Y011681D01*
X018867Y011680D01*
X018817Y011683D01*
X018767Y011690D01*
X018718Y011701D01*
X018670Y011715D01*
X018623Y011733D01*
X018577Y011755D01*
X018533Y011780D01*
X018492Y011809D01*
X018453Y011840D01*
X018416Y011875D01*
X018382Y011912D01*
X018351Y011952D01*
X018323Y011994D01*
X018299Y012038D01*
X018278Y012084D01*
X018261Y012132D01*
X018248Y012180D01*
X018238Y012230D01*
X018232Y012280D01*
X018230Y012330D01*
X018230Y003630D02*
X018232Y003680D01*
X018238Y003730D01*
X018248Y003780D01*
X018261Y003828D01*
X018278Y003876D01*
X018299Y003922D01*
X018323Y003966D01*
X018351Y004008D01*
X018382Y004048D01*
X018416Y004085D01*
X018453Y004120D01*
X018492Y004151D01*
X018533Y004180D01*
X018577Y004205D01*
X018623Y004227D01*
X018670Y004245D01*
X018718Y004259D01*
X018767Y004270D01*
X018817Y004277D01*
X018867Y004280D01*
X018918Y004279D01*
X018968Y004274D01*
X019018Y004265D01*
X019066Y004253D01*
X019114Y004236D01*
X019160Y004216D01*
X019205Y004193D01*
X019248Y004166D01*
X019288Y004136D01*
X019326Y004103D01*
X019361Y004067D01*
X019394Y004028D01*
X019423Y003987D01*
X019449Y003944D01*
X019472Y003899D01*
X019491Y003852D01*
X019506Y003804D01*
X019518Y003755D01*
X019526Y003705D01*
X019530Y003655D01*
X019530Y003605D01*
X019526Y003555D01*
X019518Y003505D01*
X019506Y003456D01*
X019491Y003408D01*
X019472Y003361D01*
X019449Y003316D01*
X019423Y003273D01*
X019394Y003232D01*
X019361Y003193D01*
X019326Y003157D01*
X019288Y003124D01*
X019248Y003094D01*
X019205Y003067D01*
X019160Y003044D01*
X019114Y003024D01*
X019066Y003007D01*
X019018Y002995D01*
X018968Y002986D01*
X018918Y002981D01*
X018867Y002980D01*
X018817Y002983D01*
X018767Y002990D01*
X018718Y003001D01*
X018670Y003015D01*
X018623Y003033D01*
X018577Y003055D01*
X018533Y003080D01*
X018492Y003109D01*
X018453Y003140D01*
X018416Y003175D01*
X018382Y003212D01*
X018351Y003252D01*
X018323Y003294D01*
X018299Y003338D01*
X018278Y003384D01*
X018261Y003432D01*
X018248Y003480D01*
X018238Y003530D01*
X018232Y003580D01*
X018230Y003630D01*
X001180Y003630D02*
X001182Y003680D01*
X001188Y003730D01*
X001198Y003780D01*
X001211Y003828D01*
X001228Y003876D01*
X001249Y003922D01*
X001273Y003966D01*
X001301Y004008D01*
X001332Y004048D01*
X001366Y004085D01*
X001403Y004120D01*
X001442Y004151D01*
X001483Y004180D01*
X001527Y004205D01*
X001573Y004227D01*
X001620Y004245D01*
X001668Y004259D01*
X001717Y004270D01*
X001767Y004277D01*
X001817Y004280D01*
X001868Y004279D01*
X001918Y004274D01*
X001968Y004265D01*
X002016Y004253D01*
X002064Y004236D01*
X002110Y004216D01*
X002155Y004193D01*
X002198Y004166D01*
X002238Y004136D01*
X002276Y004103D01*
X002311Y004067D01*
X002344Y004028D01*
X002373Y003987D01*
X002399Y003944D01*
X002422Y003899D01*
X002441Y003852D01*
X002456Y003804D01*
X002468Y003755D01*
X002476Y003705D01*
X002480Y003655D01*
X002480Y003605D01*
X002476Y003555D01*
X002468Y003505D01*
X002456Y003456D01*
X002441Y003408D01*
X002422Y003361D01*
X002399Y003316D01*
X002373Y003273D01*
X002344Y003232D01*
X002311Y003193D01*
X002276Y003157D01*
X002238Y003124D01*
X002198Y003094D01*
X002155Y003067D01*
X002110Y003044D01*
X002064Y003024D01*
X002016Y003007D01*
X001968Y002995D01*
X001918Y002986D01*
X001868Y002981D01*
X001817Y002980D01*
X001767Y002983D01*
X001717Y002990D01*
X001668Y003001D01*
X001620Y003015D01*
X001573Y003033D01*
X001527Y003055D01*
X001483Y003080D01*
X001442Y003109D01*
X001403Y003140D01*
X001366Y003175D01*
X001332Y003212D01*
X001301Y003252D01*
X001273Y003294D01*
X001249Y003338D01*
X001228Y003384D01*
X001211Y003432D01*
X001198Y003480D01*
X001188Y003530D01*
X001182Y003580D01*
X001180Y003630D01*
D16*
X003777Y011180D02*
X003777Y011830D01*
X003691Y011830D01*
X003777Y011830D02*
X003777Y012480D01*
X009683Y012480D01*
X009683Y011830D01*
X009769Y011830D01*
X009683Y011830D02*
X009683Y011180D01*
X003777Y011180D01*
D17*
X002948Y008798D02*
X002612Y008798D01*
X002567Y008353D01*
X002466Y008324D01*
X002370Y008284D01*
X002278Y008233D01*
X001932Y008516D01*
X001694Y008278D01*
X001977Y007932D01*
X001926Y007840D01*
X001886Y007744D01*
X001857Y007643D01*
X001412Y007598D01*
X001412Y007262D01*
X001857Y007217D01*
X001886Y007116D01*
X001926Y007020D01*
X001977Y006928D01*
X001694Y006582D01*
X001932Y006344D01*
X002278Y006627D01*
X002346Y006588D01*
X002417Y006555D01*
X002615Y007032D01*
X002551Y007065D01*
X002493Y007109D01*
X002443Y007162D01*
X002403Y007222D01*
X002374Y007288D01*
X002355Y007358D01*
X002349Y007430D01*
X002357Y007510D01*
X002379Y007588D01*
X002416Y007660D01*
X002465Y007724D01*
X002526Y007778D01*
X002595Y007819D01*
X002671Y007847D01*
X002751Y007860D01*
X002831Y007858D01*
X002910Y007840D01*
X002985Y007809D01*
X003052Y007764D01*
X003109Y007707D01*
X003155Y007641D01*
X003188Y007567D01*
X003207Y007489D01*
X003210Y007408D01*
X003198Y007328D01*
X003172Y007252D01*
X003132Y007182D01*
X003079Y007120D01*
X003016Y007070D01*
X002945Y007032D01*
X003143Y006555D01*
X003214Y006588D01*
X003282Y006627D01*
X003628Y006344D01*
X003866Y006582D01*
X003583Y006928D01*
X003634Y007020D01*
X003674Y007116D01*
X003703Y007217D01*
X004148Y007262D01*
X004148Y007598D01*
X003703Y007643D01*
X003674Y007744D01*
X003634Y007840D01*
X003583Y007932D01*
X003866Y008278D01*
X003628Y008516D01*
X003282Y008233D01*
X003190Y008284D01*
X003094Y008324D01*
X002993Y008353D01*
X002948Y008798D01*
X002948Y008795D02*
X002612Y008795D01*
X002606Y008738D02*
X002954Y008738D01*
X002960Y008680D02*
X002600Y008680D01*
X002594Y008623D02*
X002966Y008623D01*
X002972Y008565D02*
X002588Y008565D01*
X002583Y008508D02*
X002977Y008508D01*
X002983Y008450D02*
X002577Y008450D01*
X002571Y008392D02*
X002989Y008392D01*
X003056Y008335D02*
X002504Y008335D01*
X002358Y008277D02*
X003202Y008277D01*
X003336Y008277D02*
X003865Y008277D01*
X003818Y008220D02*
X001742Y008220D01*
X001695Y008277D02*
X002224Y008277D01*
X002154Y008335D02*
X001751Y008335D01*
X001808Y008392D02*
X002083Y008392D01*
X002012Y008450D02*
X001866Y008450D01*
X001923Y008508D02*
X001942Y008508D01*
X001789Y008162D02*
X003771Y008162D01*
X003724Y008105D02*
X001836Y008105D01*
X001883Y008047D02*
X003677Y008047D01*
X003630Y007990D02*
X001930Y007990D01*
X001977Y007932D02*
X003583Y007932D01*
X003615Y007874D02*
X001945Y007874D01*
X001916Y007817D02*
X002592Y007817D01*
X002505Y007759D02*
X001893Y007759D01*
X001874Y007702D02*
X002448Y007702D01*
X002408Y007644D02*
X001857Y007644D01*
X001412Y007587D02*
X002379Y007587D01*
X002362Y007529D02*
X001412Y007529D01*
X001412Y007472D02*
X002353Y007472D01*
X002351Y007414D02*
X001412Y007414D01*
X001412Y007356D02*
X002356Y007356D01*
X002371Y007299D02*
X001412Y007299D01*
X001617Y007241D02*
X002394Y007241D01*
X002428Y007184D02*
X001867Y007184D01*
X001883Y007126D02*
X002477Y007126D01*
X002547Y007069D02*
X001906Y007069D01*
X001931Y007011D02*
X002606Y007011D01*
X002583Y006954D02*
X001963Y006954D01*
X001950Y006896D02*
X002559Y006896D01*
X002535Y006838D02*
X001904Y006838D01*
X001857Y006781D02*
X002511Y006781D01*
X002487Y006723D02*
X001810Y006723D01*
X001763Y006666D02*
X002463Y006666D01*
X002440Y006608D02*
X002310Y006608D01*
X002255Y006608D02*
X001716Y006608D01*
X001725Y006551D02*
X002185Y006551D01*
X002114Y006493D02*
X001783Y006493D01*
X001840Y006436D02*
X002044Y006436D01*
X001973Y006378D02*
X001898Y006378D01*
X002977Y006954D02*
X003597Y006954D01*
X003610Y006896D02*
X003001Y006896D01*
X003025Y006838D02*
X003656Y006838D01*
X003703Y006781D02*
X003049Y006781D01*
X003073Y006723D02*
X003750Y006723D01*
X003797Y006666D02*
X003097Y006666D01*
X003120Y006608D02*
X003250Y006608D01*
X003305Y006608D02*
X003844Y006608D01*
X003835Y006551D02*
X003375Y006551D01*
X003446Y006493D02*
X003777Y006493D01*
X003720Y006436D02*
X003516Y006436D01*
X003587Y006378D02*
X003662Y006378D01*
X003629Y007011D02*
X002954Y007011D01*
X003014Y007069D02*
X003654Y007069D01*
X003677Y007126D02*
X003084Y007126D01*
X003133Y007184D02*
X003693Y007184D01*
X003943Y007241D02*
X003166Y007241D01*
X003188Y007299D02*
X004148Y007299D01*
X004148Y007356D02*
X003203Y007356D01*
X003210Y007414D02*
X004148Y007414D01*
X004148Y007472D02*
X003207Y007472D01*
X003197Y007529D02*
X004148Y007529D01*
X004148Y007587D02*
X003180Y007587D01*
X003153Y007644D02*
X003703Y007644D01*
X003686Y007702D02*
X003113Y007702D01*
X003057Y007759D02*
X003667Y007759D01*
X003644Y007817D02*
X002966Y007817D01*
X003406Y008335D02*
X003809Y008335D01*
X003752Y008392D02*
X003477Y008392D01*
X003548Y008450D02*
X003694Y008450D01*
X003637Y008508D02*
X003618Y008508D01*
D18*
X002303Y016444D02*
X002282Y016513D01*
X002283Y016512D02*
X002341Y016532D01*
X002397Y016556D01*
X002452Y016583D01*
X002505Y016613D01*
X002557Y016646D01*
X002606Y016682D01*
X002653Y016721D01*
X002697Y016763D01*
X002739Y016808D01*
X002778Y016855D01*
X002815Y016904D01*
X002848Y016956D01*
X002878Y017009D01*
X002905Y017064D01*
X002928Y017121D01*
X002948Y017178D01*
X002965Y017237D01*
X002977Y017297D01*
X002987Y017358D01*
X002992Y017419D01*
X002994Y017480D01*
X002992Y017541D01*
X002987Y017602D01*
X002977Y017662D01*
X002965Y017722D01*
X002948Y017781D01*
X002928Y017839D01*
X002905Y017895D01*
X002878Y017951D01*
X002848Y018004D01*
X002815Y018055D01*
X002779Y018105D01*
X002835Y018149D01*
X002874Y018096D01*
X002910Y018041D01*
X002942Y017984D01*
X002971Y017925D01*
X002996Y017865D01*
X003017Y017803D01*
X003035Y017739D01*
X003048Y017675D01*
X003058Y017611D01*
X003064Y017545D01*
X003066Y017480D01*
X003064Y017414D01*
X003058Y017349D01*
X003048Y017284D01*
X003034Y017220D01*
X003017Y017157D01*
X002995Y017095D01*
X002970Y017034D01*
X002942Y016976D01*
X002910Y016918D01*
X002874Y016863D01*
X002835Y016811D01*
X002793Y016760D01*
X002748Y016712D01*
X002701Y016667D01*
X002650Y016626D01*
X002597Y016587D01*
X002542Y016551D01*
X002485Y016519D01*
X002426Y016490D01*
X002366Y016465D01*
X002304Y016443D01*
X002302Y016450D01*
X002363Y016471D01*
X002424Y016496D01*
X002482Y016525D01*
X002539Y016557D01*
X002594Y016592D01*
X002646Y016631D01*
X002696Y016673D01*
X002743Y016717D01*
X002788Y016765D01*
X002830Y016815D01*
X002868Y016867D01*
X002904Y016922D01*
X002936Y016979D01*
X002964Y017037D01*
X002989Y017098D01*
X003010Y017159D01*
X003028Y017222D01*
X003041Y017285D01*
X003051Y017350D01*
X003057Y017415D01*
X003059Y017480D01*
X003057Y017545D01*
X003051Y017610D01*
X003041Y017674D01*
X003028Y017738D01*
X003010Y017801D01*
X002989Y017862D01*
X002964Y017922D01*
X002936Y017981D01*
X002904Y018038D01*
X002868Y018092D01*
X002830Y018145D01*
X002824Y018140D01*
X002863Y018088D01*
X002898Y018034D01*
X002930Y017978D01*
X002958Y017919D01*
X002983Y017860D01*
X003004Y017798D01*
X003021Y017736D01*
X003035Y017673D01*
X003044Y017609D01*
X003050Y017544D01*
X003052Y017480D01*
X003050Y017415D01*
X003044Y017351D01*
X003034Y017287D01*
X003021Y017223D01*
X003003Y017161D01*
X002982Y017100D01*
X002958Y017040D01*
X002929Y016982D01*
X002898Y016926D01*
X002862Y016871D01*
X002824Y016819D01*
X002783Y016769D01*
X002738Y016722D01*
X002691Y016678D01*
X002642Y016637D01*
X002590Y016598D01*
X002535Y016563D01*
X002479Y016531D01*
X002421Y016503D01*
X002361Y016478D01*
X002300Y016457D01*
X002298Y016464D01*
X002359Y016485D01*
X002418Y016509D01*
X002476Y016537D01*
X002532Y016569D01*
X002586Y016604D01*
X002637Y016642D01*
X002687Y016683D01*
X002733Y016727D01*
X002777Y016774D01*
X002819Y016824D01*
X002857Y016875D01*
X002892Y016929D01*
X002923Y016985D01*
X002951Y017043D01*
X002976Y017102D01*
X002997Y017163D01*
X003014Y017225D01*
X003028Y017288D01*
X003037Y017352D01*
X003043Y017416D01*
X003045Y017480D01*
X003043Y017544D01*
X003037Y017608D01*
X003028Y017672D01*
X003014Y017734D01*
X002997Y017796D01*
X002976Y017857D01*
X002951Y017917D01*
X002923Y017974D01*
X002892Y018030D01*
X002857Y018084D01*
X002819Y018136D01*
X002813Y018132D01*
X002851Y018080D01*
X002886Y018027D01*
X002917Y017971D01*
X002945Y017914D01*
X002969Y017855D01*
X002990Y017794D01*
X003007Y017733D01*
X003021Y017670D01*
X003030Y017607D01*
X003036Y017544D01*
X003038Y017480D01*
X003036Y017416D01*
X003030Y017352D01*
X003021Y017289D01*
X003007Y017227D01*
X002990Y017165D01*
X002969Y017105D01*
X002945Y017046D01*
X002917Y016989D01*
X002886Y016933D01*
X002851Y016879D01*
X002813Y016828D01*
X002772Y016779D01*
X002729Y016732D01*
X002682Y016688D01*
X002633Y016648D01*
X002582Y016610D01*
X002528Y016575D01*
X002472Y016544D01*
X002415Y016516D01*
X002356Y016491D01*
X002296Y016470D01*
X002294Y016477D01*
X002354Y016498D01*
X002412Y016522D01*
X002469Y016550D01*
X002524Y016581D01*
X002578Y016615D01*
X002629Y016653D01*
X002677Y016694D01*
X002724Y016737D01*
X002767Y016783D01*
X002808Y016832D01*
X002845Y016883D01*
X002880Y016937D01*
X002911Y016992D01*
X002938Y017049D01*
X002963Y017107D01*
X002983Y017167D01*
X003000Y017228D01*
X003014Y017291D01*
X003023Y017353D01*
X003029Y017416D01*
X003031Y017480D01*
X003029Y017543D01*
X003023Y017606D01*
X003014Y017669D01*
X003001Y017731D01*
X002984Y017792D01*
X002963Y017852D01*
X002939Y017911D01*
X002911Y017968D01*
X002880Y018023D01*
X002845Y018076D01*
X002808Y018127D01*
X002802Y018123D01*
X002840Y018072D01*
X002874Y018019D01*
X002905Y017965D01*
X002932Y017908D01*
X002956Y017850D01*
X002977Y017790D01*
X002994Y017729D01*
X003007Y017668D01*
X003016Y017605D01*
X003022Y017543D01*
X003024Y017480D01*
X003022Y017417D01*
X003016Y017354D01*
X003007Y017292D01*
X002994Y017230D01*
X002977Y017169D01*
X002956Y017110D01*
X002932Y017052D01*
X002905Y016995D01*
X002874Y016940D01*
X002839Y016887D01*
X002802Y016836D01*
X002762Y016788D01*
X002719Y016742D01*
X002673Y016699D01*
X002624Y016659D01*
X002574Y016621D01*
X002521Y016587D01*
X002466Y016556D01*
X002409Y016528D01*
X002351Y016504D01*
X002292Y016484D01*
X002290Y016490D01*
X002349Y016511D01*
X002406Y016535D01*
X002463Y016562D01*
X002517Y016593D01*
X002570Y016627D01*
X002620Y016664D01*
X002668Y016704D01*
X002714Y016747D01*
X002757Y016793D01*
X002797Y016841D01*
X002834Y016891D01*
X002868Y016944D01*
X002898Y016998D01*
X002926Y017055D01*
X002950Y017112D01*
X002970Y017172D01*
X002987Y017232D01*
X003000Y017293D01*
X003009Y017355D01*
X003015Y017417D01*
X003017Y017480D01*
X003015Y017542D01*
X003009Y017605D01*
X003000Y017666D01*
X002987Y017728D01*
X002970Y017788D01*
X002950Y017847D01*
X002926Y017905D01*
X002899Y017961D01*
X002868Y018016D01*
X002834Y018068D01*
X002797Y018119D01*
X002791Y018114D01*
X002828Y018064D01*
X002862Y018012D01*
X002892Y017958D01*
X002920Y017902D01*
X002943Y017845D01*
X002964Y017786D01*
X002980Y017726D01*
X002993Y017665D01*
X003003Y017604D01*
X003008Y017542D01*
X003010Y017480D01*
X003008Y017418D01*
X003002Y017356D01*
X002993Y017294D01*
X002980Y017234D01*
X002963Y017174D01*
X002943Y017115D01*
X002919Y017057D01*
X002892Y017002D01*
X002862Y016947D01*
X002828Y016895D01*
X002791Y016845D01*
X002751Y016797D01*
X002709Y016752D01*
X002664Y016709D01*
X002616Y016670D01*
X002566Y016633D01*
X002514Y016599D01*
X002459Y016568D01*
X002404Y016541D01*
X002346Y016517D01*
X002287Y016497D01*
X002285Y016504D01*
X002344Y016524D01*
X002401Y016548D01*
X002456Y016575D01*
X002510Y016605D01*
X002562Y016639D01*
X002611Y016675D01*
X002659Y016715D01*
X002704Y016757D01*
X002746Y016802D01*
X002786Y016849D01*
X002822Y016899D01*
X002856Y016951D01*
X002886Y017005D01*
X002913Y017060D01*
X002937Y017117D01*
X002957Y017176D01*
X002973Y017235D01*
X002986Y017296D01*
X002996Y017357D01*
X003001Y017418D01*
X003003Y017480D01*
X003001Y017541D01*
X002996Y017603D01*
X002986Y017664D01*
X002973Y017724D01*
X002957Y017784D01*
X002937Y017842D01*
X002913Y017899D01*
X002886Y017955D01*
X002856Y018009D01*
X002822Y018060D01*
X002786Y018110D01*
X002780Y018106D01*
X002817Y018056D01*
X002850Y018005D01*
X002880Y017951D01*
X002907Y017896D01*
X002930Y017840D01*
X002950Y017782D01*
X002967Y017723D01*
X002979Y017663D01*
X002989Y017602D01*
X002994Y017541D01*
X002996Y017480D01*
X002994Y017418D01*
X002989Y017357D01*
X002979Y017297D01*
X002966Y017237D01*
X002950Y017178D01*
X002930Y017120D01*
X002907Y017063D01*
X002880Y017008D01*
X002850Y016955D01*
X002816Y016903D01*
X002780Y016854D01*
X002741Y016807D01*
X002699Y016762D01*
X002654Y016720D01*
X002607Y016681D01*
X002558Y016644D01*
X002506Y016611D01*
X002453Y016581D01*
X002398Y016554D01*
X002341Y016530D01*
X002283Y016510D01*
X001125Y018149D02*
X001182Y018104D01*
X001181Y018105D02*
X001145Y018055D01*
X001112Y018004D01*
X001082Y017951D01*
X001055Y017895D01*
X001032Y017839D01*
X001012Y017781D01*
X000995Y017722D01*
X000983Y017662D01*
X000973Y017602D01*
X000968Y017541D01*
X000966Y017480D01*
X000968Y017419D01*
X000973Y017358D01*
X000983Y017297D01*
X000995Y017237D01*
X001012Y017178D01*
X001032Y017121D01*
X001055Y017064D01*
X001082Y017009D01*
X001112Y016956D01*
X001145Y016904D01*
X001181Y016855D01*
X001221Y016808D01*
X001263Y016763D01*
X001307Y016721D01*
X001354Y016682D01*
X001403Y016646D01*
X001455Y016613D01*
X001508Y016583D01*
X001563Y016556D01*
X001619Y016532D01*
X001677Y016512D01*
X001656Y016444D01*
X001656Y016443D01*
X001594Y016465D01*
X001534Y016490D01*
X001475Y016519D01*
X001418Y016551D01*
X001363Y016587D01*
X001310Y016626D01*
X001259Y016668D01*
X001212Y016712D01*
X001167Y016760D01*
X001125Y016811D01*
X001086Y016863D01*
X001050Y016918D01*
X001018Y016976D01*
X000990Y017034D01*
X000965Y017095D01*
X000943Y017157D01*
X000926Y017220D01*
X000912Y017284D01*
X000902Y017349D01*
X000896Y017414D01*
X000894Y017480D01*
X000896Y017545D01*
X000902Y017611D01*
X000912Y017675D01*
X000925Y017740D01*
X000943Y017803D01*
X000964Y017865D01*
X000989Y017925D01*
X001018Y017984D01*
X001050Y018041D01*
X001086Y018096D01*
X001125Y018149D01*
X001130Y018145D01*
X001092Y018092D01*
X001056Y018038D01*
X001024Y017981D01*
X000996Y017922D01*
X000971Y017862D01*
X000950Y017801D01*
X000932Y017738D01*
X000919Y017674D01*
X000909Y017610D01*
X000903Y017545D01*
X000901Y017480D01*
X000903Y017415D01*
X000909Y017350D01*
X000919Y017285D01*
X000932Y017222D01*
X000950Y017159D01*
X000971Y017098D01*
X000996Y017037D01*
X001024Y016979D01*
X001056Y016922D01*
X001092Y016867D01*
X001130Y016815D01*
X001172Y016765D01*
X001217Y016717D01*
X001264Y016673D01*
X001314Y016631D01*
X001366Y016592D01*
X001421Y016557D01*
X001478Y016525D01*
X001536Y016496D01*
X001597Y016471D01*
X001658Y016450D01*
X001660Y016457D01*
X001599Y016478D01*
X001539Y016503D01*
X001481Y016531D01*
X001425Y016563D01*
X001370Y016598D01*
X001318Y016637D01*
X001269Y016678D01*
X001222Y016722D01*
X001177Y016769D01*
X001136Y016819D01*
X001098Y016871D01*
X001062Y016926D01*
X001031Y016982D01*
X001002Y017040D01*
X000978Y017100D01*
X000957Y017161D01*
X000939Y017223D01*
X000926Y017287D01*
X000916Y017351D01*
X000910Y017415D01*
X000908Y017480D01*
X000910Y017544D01*
X000916Y017609D01*
X000925Y017673D01*
X000939Y017736D01*
X000956Y017798D01*
X000977Y017860D01*
X001002Y017919D01*
X001030Y017978D01*
X001062Y018034D01*
X001097Y018088D01*
X001136Y018140D01*
X001141Y018136D01*
X001103Y018084D01*
X001068Y018030D01*
X001037Y017974D01*
X001009Y017917D01*
X000984Y017857D01*
X000963Y017796D01*
X000946Y017734D01*
X000932Y017672D01*
X000923Y017608D01*
X000917Y017544D01*
X000915Y017480D01*
X000917Y017416D01*
X000923Y017352D01*
X000932Y017288D01*
X000946Y017225D01*
X000963Y017163D01*
X000984Y017102D01*
X001009Y017043D01*
X001037Y016985D01*
X001068Y016929D01*
X001103Y016875D01*
X001141Y016824D01*
X001183Y016774D01*
X001227Y016727D01*
X001273Y016683D01*
X001323Y016642D01*
X001374Y016604D01*
X001428Y016569D01*
X001484Y016537D01*
X001542Y016509D01*
X001601Y016485D01*
X001662Y016464D01*
X001664Y016470D01*
X001604Y016491D01*
X001545Y016516D01*
X001488Y016544D01*
X001432Y016575D01*
X001378Y016610D01*
X001327Y016648D01*
X001278Y016688D01*
X001231Y016732D01*
X001188Y016779D01*
X001147Y016828D01*
X001109Y016879D01*
X001074Y016933D01*
X001043Y016989D01*
X001015Y017046D01*
X000991Y017105D01*
X000970Y017165D01*
X000953Y017227D01*
X000939Y017289D01*
X000930Y017352D01*
X000924Y017416D01*
X000922Y017480D01*
X000924Y017544D01*
X000930Y017607D01*
X000939Y017670D01*
X000953Y017733D01*
X000970Y017794D01*
X000991Y017855D01*
X001015Y017914D01*
X001043Y017971D01*
X001074Y018027D01*
X001109Y018080D01*
X001147Y018132D01*
X001152Y018127D01*
X001115Y018076D01*
X001080Y018023D01*
X001049Y017968D01*
X001021Y017911D01*
X000997Y017852D01*
X000976Y017792D01*
X000959Y017731D01*
X000946Y017669D01*
X000937Y017606D01*
X000931Y017543D01*
X000929Y017480D01*
X000931Y017416D01*
X000937Y017353D01*
X000946Y017291D01*
X000960Y017229D01*
X000977Y017167D01*
X000997Y017107D01*
X001022Y017049D01*
X001049Y016992D01*
X001080Y016937D01*
X001115Y016883D01*
X001152Y016832D01*
X001193Y016783D01*
X001236Y016737D01*
X001283Y016694D01*
X001331Y016653D01*
X001382Y016615D01*
X001436Y016581D01*
X001491Y016550D01*
X001548Y016522D01*
X001606Y016498D01*
X001666Y016477D01*
X001668Y016484D01*
X001609Y016504D01*
X001551Y016528D01*
X001494Y016556D01*
X001439Y016587D01*
X001386Y016621D01*
X001336Y016659D01*
X001287Y016699D01*
X001241Y016742D01*
X001198Y016788D01*
X001158Y016837D01*
X001121Y016887D01*
X001086Y016940D01*
X001055Y016995D01*
X001028Y017052D01*
X001004Y017110D01*
X000983Y017169D01*
X000966Y017230D01*
X000953Y017292D01*
X000944Y017354D01*
X000938Y017417D01*
X000936Y017480D01*
X000938Y017543D01*
X000944Y017605D01*
X000953Y017668D01*
X000966Y017729D01*
X000983Y017790D01*
X001004Y017850D01*
X001028Y017908D01*
X001055Y017965D01*
X001086Y018019D01*
X001120Y018072D01*
X001158Y018123D01*
X001163Y018119D01*
X001126Y018068D01*
X001092Y018016D01*
X001061Y017961D01*
X001034Y017905D01*
X001010Y017847D01*
X000990Y017788D01*
X000973Y017728D01*
X000960Y017667D01*
X000951Y017605D01*
X000945Y017542D01*
X000943Y017480D01*
X000945Y017417D01*
X000951Y017355D01*
X000960Y017293D01*
X000973Y017232D01*
X000990Y017172D01*
X001010Y017112D01*
X001034Y017055D01*
X001062Y016998D01*
X001092Y016944D01*
X001126Y016891D01*
X001163Y016841D01*
X001203Y016793D01*
X001246Y016747D01*
X001292Y016704D01*
X001340Y016664D01*
X001390Y016627D01*
X001443Y016593D01*
X001497Y016562D01*
X001554Y016535D01*
X001611Y016511D01*
X001670Y016490D01*
X001673Y016497D01*
X001614Y016517D01*
X001556Y016541D01*
X001501Y016568D01*
X001446Y016599D01*
X001394Y016633D01*
X001344Y016670D01*
X001296Y016709D01*
X001251Y016752D01*
X001209Y016797D01*
X001169Y016845D01*
X001132Y016895D01*
X001098Y016947D01*
X001068Y017002D01*
X001041Y017057D01*
X001017Y017115D01*
X000997Y017174D01*
X000980Y017234D01*
X000967Y017294D01*
X000958Y017356D01*
X000952Y017418D01*
X000950Y017480D01*
X000952Y017542D01*
X000957Y017604D01*
X000967Y017665D01*
X000980Y017726D01*
X000996Y017786D01*
X001017Y017845D01*
X001040Y017902D01*
X001068Y017958D01*
X001098Y018012D01*
X001132Y018064D01*
X001169Y018114D01*
X001174Y018110D01*
X001138Y018060D01*
X001104Y018009D01*
X001074Y017955D01*
X001047Y017899D01*
X001023Y017842D01*
X001003Y017784D01*
X000987Y017724D01*
X000974Y017664D01*
X000964Y017603D01*
X000959Y017541D01*
X000957Y017480D01*
X000959Y017418D01*
X000964Y017357D01*
X000974Y017296D01*
X000987Y017235D01*
X001003Y017176D01*
X001023Y017117D01*
X001047Y017060D01*
X001074Y017005D01*
X001104Y016951D01*
X001138Y016899D01*
X001174Y016849D01*
X001214Y016802D01*
X001256Y016757D01*
X001301Y016715D01*
X001349Y016675D01*
X001398Y016639D01*
X001450Y016605D01*
X001504Y016575D01*
X001559Y016548D01*
X001616Y016524D01*
X001675Y016504D01*
X001677Y016510D01*
X001619Y016530D01*
X001562Y016554D01*
X001507Y016581D01*
X001454Y016611D01*
X001402Y016644D01*
X001353Y016681D01*
X001306Y016720D01*
X001261Y016762D01*
X001219Y016807D01*
X001180Y016854D01*
X001144Y016903D01*
X001110Y016955D01*
X001080Y017008D01*
X001053Y017063D01*
X001030Y017120D01*
X001010Y017178D01*
X000994Y017237D01*
X000981Y017297D01*
X000971Y017357D01*
X000966Y017418D01*
X000964Y017480D01*
X000966Y017541D01*
X000971Y017602D01*
X000981Y017663D01*
X000993Y017723D01*
X001010Y017782D01*
X001030Y017840D01*
X001053Y017896D01*
X001080Y017951D01*
X001110Y018005D01*
X001143Y018056D01*
X001180Y018106D01*
M02*
