%
M48
M72
T01C0.0197
T02C0.0236
T03C0.0276
T04C0.0315
T05C0.0320
T06C0.0354
T07C0.0400
T08C0.0472
T09C0.0512
T10C0.1300
%
T01
X10480Y8530
X11030Y7380
X12380Y7580
X13130Y6880
X13330Y7680
X12580Y9080
X11930Y10030
X10780Y11030
X10280Y11130
X9680Y10680
X9930Y10280
X10480Y10230
X11830Y12130
X14980Y13880
X15680Y13780
X16330Y13980
X15080Y15580
X14680Y15980
X14830Y8930
X12380Y6080
X11280Y4530
X14730Y4930
X14880Y5380
T02
X17130Y3630
X19430Y8130
X9930Y15780
X2780Y7430
T03
X9980Y3930
X10980Y3930
X13030Y4580
X13030Y5580
X18330Y5330
X19330Y5330
X18830Y7130
X18830Y9130
X18330Y10830
X19330Y10830
X19330Y16080
X18330Y16080
X18330Y17630
X19330Y17630
X3580Y17730
X3580Y16730
X3580Y15630
X2480Y15130
X1480Y15130
X3580Y14630
T04
X6580Y16380
T05
X2480Y17480
X1980Y16730
X1480Y17480
X14080Y17430
X14080Y16430
X14080Y15430
X14080Y14430
X14080Y13430
X14080Y12430
X14080Y11430
X14080Y10430
X14080Y9430
X14080Y8430
X14080Y7430
X14080Y6430
X14080Y5430
X14080Y4430
X17080Y4430
X17080Y5430
X17080Y6430
X17080Y7430
X17080Y8430
X17080Y9430
X17080Y10430
X17080Y11430
X17080Y12430
X17080Y13430
X17080Y14430
X17080Y15430
X17080Y16430
X17080Y17430
T06
X6771Y17630
X5589Y17630
T07
X5530Y15430
X6530Y15430
X5640Y13160
X7420Y13160
X8930Y13180
X9930Y13180
X10930Y13180
X11930Y13180
X12430Y11630
X12430Y10630
X10230Y11830
X7420Y10600
X5640Y10600
X3230Y11830
X3930Y4030
X4930Y4030
X5930Y4030
X6930Y4030
X7930Y4030
X8930Y4030
X14480Y2930
X15480Y2930
X16480Y2930
X16480Y1930
X15480Y1930
X14480Y1930
T08
X10380Y14861
X8411Y16830
X8411Y17814
X12349Y17814
X12349Y16830
T09
X10380Y16830
X9396Y14861
X8411Y14861
X11364Y14861
X12349Y14861
T10
X1830Y3630
X1830Y12330
X18880Y12330
X18880Y3630
M30
